G04 #@! TF.FileFunction,Copper,L1,Top,Signal*
%FSLAX46Y46*%
G04 Gerber Fmt 4.6, Leading zero omitted, Abs format (unit mm)*
G04 Created by KiCad (PCBNEW 4.0.2-stable) date 10.07.2016 14:54:09*
%MOMM*%
G01*
G04 APERTURE LIST*
%ADD10C,0.100000*%
%ADD11R,0.500000X3.000000*%
%ADD12R,1.727200X1.727200*%
%ADD13O,1.727200X1.727200*%
%ADD14C,5.000000*%
%ADD15C,0.600000*%
%ADD16C,0.250000*%
%ADD17C,0.254000*%
G04 APERTURE END LIST*
D10*
D11*
X145427500Y-108394500D03*
X146227500Y-108394500D03*
X147027500Y-108394500D03*
X147827500Y-108394500D03*
X148627500Y-108394500D03*
X149427500Y-108394500D03*
X150227500Y-108394500D03*
X151027500Y-108394500D03*
X151827500Y-108394500D03*
X152627500Y-108394500D03*
X153427500Y-108394500D03*
X154227500Y-108394500D03*
X155027500Y-108394500D03*
X155827500Y-108394500D03*
D12*
X146621500Y-90551000D03*
D13*
X146621500Y-93091000D03*
X149161500Y-90551000D03*
X149161500Y-93091000D03*
X151701500Y-90551000D03*
X151701500Y-93091000D03*
X154241500Y-90551000D03*
X154241500Y-93091000D03*
D14*
X136525000Y-88646000D03*
X164528500Y-88646000D03*
X136525000Y-146685000D03*
X164528500Y-146621500D03*
D15*
X147891500Y-104711500D03*
X148653500Y-105727500D03*
X155003500Y-105791000D03*
X146558000Y-105727500D03*
X155067000Y-111061500D03*
X148590000Y-111188500D03*
X146685000Y-111252000D03*
X153035000Y-104648000D03*
X157099000Y-101854000D03*
X151257000Y-97599500D03*
D16*
X147827500Y-108394500D02*
X147827500Y-104775500D01*
X147827500Y-104775500D02*
X147891500Y-104711500D01*
X148627500Y-105753500D02*
X148627500Y-108394500D01*
X148653500Y-105727500D02*
X148627500Y-105753500D01*
X155003500Y-105791000D02*
X155027500Y-105815000D01*
X155027500Y-105815000D02*
X155027500Y-108394500D01*
X146558000Y-105727500D02*
X146558000Y-105918000D01*
X147027500Y-106387500D02*
X147027500Y-108394500D01*
X146558000Y-105918000D02*
X147027500Y-106387500D01*
X146240500Y-106045000D02*
X146240500Y-108381500D01*
X146558000Y-105727500D02*
X146240500Y-106045000D01*
X146240500Y-108381500D02*
X146227500Y-108394500D01*
X155027500Y-111022000D02*
X155027500Y-108394500D01*
X155067000Y-111061500D02*
X155027500Y-111022000D01*
X148627500Y-111151000D02*
X148627500Y-108394500D01*
X148590000Y-111188500D02*
X148627500Y-111151000D01*
X146685000Y-111252000D02*
X146685000Y-111061500D01*
X146685000Y-111061500D02*
X147027500Y-110719000D01*
X147027500Y-110719000D02*
X147027500Y-108394500D01*
X146227500Y-110794500D02*
X146227500Y-108394500D01*
X146685000Y-111252000D02*
X146227500Y-110794500D01*
X154559000Y-111950500D02*
X154368500Y-111950500D01*
X153427500Y-111009500D02*
X153427500Y-108394500D01*
X154368500Y-111950500D02*
X153427500Y-111009500D01*
X157099000Y-101854000D02*
X157099000Y-104203500D01*
X152627500Y-111035000D02*
X152627500Y-108394500D01*
X153543000Y-111950500D02*
X152627500Y-111035000D01*
X157480000Y-111950500D02*
X154559000Y-111950500D01*
X154559000Y-111950500D02*
X153543000Y-111950500D01*
X159258000Y-110172500D02*
X157480000Y-111950500D01*
X159258000Y-106362500D02*
X159258000Y-110172500D01*
X157099000Y-104203500D02*
X159258000Y-106362500D01*
X153035000Y-104648000D02*
X153098500Y-104648000D01*
X153098500Y-104648000D02*
X153427500Y-104977000D01*
X153427500Y-104977000D02*
X153427500Y-108394500D01*
X152627500Y-105055500D02*
X152627500Y-108394500D01*
X153035000Y-104648000D02*
X152627500Y-105055500D01*
X152654000Y-108421000D02*
X152627500Y-108394500D01*
X151701500Y-93091000D02*
X151701500Y-95186500D01*
X157099000Y-100584000D02*
X157099000Y-101854000D01*
X151701500Y-95186500D02*
X157099000Y-100584000D01*
X149427500Y-108394500D02*
X149427500Y-104469500D01*
X145351500Y-90551000D02*
X146621500Y-90551000D01*
X144208500Y-91694000D02*
X145351500Y-90551000D01*
X144208500Y-99250500D02*
X144208500Y-91694000D01*
X149427500Y-104469500D02*
X144208500Y-99250500D01*
X150227500Y-108394500D02*
X150227500Y-103999500D01*
X147891500Y-91821000D02*
X149161500Y-90551000D01*
X145923000Y-91821000D02*
X147891500Y-91821000D01*
X144780000Y-92964000D02*
X145923000Y-91821000D01*
X144780000Y-98552000D02*
X144780000Y-92964000D01*
X150227500Y-103999500D02*
X144780000Y-98552000D01*
X151027500Y-108394500D02*
X151027500Y-103212000D01*
X149161500Y-101346000D02*
X149161500Y-93091000D01*
X151027500Y-103212000D02*
X149161500Y-101346000D01*
X151827500Y-108394500D02*
X151827500Y-102805500D01*
X150431500Y-91821000D02*
X151701500Y-90551000D01*
X150431500Y-101409500D02*
X150431500Y-91821000D01*
X151827500Y-102805500D02*
X150431500Y-101409500D01*
X154227500Y-108394500D02*
X154227500Y-103745000D01*
X151257000Y-100774500D02*
X151257000Y-97599500D01*
X154227500Y-103745000D02*
X151257000Y-100774500D01*
D17*
G36*
X162135439Y-92651315D02*
X162170452Y-92687586D01*
X162239286Y-92709959D01*
X167132387Y-92833835D01*
X167195101Y-112902270D01*
X134112395Y-112713226D01*
X134175302Y-92583000D01*
X138493500Y-92583000D01*
X138542910Y-92572994D01*
X138597590Y-92528762D01*
X139181112Y-91694000D01*
X143448500Y-91694000D01*
X143448500Y-99250500D01*
X143506352Y-99541339D01*
X143671099Y-99787901D01*
X147673219Y-103790021D01*
X147362557Y-103918383D01*
X147099308Y-104181173D01*
X146956662Y-104524701D01*
X146956352Y-104880507D01*
X146744799Y-104792662D01*
X146372833Y-104792338D01*
X146029057Y-104934383D01*
X145765808Y-105197173D01*
X145623162Y-105540701D01*
X145623087Y-105627346D01*
X145538352Y-105754161D01*
X145480500Y-106045000D01*
X145480500Y-106247060D01*
X145177500Y-106247060D01*
X144942183Y-106291338D01*
X144726059Y-106430410D01*
X144581069Y-106642610D01*
X144530060Y-106894500D01*
X144530060Y-109894500D01*
X144574338Y-110129817D01*
X144713410Y-110345941D01*
X144925610Y-110490931D01*
X145177500Y-110541940D01*
X145467500Y-110541940D01*
X145467500Y-110794500D01*
X145525352Y-111085339D01*
X145690099Y-111331901D01*
X145749878Y-111391680D01*
X145749838Y-111437167D01*
X145891883Y-111780943D01*
X146154673Y-112044192D01*
X146498201Y-112186838D01*
X146870167Y-112187162D01*
X147213943Y-112045117D01*
X147477192Y-111782327D01*
X147619838Y-111438799D01*
X147620069Y-111173836D01*
X147655058Y-111121472D01*
X147654838Y-111373667D01*
X147796883Y-111717443D01*
X148059673Y-111980692D01*
X148403201Y-112123338D01*
X148775167Y-112123662D01*
X149118943Y-111981617D01*
X149382192Y-111718827D01*
X149524838Y-111375299D01*
X149525162Y-111003333D01*
X149387500Y-110670165D01*
X149387500Y-110541940D01*
X149677500Y-110541940D01*
X149833007Y-110512679D01*
X149977500Y-110541940D01*
X150477500Y-110541940D01*
X150633007Y-110512679D01*
X150777500Y-110541940D01*
X151277500Y-110541940D01*
X151433007Y-110512679D01*
X151577500Y-110541940D01*
X152077500Y-110541940D01*
X152217587Y-110515581D01*
X152251191Y-110529500D01*
X152343750Y-110529500D01*
X152488884Y-110384366D01*
X152528941Y-110358590D01*
X152624490Y-110218750D01*
X152639173Y-110254199D01*
X152752500Y-110367525D01*
X152752500Y-110370750D01*
X152911250Y-110529500D01*
X153003809Y-110529500D01*
X153027500Y-110519687D01*
X153051191Y-110529500D01*
X153143750Y-110529500D01*
X153302500Y-110370750D01*
X153302500Y-110367525D01*
X153415827Y-110254199D01*
X153430923Y-110217753D01*
X153513410Y-110345941D01*
X153558499Y-110376749D01*
X153711250Y-110529500D01*
X153803809Y-110529500D01*
X153840671Y-110514231D01*
X153977500Y-110541940D01*
X154267500Y-110541940D01*
X154267500Y-110548773D01*
X154132162Y-110874701D01*
X154131838Y-111246667D01*
X154273883Y-111590443D01*
X154536673Y-111853692D01*
X154880201Y-111996338D01*
X155252167Y-111996662D01*
X155595943Y-111854617D01*
X155859192Y-111591827D01*
X156001838Y-111248299D01*
X156002162Y-110876333D01*
X155863994Y-110541940D01*
X156077500Y-110541940D01*
X156312817Y-110497662D01*
X156528941Y-110358590D01*
X156673931Y-110146390D01*
X156724940Y-109894500D01*
X156724940Y-106894500D01*
X156680662Y-106659183D01*
X156541590Y-106443059D01*
X156329390Y-106298069D01*
X156077500Y-106247060D01*
X155826531Y-106247060D01*
X155938338Y-105977799D01*
X155938662Y-105605833D01*
X155796617Y-105262057D01*
X155533827Y-104998808D01*
X155190299Y-104856162D01*
X154987500Y-104855985D01*
X154987500Y-103745000D01*
X154929648Y-103454161D01*
X154929648Y-103454160D01*
X154764901Y-103207599D01*
X152017000Y-100459698D01*
X152017000Y-98161963D01*
X152049192Y-98129827D01*
X152191838Y-97786299D01*
X152192162Y-97414333D01*
X152050117Y-97070557D01*
X151787327Y-96807308D01*
X151443799Y-96664662D01*
X151191500Y-96664442D01*
X151191500Y-94483426D01*
X151342474Y-94545958D01*
X151574500Y-94424817D01*
X151574500Y-93218000D01*
X151554500Y-93218000D01*
X151554500Y-92964000D01*
X151574500Y-92964000D01*
X151574500Y-92944000D01*
X151828500Y-92944000D01*
X151828500Y-92964000D01*
X151848500Y-92964000D01*
X151848500Y-93218000D01*
X151828500Y-93218000D01*
X151828500Y-94424817D01*
X152060526Y-94545958D01*
X152476447Y-94373688D01*
X152908321Y-93979490D01*
X152965836Y-93856772D01*
X153181830Y-94180029D01*
X153668011Y-94504885D01*
X154241500Y-94618959D01*
X154814989Y-94504885D01*
X155301170Y-94180029D01*
X155626026Y-93693848D01*
X155740100Y-93120359D01*
X155740100Y-93061641D01*
X155626026Y-92488152D01*
X155301170Y-92001971D01*
X155030328Y-91821000D01*
X155301170Y-91640029D01*
X155626026Y-91153848D01*
X155740100Y-90580359D01*
X155740100Y-90521641D01*
X155626026Y-89948152D01*
X155301170Y-89461971D01*
X154814989Y-89137115D01*
X154241500Y-89023041D01*
X153668011Y-89137115D01*
X153181830Y-89461971D01*
X152971500Y-89776752D01*
X152761170Y-89461971D01*
X152274989Y-89137115D01*
X151701500Y-89023041D01*
X151128011Y-89137115D01*
X150641830Y-89461971D01*
X150431500Y-89776752D01*
X150221170Y-89461971D01*
X149734989Y-89137115D01*
X149161500Y-89023041D01*
X148588011Y-89137115D01*
X148101830Y-89461971D01*
X148092695Y-89475642D01*
X148088262Y-89452083D01*
X147949190Y-89235959D01*
X147736990Y-89090969D01*
X147485100Y-89039960D01*
X145757900Y-89039960D01*
X145522583Y-89084238D01*
X145306459Y-89223310D01*
X145161469Y-89435510D01*
X145110460Y-89687400D01*
X145110460Y-89838946D01*
X145060661Y-89848852D01*
X144814099Y-90013599D01*
X143671099Y-91156599D01*
X143506352Y-91403161D01*
X143448500Y-91694000D01*
X139181112Y-91694000D01*
X143131676Y-86042500D01*
X157918386Y-86042500D01*
X162135439Y-92651315D01*
X162135439Y-92651315D01*
G37*
X162135439Y-92651315D02*
X162170452Y-92687586D01*
X162239286Y-92709959D01*
X167132387Y-92833835D01*
X167195101Y-112902270D01*
X134112395Y-112713226D01*
X134175302Y-92583000D01*
X138493500Y-92583000D01*
X138542910Y-92572994D01*
X138597590Y-92528762D01*
X139181112Y-91694000D01*
X143448500Y-91694000D01*
X143448500Y-99250500D01*
X143506352Y-99541339D01*
X143671099Y-99787901D01*
X147673219Y-103790021D01*
X147362557Y-103918383D01*
X147099308Y-104181173D01*
X146956662Y-104524701D01*
X146956352Y-104880507D01*
X146744799Y-104792662D01*
X146372833Y-104792338D01*
X146029057Y-104934383D01*
X145765808Y-105197173D01*
X145623162Y-105540701D01*
X145623087Y-105627346D01*
X145538352Y-105754161D01*
X145480500Y-106045000D01*
X145480500Y-106247060D01*
X145177500Y-106247060D01*
X144942183Y-106291338D01*
X144726059Y-106430410D01*
X144581069Y-106642610D01*
X144530060Y-106894500D01*
X144530060Y-109894500D01*
X144574338Y-110129817D01*
X144713410Y-110345941D01*
X144925610Y-110490931D01*
X145177500Y-110541940D01*
X145467500Y-110541940D01*
X145467500Y-110794500D01*
X145525352Y-111085339D01*
X145690099Y-111331901D01*
X145749878Y-111391680D01*
X145749838Y-111437167D01*
X145891883Y-111780943D01*
X146154673Y-112044192D01*
X146498201Y-112186838D01*
X146870167Y-112187162D01*
X147213943Y-112045117D01*
X147477192Y-111782327D01*
X147619838Y-111438799D01*
X147620069Y-111173836D01*
X147655058Y-111121472D01*
X147654838Y-111373667D01*
X147796883Y-111717443D01*
X148059673Y-111980692D01*
X148403201Y-112123338D01*
X148775167Y-112123662D01*
X149118943Y-111981617D01*
X149382192Y-111718827D01*
X149524838Y-111375299D01*
X149525162Y-111003333D01*
X149387500Y-110670165D01*
X149387500Y-110541940D01*
X149677500Y-110541940D01*
X149833007Y-110512679D01*
X149977500Y-110541940D01*
X150477500Y-110541940D01*
X150633007Y-110512679D01*
X150777500Y-110541940D01*
X151277500Y-110541940D01*
X151433007Y-110512679D01*
X151577500Y-110541940D01*
X152077500Y-110541940D01*
X152217587Y-110515581D01*
X152251191Y-110529500D01*
X152343750Y-110529500D01*
X152488884Y-110384366D01*
X152528941Y-110358590D01*
X152624490Y-110218750D01*
X152639173Y-110254199D01*
X152752500Y-110367525D01*
X152752500Y-110370750D01*
X152911250Y-110529500D01*
X153003809Y-110529500D01*
X153027500Y-110519687D01*
X153051191Y-110529500D01*
X153143750Y-110529500D01*
X153302500Y-110370750D01*
X153302500Y-110367525D01*
X153415827Y-110254199D01*
X153430923Y-110217753D01*
X153513410Y-110345941D01*
X153558499Y-110376749D01*
X153711250Y-110529500D01*
X153803809Y-110529500D01*
X153840671Y-110514231D01*
X153977500Y-110541940D01*
X154267500Y-110541940D01*
X154267500Y-110548773D01*
X154132162Y-110874701D01*
X154131838Y-111246667D01*
X154273883Y-111590443D01*
X154536673Y-111853692D01*
X154880201Y-111996338D01*
X155252167Y-111996662D01*
X155595943Y-111854617D01*
X155859192Y-111591827D01*
X156001838Y-111248299D01*
X156002162Y-110876333D01*
X155863994Y-110541940D01*
X156077500Y-110541940D01*
X156312817Y-110497662D01*
X156528941Y-110358590D01*
X156673931Y-110146390D01*
X156724940Y-109894500D01*
X156724940Y-106894500D01*
X156680662Y-106659183D01*
X156541590Y-106443059D01*
X156329390Y-106298069D01*
X156077500Y-106247060D01*
X155826531Y-106247060D01*
X155938338Y-105977799D01*
X155938662Y-105605833D01*
X155796617Y-105262057D01*
X155533827Y-104998808D01*
X155190299Y-104856162D01*
X154987500Y-104855985D01*
X154987500Y-103745000D01*
X154929648Y-103454161D01*
X154929648Y-103454160D01*
X154764901Y-103207599D01*
X152017000Y-100459698D01*
X152017000Y-98161963D01*
X152049192Y-98129827D01*
X152191838Y-97786299D01*
X152192162Y-97414333D01*
X152050117Y-97070557D01*
X151787327Y-96807308D01*
X151443799Y-96664662D01*
X151191500Y-96664442D01*
X151191500Y-94483426D01*
X151342474Y-94545958D01*
X151574500Y-94424817D01*
X151574500Y-93218000D01*
X151554500Y-93218000D01*
X151554500Y-92964000D01*
X151574500Y-92964000D01*
X151574500Y-92944000D01*
X151828500Y-92944000D01*
X151828500Y-92964000D01*
X151848500Y-92964000D01*
X151848500Y-93218000D01*
X151828500Y-93218000D01*
X151828500Y-94424817D01*
X152060526Y-94545958D01*
X152476447Y-94373688D01*
X152908321Y-93979490D01*
X152965836Y-93856772D01*
X153181830Y-94180029D01*
X153668011Y-94504885D01*
X154241500Y-94618959D01*
X154814989Y-94504885D01*
X155301170Y-94180029D01*
X155626026Y-93693848D01*
X155740100Y-93120359D01*
X155740100Y-93061641D01*
X155626026Y-92488152D01*
X155301170Y-92001971D01*
X155030328Y-91821000D01*
X155301170Y-91640029D01*
X155626026Y-91153848D01*
X155740100Y-90580359D01*
X155740100Y-90521641D01*
X155626026Y-89948152D01*
X155301170Y-89461971D01*
X154814989Y-89137115D01*
X154241500Y-89023041D01*
X153668011Y-89137115D01*
X153181830Y-89461971D01*
X152971500Y-89776752D01*
X152761170Y-89461971D01*
X152274989Y-89137115D01*
X151701500Y-89023041D01*
X151128011Y-89137115D01*
X150641830Y-89461971D01*
X150431500Y-89776752D01*
X150221170Y-89461971D01*
X149734989Y-89137115D01*
X149161500Y-89023041D01*
X148588011Y-89137115D01*
X148101830Y-89461971D01*
X148092695Y-89475642D01*
X148088262Y-89452083D01*
X147949190Y-89235959D01*
X147736990Y-89090969D01*
X147485100Y-89039960D01*
X145757900Y-89039960D01*
X145522583Y-89084238D01*
X145306459Y-89223310D01*
X145161469Y-89435510D01*
X145110460Y-89687400D01*
X145110460Y-89838946D01*
X145060661Y-89848852D01*
X144814099Y-90013599D01*
X143671099Y-91156599D01*
X143506352Y-91403161D01*
X143448500Y-91694000D01*
X139181112Y-91694000D01*
X143131676Y-86042500D01*
X157918386Y-86042500D01*
X162135439Y-92651315D01*
G36*
X153467500Y-104059802D02*
X153467500Y-106516114D01*
X153430510Y-106570250D01*
X153415827Y-106534801D01*
X153302500Y-106421475D01*
X153302500Y-106418250D01*
X153143750Y-106259500D01*
X153051191Y-106259500D01*
X153027500Y-106269313D01*
X153003809Y-106259500D01*
X152911250Y-106259500D01*
X152752500Y-106418250D01*
X152752500Y-106421475D01*
X152639173Y-106534801D01*
X152624077Y-106571247D01*
X152587500Y-106514405D01*
X152587500Y-103179802D01*
X153467500Y-104059802D01*
X153467500Y-104059802D01*
G37*
X153467500Y-104059802D02*
X153467500Y-106516114D01*
X153430510Y-106570250D01*
X153415827Y-106534801D01*
X153302500Y-106421475D01*
X153302500Y-106418250D01*
X153143750Y-106259500D01*
X153051191Y-106259500D01*
X153027500Y-106269313D01*
X153003809Y-106259500D01*
X152911250Y-106259500D01*
X152752500Y-106418250D01*
X152752500Y-106421475D01*
X152639173Y-106534801D01*
X152624077Y-106571247D01*
X152587500Y-106514405D01*
X152587500Y-103179802D01*
X153467500Y-104059802D01*
M02*
