M48
METRIC,TZ
T1C0.400
T2C1.016
T3C3.200
%
G90
G05
T1
X146558Y-105727
X146685Y-111252
X147891Y-104712
X148590Y-111189
X148654Y-105727
X151257Y-97599
X153035Y-104648
X155004Y-105791
X155067Y-111062
X157099Y-101854
T2
X146622Y-90551
X146622Y-93091
X149161Y-90551
X149161Y-93091
X151701Y-90551
X151701Y-93091
X154242Y-90551
X154242Y-93091
T3
X136525Y-88646
X136525Y-146685
X164529Y-88646
X164529Y-146622
T0
M30
