G04 #@! TF.FileFunction,Legend,Top*
%FSLAX46Y46*%
G04 Gerber Fmt 4.6, Leading zero omitted, Abs format (unit mm)*
G04 Created by KiCad (PCBNEW 4.0.2-stable) date 10.07.2016 14:54:09*
%MOMM*%
G01*
G04 APERTURE LIST*
%ADD10C,0.100000*%
%ADD11C,0.150000*%
G04 APERTURE END LIST*
D10*
D11*
X146077500Y-106594500D02*
X156377500Y-106594500D01*
X156377500Y-106594500D02*
X156377500Y-110194500D01*
X156377500Y-110194500D02*
X146077500Y-110194500D01*
X145577500Y-110194500D02*
X144877500Y-110194500D01*
X144877500Y-110194500D02*
X144877500Y-106594500D01*
X144877500Y-106594500D02*
X145577500Y-106594500D01*
X138811000Y-88646000D02*
G75*
G03X138811000Y-88646000I-2286000J0D01*
G01*
X166814500Y-88646000D02*
G75*
G03X166814500Y-88646000I-2286000J0D01*
G01*
X138811000Y-146685000D02*
G75*
G03X138811000Y-146685000I-2286000J0D01*
G01*
X166814500Y-146621500D02*
G75*
G03X166814500Y-146621500I-2286000J0D01*
G01*
X148906071Y-110646881D02*
X149477500Y-110646881D01*
X149191785Y-111646881D02*
X149191785Y-110646881D01*
X150144167Y-111123071D02*
X149810833Y-111123071D01*
X149810833Y-111646881D02*
X149810833Y-110646881D01*
X150287024Y-110646881D01*
X150525119Y-110646881D02*
X151096548Y-110646881D01*
X150810833Y-111646881D02*
X150810833Y-110646881D01*
X151953691Y-111646881D02*
X151382262Y-111646881D01*
X151667976Y-111646881D02*
X151667976Y-110646881D01*
X151572738Y-110789738D01*
X151477500Y-110884976D01*
X151382262Y-110932595D01*
X135191667Y-86050381D02*
X134858333Y-85574190D01*
X134620238Y-86050381D02*
X134620238Y-85050381D01*
X135001191Y-85050381D01*
X135096429Y-85098000D01*
X135144048Y-85145619D01*
X135191667Y-85240857D01*
X135191667Y-85383714D01*
X135144048Y-85478952D01*
X135096429Y-85526571D01*
X135001191Y-85574190D01*
X134620238Y-85574190D01*
X135620238Y-85526571D02*
X135953572Y-85526571D01*
X136096429Y-86050381D02*
X135620238Y-86050381D01*
X135620238Y-85050381D01*
X136096429Y-85050381D01*
X136858334Y-85526571D02*
X136525000Y-85526571D01*
X136525000Y-86050381D02*
X136525000Y-85050381D01*
X137001191Y-85050381D01*
X137525000Y-85050381D02*
X137525000Y-85288476D01*
X137286905Y-85193238D02*
X137525000Y-85288476D01*
X137763096Y-85193238D01*
X137382143Y-85478952D02*
X137525000Y-85288476D01*
X137667858Y-85478952D01*
X138286905Y-85050381D02*
X138286905Y-85288476D01*
X138048810Y-85193238D02*
X138286905Y-85288476D01*
X138525001Y-85193238D01*
X138144048Y-85478952D02*
X138286905Y-85288476D01*
X138429763Y-85478952D01*
X163195167Y-86050381D02*
X162861833Y-85574190D01*
X162623738Y-86050381D02*
X162623738Y-85050381D01*
X163004691Y-85050381D01*
X163099929Y-85098000D01*
X163147548Y-85145619D01*
X163195167Y-85240857D01*
X163195167Y-85383714D01*
X163147548Y-85478952D01*
X163099929Y-85526571D01*
X163004691Y-85574190D01*
X162623738Y-85574190D01*
X163623738Y-85526571D02*
X163957072Y-85526571D01*
X164099929Y-86050381D02*
X163623738Y-86050381D01*
X163623738Y-85050381D01*
X164099929Y-85050381D01*
X164861834Y-85526571D02*
X164528500Y-85526571D01*
X164528500Y-86050381D02*
X164528500Y-85050381D01*
X165004691Y-85050381D01*
X165528500Y-85050381D02*
X165528500Y-85288476D01*
X165290405Y-85193238D02*
X165528500Y-85288476D01*
X165766596Y-85193238D01*
X165385643Y-85478952D02*
X165528500Y-85288476D01*
X165671358Y-85478952D01*
X166290405Y-85050381D02*
X166290405Y-85288476D01*
X166052310Y-85193238D02*
X166290405Y-85288476D01*
X166528501Y-85193238D01*
X166147548Y-85478952D02*
X166290405Y-85288476D01*
X166433263Y-85478952D01*
X135191667Y-144089381D02*
X134858333Y-143613190D01*
X134620238Y-144089381D02*
X134620238Y-143089381D01*
X135001191Y-143089381D01*
X135096429Y-143137000D01*
X135144048Y-143184619D01*
X135191667Y-143279857D01*
X135191667Y-143422714D01*
X135144048Y-143517952D01*
X135096429Y-143565571D01*
X135001191Y-143613190D01*
X134620238Y-143613190D01*
X135620238Y-143565571D02*
X135953572Y-143565571D01*
X136096429Y-144089381D02*
X135620238Y-144089381D01*
X135620238Y-143089381D01*
X136096429Y-143089381D01*
X136858334Y-143565571D02*
X136525000Y-143565571D01*
X136525000Y-144089381D02*
X136525000Y-143089381D01*
X137001191Y-143089381D01*
X137525000Y-143089381D02*
X137525000Y-143327476D01*
X137286905Y-143232238D02*
X137525000Y-143327476D01*
X137763096Y-143232238D01*
X137382143Y-143517952D02*
X137525000Y-143327476D01*
X137667858Y-143517952D01*
X138286905Y-143089381D02*
X138286905Y-143327476D01*
X138048810Y-143232238D02*
X138286905Y-143327476D01*
X138525001Y-143232238D01*
X138144048Y-143517952D02*
X138286905Y-143327476D01*
X138429763Y-143517952D01*
X163195167Y-144025881D02*
X162861833Y-143549690D01*
X162623738Y-144025881D02*
X162623738Y-143025881D01*
X163004691Y-143025881D01*
X163099929Y-143073500D01*
X163147548Y-143121119D01*
X163195167Y-143216357D01*
X163195167Y-143359214D01*
X163147548Y-143454452D01*
X163099929Y-143502071D01*
X163004691Y-143549690D01*
X162623738Y-143549690D01*
X163623738Y-143502071D02*
X163957072Y-143502071D01*
X164099929Y-144025881D02*
X163623738Y-144025881D01*
X163623738Y-143025881D01*
X164099929Y-143025881D01*
X164861834Y-143502071D02*
X164528500Y-143502071D01*
X164528500Y-144025881D02*
X164528500Y-143025881D01*
X165004691Y-143025881D01*
X165528500Y-143025881D02*
X165528500Y-143263976D01*
X165290405Y-143168738D02*
X165528500Y-143263976D01*
X165766596Y-143168738D01*
X165385643Y-143454452D02*
X165528500Y-143263976D01*
X165671358Y-143454452D01*
X166290405Y-143025881D02*
X166290405Y-143263976D01*
X166052310Y-143168738D02*
X166290405Y-143263976D01*
X166528501Y-143168738D01*
X166147548Y-143454452D02*
X166290405Y-143263976D01*
X166433263Y-143454452D01*
M02*
