G04 #@! TF.FileFunction,Copper,L2,Bot,Signal*
%FSLAX46Y46*%
G04 Gerber Fmt 4.6, Leading zero omitted, Abs format (unit mm)*
G04 Created by KiCad (PCBNEW 4.0.2-stable) date 10.07.2016 14:54:09*
%MOMM*%
G01*
G04 APERTURE LIST*
%ADD10C,0.100000*%
%ADD11R,1.600000X2.000000*%
%ADD12R,1.727200X1.727200*%
%ADD13O,1.727200X1.727200*%
%ADD14C,5.000000*%
%ADD15C,0.600000*%
%ADD16C,0.250000*%
%ADD17C,0.254000*%
G04 APERTURE END LIST*
D10*
D11*
X142303500Y-101822000D03*
X142303500Y-97822000D03*
X159385000Y-101949000D03*
X159385000Y-97949000D03*
D12*
X146621500Y-90551000D03*
D13*
X146621500Y-93091000D03*
X149161500Y-90551000D03*
X149161500Y-93091000D03*
X151701500Y-90551000D03*
X151701500Y-93091000D03*
X154241500Y-90551000D03*
X154241500Y-93091000D03*
D14*
X136525000Y-88646000D03*
X164528500Y-88646000D03*
X136525000Y-146685000D03*
X164528500Y-146621500D03*
D15*
X147891500Y-104711500D03*
X148653500Y-105727500D03*
X155003500Y-105791000D03*
X146558000Y-105727500D03*
X155067000Y-111061500D03*
X148590000Y-111188500D03*
X146685000Y-111252000D03*
X153035000Y-104648000D03*
X157099000Y-101854000D03*
X151257000Y-97599500D03*
D16*
X147891500Y-104711500D02*
X147891500Y-104648000D01*
X155511500Y-90551000D02*
X154241500Y-90551000D01*
X157099000Y-92138500D02*
X155511500Y-90551000D01*
X157099000Y-95440500D02*
X157099000Y-92138500D01*
X147891500Y-104648000D02*
X157099000Y-95440500D01*
X145002000Y-101822000D02*
X142303500Y-101822000D01*
X147891500Y-104711500D02*
X145002000Y-101822000D01*
X146558000Y-105727500D02*
X148653500Y-105727500D01*
X159385000Y-97949000D02*
X160052000Y-97949000D01*
X160052000Y-97949000D02*
X161734500Y-99631500D01*
X161734500Y-99631500D02*
X161734500Y-103060500D01*
X161734500Y-103060500D02*
X159004000Y-105791000D01*
X159004000Y-105791000D02*
X155003500Y-105791000D01*
X141351000Y-105727500D02*
X146558000Y-105727500D01*
X148590000Y-111188500D02*
X154940000Y-111188500D01*
X154940000Y-111188500D02*
X155067000Y-111061500D01*
X146685000Y-111252000D02*
X148526500Y-111252000D01*
X148526500Y-111252000D02*
X148590000Y-111188500D01*
X142303500Y-97822000D02*
X140557000Y-97822000D01*
X143700500Y-111252000D02*
X146685000Y-111252000D01*
X141351000Y-108902500D02*
X143700500Y-111252000D01*
X141351000Y-105727500D02*
X141351000Y-108902500D01*
X139065000Y-103441500D02*
X141351000Y-105727500D01*
X139065000Y-99314000D02*
X139065000Y-103441500D01*
X140557000Y-97822000D02*
X139065000Y-99314000D01*
X157099000Y-101854000D02*
X155829000Y-101854000D01*
X155829000Y-101854000D02*
X153035000Y-104648000D01*
X157194000Y-101949000D02*
X159385000Y-101949000D01*
X157099000Y-101854000D02*
X157194000Y-101949000D01*
X146621500Y-94615000D02*
X146621500Y-93091000D01*
X148018500Y-96012000D02*
X146621500Y-94615000D01*
X149669500Y-96012000D02*
X148018500Y-96012000D01*
X151257000Y-97599500D02*
X149669500Y-96012000D01*
D17*
G36*
X162198361Y-92650400D02*
X162233064Y-92686968D01*
X162279259Y-92707153D01*
X162306000Y-92710000D01*
X167132394Y-92710000D01*
X167195102Y-112902026D01*
X134112394Y-112649967D01*
X134149356Y-100822000D01*
X140856060Y-100822000D01*
X140856060Y-102822000D01*
X140900338Y-103057317D01*
X141039410Y-103273441D01*
X141251610Y-103418431D01*
X141503500Y-103469440D01*
X143103500Y-103469440D01*
X143338817Y-103425162D01*
X143554941Y-103286090D01*
X143699931Y-103073890D01*
X143750940Y-102822000D01*
X143750940Y-102582000D01*
X144687198Y-102582000D01*
X146956378Y-104851180D01*
X146956338Y-104896667D01*
X147098383Y-105240443D01*
X147361173Y-105503692D01*
X147704701Y-105646338D01*
X148076667Y-105646662D01*
X148420443Y-105504617D01*
X148683692Y-105241827D01*
X148826338Y-104898299D01*
X148826394Y-104833167D01*
X152099838Y-104833167D01*
X152241883Y-105176943D01*
X152504673Y-105440192D01*
X152848201Y-105582838D01*
X153220167Y-105583162D01*
X153563943Y-105441117D01*
X153827192Y-105178327D01*
X153969838Y-104834799D01*
X153969879Y-104787923D01*
X156143802Y-102614000D01*
X156536537Y-102614000D01*
X156568673Y-102646192D01*
X156912201Y-102788838D01*
X157284167Y-102789162D01*
X157478174Y-102709000D01*
X157937560Y-102709000D01*
X157937560Y-102949000D01*
X157981838Y-103184317D01*
X158120910Y-103400441D01*
X158333110Y-103545431D01*
X158585000Y-103596440D01*
X160185000Y-103596440D01*
X160420317Y-103552162D01*
X160636441Y-103413090D01*
X160781431Y-103200890D01*
X160832440Y-102949000D01*
X160832440Y-100949000D01*
X160788162Y-100713683D01*
X160649090Y-100497559D01*
X160436890Y-100352569D01*
X160185000Y-100301560D01*
X158585000Y-100301560D01*
X158349683Y-100345838D01*
X158133559Y-100484910D01*
X157988569Y-100697110D01*
X157937560Y-100949000D01*
X157937560Y-101189000D01*
X157756297Y-101189000D01*
X157629327Y-101061808D01*
X157285799Y-100919162D01*
X156913833Y-100918838D01*
X156570057Y-101060883D01*
X156536882Y-101094000D01*
X155829000Y-101094000D01*
X155538161Y-101151852D01*
X155291599Y-101316599D01*
X152895320Y-103712878D01*
X152849833Y-103712838D01*
X152506057Y-103854883D01*
X152242808Y-104117673D01*
X152100162Y-104461201D01*
X152099838Y-104833167D01*
X148826394Y-104833167D01*
X148826434Y-104787868D01*
X155379552Y-98234750D01*
X157950000Y-98234750D01*
X157950000Y-99075309D01*
X158046673Y-99308698D01*
X158225301Y-99487327D01*
X158458690Y-99584000D01*
X159099250Y-99584000D01*
X159258000Y-99425250D01*
X159258000Y-98076000D01*
X159512000Y-98076000D01*
X159512000Y-99425250D01*
X159670750Y-99584000D01*
X160311310Y-99584000D01*
X160544699Y-99487327D01*
X160723327Y-99308698D01*
X160820000Y-99075309D01*
X160820000Y-98234750D01*
X160661250Y-98076000D01*
X159512000Y-98076000D01*
X159258000Y-98076000D01*
X158108750Y-98076000D01*
X157950000Y-98234750D01*
X155379552Y-98234750D01*
X156791611Y-96822691D01*
X157950000Y-96822691D01*
X157950000Y-97663250D01*
X158108750Y-97822000D01*
X159258000Y-97822000D01*
X159258000Y-96472750D01*
X159512000Y-96472750D01*
X159512000Y-97822000D01*
X160661250Y-97822000D01*
X160820000Y-97663250D01*
X160820000Y-96822691D01*
X160723327Y-96589302D01*
X160544699Y-96410673D01*
X160311310Y-96314000D01*
X159670750Y-96314000D01*
X159512000Y-96472750D01*
X159258000Y-96472750D01*
X159099250Y-96314000D01*
X158458690Y-96314000D01*
X158225301Y-96410673D01*
X158046673Y-96589302D01*
X157950000Y-96822691D01*
X156791611Y-96822691D01*
X157636401Y-95977901D01*
X157801148Y-95731340D01*
X157859000Y-95440500D01*
X157859000Y-92138500D01*
X157801148Y-91847661D01*
X157636401Y-91601099D01*
X156048901Y-90013599D01*
X155802339Y-89848852D01*
X155522480Y-89793184D01*
X155301170Y-89461971D01*
X154814989Y-89137115D01*
X154241500Y-89023041D01*
X153668011Y-89137115D01*
X153181830Y-89461971D01*
X152971500Y-89776752D01*
X152761170Y-89461971D01*
X152274989Y-89137115D01*
X151701500Y-89023041D01*
X151128011Y-89137115D01*
X150641830Y-89461971D01*
X150431500Y-89776752D01*
X150221170Y-89461971D01*
X149734989Y-89137115D01*
X149161500Y-89023041D01*
X148588011Y-89137115D01*
X148101830Y-89461971D01*
X148092695Y-89475642D01*
X148088262Y-89452083D01*
X147949190Y-89235959D01*
X147736990Y-89090969D01*
X147485100Y-89039960D01*
X145757900Y-89039960D01*
X145522583Y-89084238D01*
X145306459Y-89223310D01*
X145161469Y-89435510D01*
X145110460Y-89687400D01*
X145110460Y-91414600D01*
X145154738Y-91649917D01*
X145293810Y-91866041D01*
X145506010Y-92011031D01*
X145549845Y-92019908D01*
X145236974Y-92488152D01*
X145122900Y-93061641D01*
X145122900Y-93120359D01*
X145236974Y-93693848D01*
X145561830Y-94180029D01*
X145861500Y-94380262D01*
X145861500Y-94615000D01*
X145919352Y-94905839D01*
X146084099Y-95152401D01*
X147481099Y-96549401D01*
X147727660Y-96714148D01*
X148018500Y-96772000D01*
X149354698Y-96772000D01*
X150321878Y-97739180D01*
X150321838Y-97784667D01*
X150463883Y-98128443D01*
X150726673Y-98391692D01*
X151070201Y-98534338D01*
X151442167Y-98534662D01*
X151785943Y-98392617D01*
X152049192Y-98129827D01*
X152191838Y-97786299D01*
X152192162Y-97414333D01*
X152050117Y-97070557D01*
X151787327Y-96807308D01*
X151443799Y-96664662D01*
X151396923Y-96664621D01*
X150206901Y-95474599D01*
X149960339Y-95309852D01*
X149669500Y-95252000D01*
X148333302Y-95252000D01*
X147429495Y-94348193D01*
X147681170Y-94180029D01*
X147891500Y-93865248D01*
X148101830Y-94180029D01*
X148588011Y-94504885D01*
X149161500Y-94618959D01*
X149734989Y-94504885D01*
X150221170Y-94180029D01*
X150431500Y-93865248D01*
X150641830Y-94180029D01*
X151128011Y-94504885D01*
X151701500Y-94618959D01*
X152274989Y-94504885D01*
X152761170Y-94180029D01*
X152977164Y-93856772D01*
X153034679Y-93979490D01*
X153466553Y-94373688D01*
X153882474Y-94545958D01*
X154114500Y-94424817D01*
X154114500Y-93218000D01*
X154368500Y-93218000D01*
X154368500Y-94424817D01*
X154600526Y-94545958D01*
X155016447Y-94373688D01*
X155448321Y-93979490D01*
X155696468Y-93450027D01*
X155575969Y-93218000D01*
X154368500Y-93218000D01*
X154114500Y-93218000D01*
X154094500Y-93218000D01*
X154094500Y-92964000D01*
X154114500Y-92964000D01*
X154114500Y-92944000D01*
X154368500Y-92944000D01*
X154368500Y-92964000D01*
X155575969Y-92964000D01*
X155696468Y-92731973D01*
X155448321Y-92202510D01*
X155030339Y-91820992D01*
X155301170Y-91640029D01*
X155391115Y-91505417D01*
X156339000Y-92453302D01*
X156339000Y-95125698D01*
X147859750Y-103604948D01*
X145539401Y-101284599D01*
X145292839Y-101119852D01*
X145002000Y-101062000D01*
X143750940Y-101062000D01*
X143750940Y-100822000D01*
X143706662Y-100586683D01*
X143567590Y-100370559D01*
X143355390Y-100225569D01*
X143103500Y-100174560D01*
X141503500Y-100174560D01*
X141268183Y-100218838D01*
X141052059Y-100357910D01*
X140907069Y-100570110D01*
X140856060Y-100822000D01*
X134149356Y-100822000D01*
X134157838Y-98107750D01*
X140868500Y-98107750D01*
X140868500Y-98948309D01*
X140965173Y-99181698D01*
X141143801Y-99360327D01*
X141377190Y-99457000D01*
X142017750Y-99457000D01*
X142176500Y-99298250D01*
X142176500Y-97949000D01*
X142430500Y-97949000D01*
X142430500Y-99298250D01*
X142589250Y-99457000D01*
X143229810Y-99457000D01*
X143463199Y-99360327D01*
X143641827Y-99181698D01*
X143738500Y-98948309D01*
X143738500Y-98107750D01*
X143579750Y-97949000D01*
X142430500Y-97949000D01*
X142176500Y-97949000D01*
X141027250Y-97949000D01*
X140868500Y-98107750D01*
X134157838Y-98107750D01*
X134162250Y-96695691D01*
X140868500Y-96695691D01*
X140868500Y-97536250D01*
X141027250Y-97695000D01*
X142176500Y-97695000D01*
X142176500Y-96345750D01*
X142430500Y-96345750D01*
X142430500Y-97695000D01*
X143579750Y-97695000D01*
X143738500Y-97536250D01*
X143738500Y-96695691D01*
X143641827Y-96462302D01*
X143463199Y-96283673D01*
X143229810Y-96187000D01*
X142589250Y-96187000D01*
X142430500Y-96345750D01*
X142176500Y-96345750D01*
X142017750Y-96187000D01*
X141377190Y-96187000D01*
X141143801Y-96283673D01*
X140965173Y-96462302D01*
X140868500Y-96695691D01*
X134162250Y-96695691D01*
X134175302Y-92519500D01*
X138557000Y-92519500D01*
X138606410Y-92509494D01*
X138661564Y-92464578D01*
X143132400Y-85978718D01*
X157981368Y-85915798D01*
X162198361Y-92650400D01*
X162198361Y-92650400D01*
G37*
X162198361Y-92650400D02*
X162233064Y-92686968D01*
X162279259Y-92707153D01*
X162306000Y-92710000D01*
X167132394Y-92710000D01*
X167195102Y-112902026D01*
X134112394Y-112649967D01*
X134149356Y-100822000D01*
X140856060Y-100822000D01*
X140856060Y-102822000D01*
X140900338Y-103057317D01*
X141039410Y-103273441D01*
X141251610Y-103418431D01*
X141503500Y-103469440D01*
X143103500Y-103469440D01*
X143338817Y-103425162D01*
X143554941Y-103286090D01*
X143699931Y-103073890D01*
X143750940Y-102822000D01*
X143750940Y-102582000D01*
X144687198Y-102582000D01*
X146956378Y-104851180D01*
X146956338Y-104896667D01*
X147098383Y-105240443D01*
X147361173Y-105503692D01*
X147704701Y-105646338D01*
X148076667Y-105646662D01*
X148420443Y-105504617D01*
X148683692Y-105241827D01*
X148826338Y-104898299D01*
X148826394Y-104833167D01*
X152099838Y-104833167D01*
X152241883Y-105176943D01*
X152504673Y-105440192D01*
X152848201Y-105582838D01*
X153220167Y-105583162D01*
X153563943Y-105441117D01*
X153827192Y-105178327D01*
X153969838Y-104834799D01*
X153969879Y-104787923D01*
X156143802Y-102614000D01*
X156536537Y-102614000D01*
X156568673Y-102646192D01*
X156912201Y-102788838D01*
X157284167Y-102789162D01*
X157478174Y-102709000D01*
X157937560Y-102709000D01*
X157937560Y-102949000D01*
X157981838Y-103184317D01*
X158120910Y-103400441D01*
X158333110Y-103545431D01*
X158585000Y-103596440D01*
X160185000Y-103596440D01*
X160420317Y-103552162D01*
X160636441Y-103413090D01*
X160781431Y-103200890D01*
X160832440Y-102949000D01*
X160832440Y-100949000D01*
X160788162Y-100713683D01*
X160649090Y-100497559D01*
X160436890Y-100352569D01*
X160185000Y-100301560D01*
X158585000Y-100301560D01*
X158349683Y-100345838D01*
X158133559Y-100484910D01*
X157988569Y-100697110D01*
X157937560Y-100949000D01*
X157937560Y-101189000D01*
X157756297Y-101189000D01*
X157629327Y-101061808D01*
X157285799Y-100919162D01*
X156913833Y-100918838D01*
X156570057Y-101060883D01*
X156536882Y-101094000D01*
X155829000Y-101094000D01*
X155538161Y-101151852D01*
X155291599Y-101316599D01*
X152895320Y-103712878D01*
X152849833Y-103712838D01*
X152506057Y-103854883D01*
X152242808Y-104117673D01*
X152100162Y-104461201D01*
X152099838Y-104833167D01*
X148826394Y-104833167D01*
X148826434Y-104787868D01*
X155379552Y-98234750D01*
X157950000Y-98234750D01*
X157950000Y-99075309D01*
X158046673Y-99308698D01*
X158225301Y-99487327D01*
X158458690Y-99584000D01*
X159099250Y-99584000D01*
X159258000Y-99425250D01*
X159258000Y-98076000D01*
X159512000Y-98076000D01*
X159512000Y-99425250D01*
X159670750Y-99584000D01*
X160311310Y-99584000D01*
X160544699Y-99487327D01*
X160723327Y-99308698D01*
X160820000Y-99075309D01*
X160820000Y-98234750D01*
X160661250Y-98076000D01*
X159512000Y-98076000D01*
X159258000Y-98076000D01*
X158108750Y-98076000D01*
X157950000Y-98234750D01*
X155379552Y-98234750D01*
X156791611Y-96822691D01*
X157950000Y-96822691D01*
X157950000Y-97663250D01*
X158108750Y-97822000D01*
X159258000Y-97822000D01*
X159258000Y-96472750D01*
X159512000Y-96472750D01*
X159512000Y-97822000D01*
X160661250Y-97822000D01*
X160820000Y-97663250D01*
X160820000Y-96822691D01*
X160723327Y-96589302D01*
X160544699Y-96410673D01*
X160311310Y-96314000D01*
X159670750Y-96314000D01*
X159512000Y-96472750D01*
X159258000Y-96472750D01*
X159099250Y-96314000D01*
X158458690Y-96314000D01*
X158225301Y-96410673D01*
X158046673Y-96589302D01*
X157950000Y-96822691D01*
X156791611Y-96822691D01*
X157636401Y-95977901D01*
X157801148Y-95731340D01*
X157859000Y-95440500D01*
X157859000Y-92138500D01*
X157801148Y-91847661D01*
X157636401Y-91601099D01*
X156048901Y-90013599D01*
X155802339Y-89848852D01*
X155522480Y-89793184D01*
X155301170Y-89461971D01*
X154814989Y-89137115D01*
X154241500Y-89023041D01*
X153668011Y-89137115D01*
X153181830Y-89461971D01*
X152971500Y-89776752D01*
X152761170Y-89461971D01*
X152274989Y-89137115D01*
X151701500Y-89023041D01*
X151128011Y-89137115D01*
X150641830Y-89461971D01*
X150431500Y-89776752D01*
X150221170Y-89461971D01*
X149734989Y-89137115D01*
X149161500Y-89023041D01*
X148588011Y-89137115D01*
X148101830Y-89461971D01*
X148092695Y-89475642D01*
X148088262Y-89452083D01*
X147949190Y-89235959D01*
X147736990Y-89090969D01*
X147485100Y-89039960D01*
X145757900Y-89039960D01*
X145522583Y-89084238D01*
X145306459Y-89223310D01*
X145161469Y-89435510D01*
X145110460Y-89687400D01*
X145110460Y-91414600D01*
X145154738Y-91649917D01*
X145293810Y-91866041D01*
X145506010Y-92011031D01*
X145549845Y-92019908D01*
X145236974Y-92488152D01*
X145122900Y-93061641D01*
X145122900Y-93120359D01*
X145236974Y-93693848D01*
X145561830Y-94180029D01*
X145861500Y-94380262D01*
X145861500Y-94615000D01*
X145919352Y-94905839D01*
X146084099Y-95152401D01*
X147481099Y-96549401D01*
X147727660Y-96714148D01*
X148018500Y-96772000D01*
X149354698Y-96772000D01*
X150321878Y-97739180D01*
X150321838Y-97784667D01*
X150463883Y-98128443D01*
X150726673Y-98391692D01*
X151070201Y-98534338D01*
X151442167Y-98534662D01*
X151785943Y-98392617D01*
X152049192Y-98129827D01*
X152191838Y-97786299D01*
X152192162Y-97414333D01*
X152050117Y-97070557D01*
X151787327Y-96807308D01*
X151443799Y-96664662D01*
X151396923Y-96664621D01*
X150206901Y-95474599D01*
X149960339Y-95309852D01*
X149669500Y-95252000D01*
X148333302Y-95252000D01*
X147429495Y-94348193D01*
X147681170Y-94180029D01*
X147891500Y-93865248D01*
X148101830Y-94180029D01*
X148588011Y-94504885D01*
X149161500Y-94618959D01*
X149734989Y-94504885D01*
X150221170Y-94180029D01*
X150431500Y-93865248D01*
X150641830Y-94180029D01*
X151128011Y-94504885D01*
X151701500Y-94618959D01*
X152274989Y-94504885D01*
X152761170Y-94180029D01*
X152977164Y-93856772D01*
X153034679Y-93979490D01*
X153466553Y-94373688D01*
X153882474Y-94545958D01*
X154114500Y-94424817D01*
X154114500Y-93218000D01*
X154368500Y-93218000D01*
X154368500Y-94424817D01*
X154600526Y-94545958D01*
X155016447Y-94373688D01*
X155448321Y-93979490D01*
X155696468Y-93450027D01*
X155575969Y-93218000D01*
X154368500Y-93218000D01*
X154114500Y-93218000D01*
X154094500Y-93218000D01*
X154094500Y-92964000D01*
X154114500Y-92964000D01*
X154114500Y-92944000D01*
X154368500Y-92944000D01*
X154368500Y-92964000D01*
X155575969Y-92964000D01*
X155696468Y-92731973D01*
X155448321Y-92202510D01*
X155030339Y-91820992D01*
X155301170Y-91640029D01*
X155391115Y-91505417D01*
X156339000Y-92453302D01*
X156339000Y-95125698D01*
X147859750Y-103604948D01*
X145539401Y-101284599D01*
X145292839Y-101119852D01*
X145002000Y-101062000D01*
X143750940Y-101062000D01*
X143750940Y-100822000D01*
X143706662Y-100586683D01*
X143567590Y-100370559D01*
X143355390Y-100225569D01*
X143103500Y-100174560D01*
X141503500Y-100174560D01*
X141268183Y-100218838D01*
X141052059Y-100357910D01*
X140907069Y-100570110D01*
X140856060Y-100822000D01*
X134149356Y-100822000D01*
X134157838Y-98107750D01*
X140868500Y-98107750D01*
X140868500Y-98948309D01*
X140965173Y-99181698D01*
X141143801Y-99360327D01*
X141377190Y-99457000D01*
X142017750Y-99457000D01*
X142176500Y-99298250D01*
X142176500Y-97949000D01*
X142430500Y-97949000D01*
X142430500Y-99298250D01*
X142589250Y-99457000D01*
X143229810Y-99457000D01*
X143463199Y-99360327D01*
X143641827Y-99181698D01*
X143738500Y-98948309D01*
X143738500Y-98107750D01*
X143579750Y-97949000D01*
X142430500Y-97949000D01*
X142176500Y-97949000D01*
X141027250Y-97949000D01*
X140868500Y-98107750D01*
X134157838Y-98107750D01*
X134162250Y-96695691D01*
X140868500Y-96695691D01*
X140868500Y-97536250D01*
X141027250Y-97695000D01*
X142176500Y-97695000D01*
X142176500Y-96345750D01*
X142430500Y-96345750D01*
X142430500Y-97695000D01*
X143579750Y-97695000D01*
X143738500Y-97536250D01*
X143738500Y-96695691D01*
X143641827Y-96462302D01*
X143463199Y-96283673D01*
X143229810Y-96187000D01*
X142589250Y-96187000D01*
X142430500Y-96345750D01*
X142176500Y-96345750D01*
X142017750Y-96187000D01*
X141377190Y-96187000D01*
X141143801Y-96283673D01*
X140965173Y-96462302D01*
X140868500Y-96695691D01*
X134162250Y-96695691D01*
X134175302Y-92519500D01*
X138557000Y-92519500D01*
X138606410Y-92509494D01*
X138661564Y-92464578D01*
X143132400Y-85978718D01*
X157981368Y-85915798D01*
X162198361Y-92650400D01*
M02*
