G04 #@! TF.FileFunction,Legend,Bot*
%FSLAX46Y46*%
G04 Gerber Fmt 4.6, Leading zero omitted, Abs format (unit mm)*
G04 Created by KiCad (PCBNEW 4.0.2-stable) date 11.06.2016 19:11:28*
%MOMM*%
G01*
G04 APERTURE LIST*
%ADD10C,0.100000*%
%ADD11C,0.300000*%
%ADD12C,0.150000*%
G04 APERTURE END LIST*
D10*
D11*
X178685071Y-126952644D02*
X179685071Y-127309787D01*
X178685071Y-127666929D01*
X179685071Y-129024072D02*
X179685071Y-128166929D01*
X179685071Y-128595501D02*
X178185071Y-128595501D01*
X178399357Y-128452644D01*
X178542214Y-128309786D01*
X178613643Y-128166929D01*
X179542214Y-129666929D02*
X179613643Y-129738357D01*
X179685071Y-129666929D01*
X179613643Y-129595500D01*
X179542214Y-129666929D01*
X179685071Y-129666929D01*
X179685071Y-131166929D02*
X179685071Y-130309786D01*
X179685071Y-130738358D02*
X178185071Y-130738358D01*
X178399357Y-130595501D01*
X178542214Y-130452643D01*
X178613643Y-130309786D01*
X179685071Y-87829214D02*
X178185071Y-87829214D01*
X178685071Y-88543500D02*
X179685071Y-88543500D01*
X178827929Y-88543500D02*
X178756500Y-88614928D01*
X178685071Y-88757786D01*
X178685071Y-88972071D01*
X178756500Y-89114928D01*
X178899357Y-89186357D01*
X179685071Y-89186357D01*
X179685071Y-90543500D02*
X178185071Y-90543500D01*
X179613643Y-90543500D02*
X179685071Y-90400643D01*
X179685071Y-90114929D01*
X179613643Y-89972071D01*
X179542214Y-89900643D01*
X179399357Y-89829214D01*
X178970786Y-89829214D01*
X178827929Y-89900643D01*
X178756500Y-89972071D01*
X178685071Y-90114929D01*
X178685071Y-90400643D01*
X178756500Y-90543500D01*
X179685071Y-91257786D02*
X178685071Y-91257786D01*
X178970786Y-91257786D02*
X178827929Y-91329214D01*
X178756500Y-91400643D01*
X178685071Y-91543500D01*
X178685071Y-91686357D01*
X179613643Y-92757785D02*
X179685071Y-92614928D01*
X179685071Y-92329214D01*
X179613643Y-92186357D01*
X179470786Y-92114928D01*
X178899357Y-92114928D01*
X178756500Y-92186357D01*
X178685071Y-92329214D01*
X178685071Y-92614928D01*
X178756500Y-92757785D01*
X178899357Y-92829214D01*
X179042214Y-92829214D01*
X179185071Y-92114928D01*
X179685071Y-93472071D02*
X178185071Y-93472071D01*
X179113643Y-93614928D02*
X179685071Y-94043499D01*
X178685071Y-94043499D02*
X179256500Y-93472071D01*
X179685071Y-96543500D02*
X179685071Y-95829214D01*
X178185071Y-95829214D01*
X178685071Y-97686357D02*
X179685071Y-97686357D01*
X178685071Y-97043500D02*
X179470786Y-97043500D01*
X179613643Y-97114928D01*
X179685071Y-97257786D01*
X179685071Y-97472071D01*
X179613643Y-97614928D01*
X179542214Y-97686357D01*
X178685071Y-99043500D02*
X179685071Y-99043500D01*
X178685071Y-98400643D02*
X179470786Y-98400643D01*
X179613643Y-98472071D01*
X179685071Y-98614929D01*
X179685071Y-98829214D01*
X179613643Y-98972071D01*
X179542214Y-99043500D01*
X179685071Y-99757786D02*
X178185071Y-99757786D01*
X179113643Y-99900643D02*
X179685071Y-100329214D01*
X178685071Y-100329214D02*
X179256500Y-99757786D01*
D12*
X157489000Y-102124000D02*
X157489000Y-104124000D01*
X155439000Y-104124000D02*
X155439000Y-102124000D01*
X153806000Y-102124000D02*
X153806000Y-104124000D01*
X151756000Y-104124000D02*
X151756000Y-102124000D01*
X144419500Y-100198000D02*
X144419500Y-100093000D01*
X148569500Y-100198000D02*
X148569500Y-100093000D01*
X148569500Y-90048000D02*
X148569500Y-90153000D01*
X144419500Y-90048000D02*
X144419500Y-90153000D01*
X144419500Y-100198000D02*
X148569500Y-100198000D01*
X144419500Y-90048000D02*
X148569500Y-90048000D01*
X144419500Y-100093000D02*
X143044500Y-100093000D01*
X165735000Y-129921000D02*
X165735000Y-107061000D01*
X170815000Y-109601000D02*
X170815000Y-129921000D01*
X165735000Y-129921000D02*
X170815000Y-129921000D01*
X165735000Y-107061000D02*
X168275000Y-107061000D01*
X169545000Y-106781000D02*
X171095000Y-106781000D01*
X168275000Y-107061000D02*
X168275000Y-109601000D01*
X168275000Y-109601000D02*
X170815000Y-109601000D01*
X171095000Y-106781000D02*
X171095000Y-108331000D01*
X171382000Y-97774000D02*
X171382000Y-95774000D01*
X169232000Y-95774000D02*
X169232000Y-97774000D01*
X167000500Y-97774000D02*
X167000500Y-95774000D01*
X164850500Y-95774000D02*
X164850500Y-97774000D01*
X145648500Y-106367500D02*
X145648500Y-106472500D01*
X141498500Y-106367500D02*
X141498500Y-106472500D01*
X141498500Y-116517500D02*
X141498500Y-116412500D01*
X145648500Y-116517500D02*
X145648500Y-116412500D01*
X145648500Y-106367500D02*
X141498500Y-106367500D01*
X145648500Y-116517500D02*
X141498500Y-116517500D01*
X145648500Y-106472500D02*
X147023500Y-106472500D01*
X146070500Y-130180000D02*
X146070500Y-130065000D01*
X150220500Y-130180000D02*
X150220500Y-130065000D01*
X150220500Y-121280000D02*
X150220500Y-121395000D01*
X146070500Y-121280000D02*
X146070500Y-121395000D01*
X146070500Y-130180000D02*
X150220500Y-130180000D01*
X146070500Y-121280000D02*
X150220500Y-121280000D01*
X146070500Y-130065000D02*
X144695500Y-130065000D01*
X157011643Y-98575834D02*
X157059262Y-98528215D01*
X157106881Y-98385358D01*
X157106881Y-98290120D01*
X157059262Y-98147262D01*
X156964024Y-98052024D01*
X156868786Y-98004405D01*
X156678310Y-97956786D01*
X156535452Y-97956786D01*
X156344976Y-98004405D01*
X156249738Y-98052024D01*
X156154500Y-98147262D01*
X156106881Y-98290120D01*
X156106881Y-98385358D01*
X156154500Y-98528215D01*
X156202119Y-98575834D01*
X157106881Y-99528215D02*
X157106881Y-98956786D01*
X157106881Y-99242500D02*
X156106881Y-99242500D01*
X156249738Y-99147262D01*
X156344976Y-99052024D01*
X156392595Y-98956786D01*
X153265143Y-98512334D02*
X153312762Y-98464715D01*
X153360381Y-98321858D01*
X153360381Y-98226620D01*
X153312762Y-98083762D01*
X153217524Y-97988524D01*
X153122286Y-97940905D01*
X152931810Y-97893286D01*
X152788952Y-97893286D01*
X152598476Y-97940905D01*
X152503238Y-97988524D01*
X152408000Y-98083762D01*
X152360381Y-98226620D01*
X152360381Y-98321858D01*
X152408000Y-98464715D01*
X152455619Y-98512334D01*
X152455619Y-98893286D02*
X152408000Y-98940905D01*
X152360381Y-99036143D01*
X152360381Y-99274239D01*
X152408000Y-99369477D01*
X152455619Y-99417096D01*
X152550857Y-99464715D01*
X152646095Y-99464715D01*
X152788952Y-99417096D01*
X153360381Y-98845667D01*
X153360381Y-99464715D01*
X147137357Y-101575381D02*
X147613548Y-101575381D01*
X147613548Y-100575381D01*
X146851643Y-101527762D02*
X146708786Y-101575381D01*
X146470690Y-101575381D01*
X146375452Y-101527762D01*
X146327833Y-101480143D01*
X146280214Y-101384905D01*
X146280214Y-101289667D01*
X146327833Y-101194429D01*
X146375452Y-101146810D01*
X146470690Y-101099190D01*
X146661167Y-101051571D01*
X146756405Y-101003952D01*
X146804024Y-100956333D01*
X146851643Y-100861095D01*
X146851643Y-100765857D01*
X146804024Y-100670619D01*
X146756405Y-100623000D01*
X146661167Y-100575381D01*
X146423071Y-100575381D01*
X146280214Y-100623000D01*
X145327833Y-101575381D02*
X145899262Y-101575381D01*
X145613548Y-101575381D02*
X145613548Y-100575381D01*
X145708786Y-100718238D01*
X145804024Y-100813476D01*
X145899262Y-100861095D01*
X163726881Y-124095238D02*
X163726881Y-124285715D01*
X163774500Y-124380953D01*
X163869738Y-124476191D01*
X164060214Y-124523810D01*
X164393548Y-124523810D01*
X164584024Y-124476191D01*
X164679262Y-124380953D01*
X164726881Y-124285715D01*
X164726881Y-124095238D01*
X164679262Y-124000000D01*
X164584024Y-123904762D01*
X164393548Y-123857143D01*
X164060214Y-123857143D01*
X163869738Y-123904762D01*
X163774500Y-124000000D01*
X163726881Y-124095238D01*
X163726881Y-124809524D02*
X164726881Y-125142857D01*
X163726881Y-125476191D01*
X163726881Y-125714286D02*
X163726881Y-126380953D01*
X164726881Y-125952381D01*
X163726881Y-127190477D02*
X163726881Y-127000000D01*
X163774500Y-126904762D01*
X163822119Y-126857143D01*
X163964976Y-126761905D01*
X164155452Y-126714286D01*
X164536405Y-126714286D01*
X164631643Y-126761905D01*
X164679262Y-126809524D01*
X164726881Y-126904762D01*
X164726881Y-127095239D01*
X164679262Y-127190477D01*
X164631643Y-127238096D01*
X164536405Y-127285715D01*
X164298310Y-127285715D01*
X164203071Y-127238096D01*
X164155452Y-127190477D01*
X164107833Y-127095239D01*
X164107833Y-126904762D01*
X164155452Y-126809524D01*
X164203071Y-126761905D01*
X164298310Y-126714286D01*
X163726881Y-127619048D02*
X163726881Y-128285715D01*
X164726881Y-127857143D01*
X163726881Y-128857143D02*
X163726881Y-128952382D01*
X163774500Y-129047620D01*
X163822119Y-129095239D01*
X163917357Y-129142858D01*
X164107833Y-129190477D01*
X164345929Y-129190477D01*
X164536405Y-129142858D01*
X164631643Y-129095239D01*
X164679262Y-129047620D01*
X164726881Y-128952382D01*
X164726881Y-128857143D01*
X164679262Y-128761905D01*
X164631643Y-128714286D01*
X164536405Y-128666667D01*
X164345929Y-128619048D01*
X164107833Y-128619048D01*
X163917357Y-128666667D01*
X163822119Y-128714286D01*
X163774500Y-128761905D01*
X163726881Y-128857143D01*
X164726881Y-130142858D02*
X164726881Y-129571429D01*
X164726881Y-129857143D02*
X163726881Y-129857143D01*
X163869738Y-129761905D01*
X163964976Y-129666667D01*
X164012595Y-129571429D01*
X170822881Y-92289334D02*
X170346690Y-91956000D01*
X170822881Y-91717905D02*
X169822881Y-91717905D01*
X169822881Y-92098858D01*
X169870500Y-92194096D01*
X169918119Y-92241715D01*
X170013357Y-92289334D01*
X170156214Y-92289334D01*
X170251452Y-92241715D01*
X170299071Y-92194096D01*
X170346690Y-92098858D01*
X170346690Y-91717905D01*
X170822881Y-93241715D02*
X170822881Y-92670286D01*
X170822881Y-92956000D02*
X169822881Y-92956000D01*
X169965738Y-92860762D01*
X170060976Y-92765524D01*
X170108595Y-92670286D01*
X166504881Y-92098834D02*
X166028690Y-91765500D01*
X166504881Y-91527405D02*
X165504881Y-91527405D01*
X165504881Y-91908358D01*
X165552500Y-92003596D01*
X165600119Y-92051215D01*
X165695357Y-92098834D01*
X165838214Y-92098834D01*
X165933452Y-92051215D01*
X165981071Y-92003596D01*
X166028690Y-91908358D01*
X166028690Y-91527405D01*
X165600119Y-92479786D02*
X165552500Y-92527405D01*
X165504881Y-92622643D01*
X165504881Y-92860739D01*
X165552500Y-92955977D01*
X165600119Y-93003596D01*
X165695357Y-93051215D01*
X165790595Y-93051215D01*
X165933452Y-93003596D01*
X166504881Y-92432167D01*
X166504881Y-93051215D01*
X144859214Y-105847262D02*
X144716357Y-105894881D01*
X144478261Y-105894881D01*
X144383023Y-105847262D01*
X144335404Y-105799643D01*
X144287785Y-105704405D01*
X144287785Y-105609167D01*
X144335404Y-105513929D01*
X144383023Y-105466310D01*
X144478261Y-105418690D01*
X144668738Y-105371071D01*
X144763976Y-105323452D01*
X144811595Y-105275833D01*
X144859214Y-105180595D01*
X144859214Y-105085357D01*
X144811595Y-104990119D01*
X144763976Y-104942500D01*
X144668738Y-104894881D01*
X144430642Y-104894881D01*
X144287785Y-104942500D01*
X143859214Y-105894881D02*
X143859214Y-104894881D01*
X143859214Y-105371071D02*
X143287785Y-105371071D01*
X143287785Y-105894881D02*
X143287785Y-104894881D01*
X142859214Y-104990119D02*
X142811595Y-104942500D01*
X142716357Y-104894881D01*
X142478261Y-104894881D01*
X142383023Y-104942500D01*
X142335404Y-104990119D01*
X142287785Y-105085357D01*
X142287785Y-105180595D01*
X142335404Y-105323452D01*
X142906833Y-105894881D01*
X142287785Y-105894881D01*
X148907405Y-130557381D02*
X148907405Y-131366905D01*
X148859786Y-131462143D01*
X148812167Y-131509762D01*
X148716929Y-131557381D01*
X148526452Y-131557381D01*
X148431214Y-131509762D01*
X148383595Y-131462143D01*
X148335976Y-131366905D01*
X148335976Y-130557381D01*
X147907405Y-130652619D02*
X147859786Y-130605000D01*
X147764548Y-130557381D01*
X147526452Y-130557381D01*
X147431214Y-130605000D01*
X147383595Y-130652619D01*
X147335976Y-130747857D01*
X147335976Y-130843095D01*
X147383595Y-130985952D01*
X147955024Y-131557381D01*
X147335976Y-131557381D01*
M02*
