G04 #@! TF.FileFunction,Legend,Top*
%FSLAX46Y46*%
G04 Gerber Fmt 4.6, Leading zero omitted, Abs format (unit mm)*
G04 Created by KiCad (PCBNEW 4.0.2-stable) date 11.06.2016 19:11:28*
%MOMM*%
G01*
G04 APERTURE LIST*
%ADD10C,0.100000*%
%ADD11C,0.150000*%
%ADD12C,0.381000*%
%ADD13C,0.304800*%
G04 APERTURE END LIST*
D10*
D11*
X135656500Y-105859500D02*
X135656500Y-105964500D01*
X139806500Y-105859500D02*
X139806500Y-105964500D01*
X139806500Y-116009500D02*
X139806500Y-115904500D01*
X135656500Y-116009500D02*
X135656500Y-115904500D01*
X135656500Y-105859500D02*
X139806500Y-105859500D01*
X135656500Y-116009500D02*
X139806500Y-116009500D01*
X135656500Y-105964500D02*
X134281500Y-105964500D01*
X150538000Y-116009500D02*
X150538000Y-115904500D01*
X146388000Y-116009500D02*
X146388000Y-115904500D01*
X146388000Y-105859500D02*
X146388000Y-105964500D01*
X150538000Y-105859500D02*
X150538000Y-105964500D01*
X150538000Y-116009500D02*
X146388000Y-116009500D01*
X150538000Y-105859500D02*
X146388000Y-105859500D01*
X150538000Y-115904500D02*
X151913000Y-115904500D01*
X154940000Y-113919000D02*
X154940000Y-118999000D01*
X154940000Y-118999000D02*
X157480000Y-118999000D01*
X157480000Y-118999000D02*
X157480000Y-113919000D01*
X157760000Y-111099000D02*
X157760000Y-112649000D01*
X157480000Y-113919000D02*
X154940000Y-113919000D01*
X154660000Y-112649000D02*
X154660000Y-111099000D01*
X154660000Y-111099000D02*
X157760000Y-111099000D01*
X154940000Y-124968000D02*
X154940000Y-130048000D01*
X154940000Y-130048000D02*
X157480000Y-130048000D01*
X157480000Y-130048000D02*
X157480000Y-124968000D01*
X157760000Y-122148000D02*
X157760000Y-123698000D01*
X157480000Y-124968000D02*
X154940000Y-124968000D01*
X154660000Y-123698000D02*
X154660000Y-122148000D01*
X154660000Y-122148000D02*
X157760000Y-122148000D01*
X134556500Y-122047000D02*
X134556500Y-129667000D01*
X134556500Y-129667000D02*
X139636500Y-129667000D01*
X139636500Y-129667000D02*
X139636500Y-119507000D01*
X139636500Y-119507000D02*
X137096500Y-119507000D01*
X135826500Y-119227000D02*
X134276500Y-119227000D01*
X137096500Y-119507000D02*
X137096500Y-122047000D01*
X137096500Y-122047000D02*
X134556500Y-122047000D01*
X134276500Y-119227000D02*
X134276500Y-120777000D01*
X149522000Y-130106500D02*
X149522000Y-130001500D01*
X145372000Y-130106500D02*
X145372000Y-130001500D01*
X145372000Y-119956500D02*
X145372000Y-120061500D01*
X149522000Y-119956500D02*
X149522000Y-120061500D01*
X149522000Y-130106500D02*
X145372000Y-130106500D01*
X149522000Y-119956500D02*
X145372000Y-119956500D01*
X149522000Y-130001500D02*
X150897000Y-130001500D01*
X135255000Y-92900500D02*
X135255000Y-100520500D01*
X135255000Y-100520500D02*
X140335000Y-100520500D01*
X140335000Y-100520500D02*
X140335000Y-90360500D01*
X140335000Y-90360500D02*
X137795000Y-90360500D01*
X136525000Y-90080500D02*
X134975000Y-90080500D01*
X137795000Y-90360500D02*
X137795000Y-92900500D01*
X137795000Y-92900500D02*
X135255000Y-92900500D01*
X134975000Y-90080500D02*
X134975000Y-91630500D01*
D12*
X174561500Y-89217500D02*
X174561500Y-132397500D01*
X174561500Y-132397500D02*
X161861500Y-132397500D01*
X161861500Y-132397500D02*
X161861500Y-89217500D01*
X161861500Y-89217500D02*
X174561500Y-89217500D01*
X166941500Y-89217500D02*
X166941500Y-90487500D01*
X166941500Y-90487500D02*
X169481500Y-90487500D01*
X169481500Y-90487500D02*
X169481500Y-89217500D01*
D11*
X155003500Y-90170000D02*
X157543500Y-90170000D01*
X152183500Y-89890000D02*
X153733500Y-89890000D01*
X155003500Y-90170000D02*
X155003500Y-92710000D01*
X153733500Y-92990000D02*
X152183500Y-92990000D01*
X152183500Y-92990000D02*
X152183500Y-89890000D01*
X155003500Y-92710000D02*
X157543500Y-92710000D01*
X157543500Y-92710000D02*
X157543500Y-90170000D01*
X136207691Y-104863071D02*
X135874357Y-104863071D01*
X135874357Y-105386881D02*
X135874357Y-104386881D01*
X136350548Y-104386881D01*
X136731500Y-105386881D02*
X136731500Y-104386881D01*
X137541024Y-104863071D02*
X137207690Y-104863071D01*
X137207690Y-105386881D02*
X137207690Y-104386881D01*
X137683881Y-104386881D01*
X138255309Y-104386881D02*
X138445786Y-104386881D01*
X138541024Y-104434500D01*
X138636262Y-104529738D01*
X138683881Y-104720214D01*
X138683881Y-105053548D01*
X138636262Y-105244024D01*
X138541024Y-105339262D01*
X138445786Y-105386881D01*
X138255309Y-105386881D01*
X138160071Y-105339262D01*
X138064833Y-105244024D01*
X138017214Y-105053548D01*
X138017214Y-104720214D01*
X138064833Y-104529738D01*
X138160071Y-104434500D01*
X138255309Y-104386881D01*
X139636262Y-105386881D02*
X139064833Y-105386881D01*
X139350547Y-105386881D02*
X139350547Y-104386881D01*
X139255309Y-104529738D01*
X139160071Y-104624976D01*
X139064833Y-104672595D01*
X146939191Y-116863071D02*
X146605857Y-116863071D01*
X146605857Y-117386881D02*
X146605857Y-116386881D01*
X147082048Y-116386881D01*
X147463000Y-117386881D02*
X147463000Y-116386881D01*
X148272524Y-116863071D02*
X147939190Y-116863071D01*
X147939190Y-117386881D02*
X147939190Y-116386881D01*
X148415381Y-116386881D01*
X148986809Y-116386881D02*
X149177286Y-116386881D01*
X149272524Y-116434500D01*
X149367762Y-116529738D01*
X149415381Y-116720214D01*
X149415381Y-117053548D01*
X149367762Y-117244024D01*
X149272524Y-117339262D01*
X149177286Y-117386881D01*
X148986809Y-117386881D01*
X148891571Y-117339262D01*
X148796333Y-117244024D01*
X148748714Y-117053548D01*
X148748714Y-116720214D01*
X148796333Y-116529738D01*
X148891571Y-116434500D01*
X148986809Y-116386881D01*
X149796333Y-116482119D02*
X149843952Y-116434500D01*
X149939190Y-116386881D01*
X150177286Y-116386881D01*
X150272524Y-116434500D01*
X150320143Y-116482119D01*
X150367762Y-116577357D01*
X150367762Y-116672595D01*
X150320143Y-116815452D01*
X149748714Y-117386881D01*
X150367762Y-117386881D01*
X155281405Y-110561381D02*
X155281405Y-109561381D01*
X155662358Y-109561381D01*
X155757596Y-109609000D01*
X155805215Y-109656619D01*
X155852834Y-109751857D01*
X155852834Y-109894714D01*
X155805215Y-109989952D01*
X155757596Y-110037571D01*
X155662358Y-110085190D01*
X155281405Y-110085190D01*
X156233786Y-109656619D02*
X156281405Y-109609000D01*
X156376643Y-109561381D01*
X156614739Y-109561381D01*
X156709977Y-109609000D01*
X156757596Y-109656619D01*
X156805215Y-109751857D01*
X156805215Y-109847095D01*
X156757596Y-109989952D01*
X156186167Y-110561381D01*
X156805215Y-110561381D01*
X155471905Y-121610381D02*
X155471905Y-120610381D01*
X155852858Y-120610381D01*
X155948096Y-120658000D01*
X155995715Y-120705619D01*
X156043334Y-120800857D01*
X156043334Y-120943714D01*
X155995715Y-121038952D01*
X155948096Y-121086571D01*
X155852858Y-121134190D01*
X155471905Y-121134190D01*
X156376667Y-120610381D02*
X156995715Y-120610381D01*
X156662381Y-120991333D01*
X156805239Y-120991333D01*
X156900477Y-121038952D01*
X156948096Y-121086571D01*
X156995715Y-121181810D01*
X156995715Y-121419905D01*
X156948096Y-121515143D01*
X156900477Y-121562762D01*
X156805239Y-121610381D01*
X156519524Y-121610381D01*
X156424286Y-121562762D01*
X156376667Y-121515143D01*
X134135905Y-118625881D02*
X134135905Y-117625881D01*
X134516858Y-117625881D01*
X134612096Y-117673500D01*
X134659715Y-117721119D01*
X134707334Y-117816357D01*
X134707334Y-117959214D01*
X134659715Y-118054452D01*
X134612096Y-118102071D01*
X134516858Y-118149690D01*
X134135905Y-118149690D01*
X135564477Y-117959214D02*
X135564477Y-118625881D01*
X135326381Y-117578262D02*
X135088286Y-118292548D01*
X135707334Y-118292548D01*
X146161286Y-131436262D02*
X146304143Y-131483881D01*
X146542239Y-131483881D01*
X146637477Y-131436262D01*
X146685096Y-131388643D01*
X146732715Y-131293405D01*
X146732715Y-131198167D01*
X146685096Y-131102929D01*
X146637477Y-131055310D01*
X146542239Y-131007690D01*
X146351762Y-130960071D01*
X146256524Y-130912452D01*
X146208905Y-130864833D01*
X146161286Y-130769595D01*
X146161286Y-130674357D01*
X146208905Y-130579119D01*
X146256524Y-130531500D01*
X146351762Y-130483881D01*
X146589858Y-130483881D01*
X146732715Y-130531500D01*
X147161286Y-131483881D02*
X147161286Y-130483881D01*
X147161286Y-130960071D02*
X147732715Y-130960071D01*
X147732715Y-131483881D02*
X147732715Y-130483881D01*
X148732715Y-131483881D02*
X148161286Y-131483881D01*
X148447000Y-131483881D02*
X148447000Y-130483881D01*
X148351762Y-130626738D01*
X148256524Y-130721976D01*
X148161286Y-130769595D01*
X134763071Y-101433381D02*
X135334500Y-101433381D01*
X135048785Y-102433381D02*
X135048785Y-101433381D01*
X136001167Y-101909571D02*
X135667833Y-101909571D01*
X135667833Y-102433381D02*
X135667833Y-101433381D01*
X136144024Y-101433381D01*
X136382119Y-101433381D02*
X136953548Y-101433381D01*
X136667833Y-102433381D02*
X136667833Y-101433381D01*
X137810691Y-102433381D02*
X137239262Y-102433381D01*
X137524976Y-102433381D02*
X137524976Y-101433381D01*
X137429738Y-101576238D01*
X137334500Y-101671476D01*
X137239262Y-101719095D01*
D13*
X171936833Y-92921667D02*
X173376167Y-92921667D01*
X173545500Y-92837000D01*
X173630167Y-92752333D01*
X173714833Y-92583000D01*
X173714833Y-92244333D01*
X173630167Y-92075000D01*
X173545500Y-91990333D01*
X173376167Y-91905667D01*
X171936833Y-91905667D01*
X173714833Y-90127666D02*
X173714833Y-91143666D01*
X173714833Y-90635666D02*
X171936833Y-90635666D01*
X172190833Y-90805000D01*
X172360167Y-90974333D01*
X172444833Y-91143666D01*
X179620333Y-128862669D02*
X178689000Y-128862669D01*
X178519667Y-128947335D01*
X178435000Y-129116669D01*
X178435000Y-129455335D01*
X178519667Y-129624669D01*
X179535667Y-128862669D02*
X179620333Y-129032002D01*
X179620333Y-129455335D01*
X179535667Y-129624669D01*
X179366333Y-129709335D01*
X179197000Y-129709335D01*
X179027667Y-129624669D01*
X178943000Y-129455335D01*
X178943000Y-129032002D01*
X178858333Y-128862669D01*
X179620333Y-128016002D02*
X178435000Y-128016002D01*
X178773667Y-128016002D02*
X178604333Y-127931335D01*
X178519667Y-127846668D01*
X178435000Y-127677335D01*
X178435000Y-127508002D01*
X179620333Y-126153335D02*
X177842333Y-126153335D01*
X179535667Y-126153335D02*
X179620333Y-126322668D01*
X179620333Y-126661335D01*
X179535667Y-126830668D01*
X179451000Y-126915335D01*
X179281667Y-127000001D01*
X178773667Y-127000001D01*
X178604333Y-126915335D01*
X178519667Y-126830668D01*
X178435000Y-126661335D01*
X178435000Y-126322668D01*
X178519667Y-126153335D01*
X178435000Y-124544668D02*
X179620333Y-124544668D01*
X178435000Y-125306668D02*
X179366333Y-125306668D01*
X179535667Y-125222001D01*
X179620333Y-125052668D01*
X179620333Y-124798668D01*
X179535667Y-124629334D01*
X179451000Y-124544668D01*
X179620333Y-123698001D02*
X178435000Y-123698001D01*
X177842333Y-123698001D02*
X177927000Y-123782667D01*
X178011667Y-123698001D01*
X177927000Y-123613334D01*
X177842333Y-123698001D01*
X178011667Y-123698001D01*
X178435000Y-122851334D02*
X179620333Y-122851334D01*
X178604333Y-122851334D02*
X178519667Y-122766667D01*
X178435000Y-122597334D01*
X178435000Y-122343334D01*
X178519667Y-122174000D01*
X178689000Y-122089334D01*
X179620333Y-122089334D01*
X179620333Y-120988667D02*
X179535667Y-121158000D01*
X179451000Y-121242667D01*
X179281667Y-121327333D01*
X178773667Y-121327333D01*
X178604333Y-121242667D01*
X178519667Y-121158000D01*
X178435000Y-120988667D01*
X178435000Y-120734667D01*
X178519667Y-120565333D01*
X178604333Y-120480667D01*
X178773667Y-120396000D01*
X179281667Y-120396000D01*
X179451000Y-120480667D01*
X179535667Y-120565333D01*
X179620333Y-120734667D01*
X179620333Y-120988667D01*
X179789667Y-120057333D02*
X179789667Y-118702666D01*
X179620333Y-118279333D02*
X178435000Y-118279333D01*
X178604333Y-118279333D02*
X178519667Y-118194666D01*
X178435000Y-118025333D01*
X178435000Y-117771333D01*
X178519667Y-117601999D01*
X178689000Y-117517333D01*
X179620333Y-117517333D01*
X178689000Y-117517333D02*
X178519667Y-117432666D01*
X178435000Y-117263333D01*
X178435000Y-117009333D01*
X178519667Y-116839999D01*
X178689000Y-116755333D01*
X179620333Y-116755333D01*
X179620333Y-115908666D02*
X178435000Y-115908666D01*
X177842333Y-115908666D02*
X177927000Y-115993332D01*
X178011667Y-115908666D01*
X177927000Y-115823999D01*
X177842333Y-115908666D01*
X178011667Y-115908666D01*
X178435000Y-115061999D02*
X179620333Y-115061999D01*
X178604333Y-115061999D02*
X178519667Y-114977332D01*
X178435000Y-114807999D01*
X178435000Y-114553999D01*
X178519667Y-114384665D01*
X178689000Y-114299999D01*
X179620333Y-114299999D01*
X179620333Y-113453332D02*
X178435000Y-113453332D01*
X177842333Y-113453332D02*
X177927000Y-113537998D01*
X178011667Y-113453332D01*
X177927000Y-113368665D01*
X177842333Y-113453332D01*
X178011667Y-113453332D01*
D11*
X151518881Y-93313024D02*
X150518881Y-93313024D01*
X150518881Y-92932071D01*
X150566500Y-92836833D01*
X150614119Y-92789214D01*
X150709357Y-92741595D01*
X150852214Y-92741595D01*
X150947452Y-92789214D01*
X150995071Y-92836833D01*
X151042690Y-92932071D01*
X151042690Y-93313024D01*
X150518881Y-92408262D02*
X151518881Y-92170167D01*
X150804595Y-91979690D01*
X151518881Y-91789214D01*
X150518881Y-91551119D01*
X151518881Y-90598738D02*
X151042690Y-90932072D01*
X151518881Y-91170167D02*
X150518881Y-91170167D01*
X150518881Y-90789214D01*
X150566500Y-90693976D01*
X150614119Y-90646357D01*
X150709357Y-90598738D01*
X150852214Y-90598738D01*
X150947452Y-90646357D01*
X150995071Y-90693976D01*
X151042690Y-90789214D01*
X151042690Y-91170167D01*
X151518881Y-89646357D02*
X151518881Y-90217786D01*
X151518881Y-89932072D02*
X150518881Y-89932072D01*
X150661738Y-90027310D01*
X150756976Y-90122548D01*
X150804595Y-90217786D01*
M02*
