G04 #@! TF.FileFunction,Copper,L1,Top,Signal*
%FSLAX46Y46*%
G04 Gerber Fmt 4.6, Leading zero omitted, Abs format (unit mm)*
G04 Created by KiCad (PCBNEW 4.0.2-stable) date 16.05.2016 20:30:10*
%MOMM*%
G01*
G04 APERTURE LIST*
%ADD10C,0.100000*%
%ADD11R,1.500000X0.600000*%
%ADD12R,1.727200X1.727200*%
%ADD13O,1.727200X1.727200*%
%ADD14R,2.032000X1.727200*%
%ADD15O,2.032000X1.727200*%
%ADD16R,2.286000X1.574800*%
%ADD17O,2.286000X1.574800*%
%ADD18R,2.032000X2.032000*%
%ADD19O,2.032000X2.032000*%
%ADD20C,0.600000*%
%ADD21C,0.250000*%
%ADD22C,0.254000*%
G04 APERTURE END LIST*
D10*
D11*
X135031500Y-106489500D03*
X135031500Y-107759500D03*
X135031500Y-109029500D03*
X135031500Y-110299500D03*
X135031500Y-111569500D03*
X135031500Y-112839500D03*
X135031500Y-114109500D03*
X135031500Y-115379500D03*
X140431500Y-115379500D03*
X140431500Y-114109500D03*
X140431500Y-112839500D03*
X140431500Y-111569500D03*
X140431500Y-110299500D03*
X140431500Y-109029500D03*
X140431500Y-107759500D03*
X140431500Y-106489500D03*
X151163000Y-115379500D03*
X151163000Y-114109500D03*
X151163000Y-112839500D03*
X151163000Y-111569500D03*
X151163000Y-110299500D03*
X151163000Y-109029500D03*
X151163000Y-107759500D03*
X151163000Y-106489500D03*
X145763000Y-106489500D03*
X145763000Y-107759500D03*
X145763000Y-109029500D03*
X145763000Y-110299500D03*
X145763000Y-111569500D03*
X145763000Y-112839500D03*
X145763000Y-114109500D03*
X145763000Y-115379500D03*
D12*
X169545000Y-108331000D03*
D13*
X167005000Y-108331000D03*
X169545000Y-110871000D03*
X167005000Y-110871000D03*
X169545000Y-113411000D03*
X167005000Y-113411000D03*
X169545000Y-115951000D03*
X167005000Y-115951000D03*
X169545000Y-118491000D03*
X167005000Y-118491000D03*
X169545000Y-121031000D03*
X167005000Y-121031000D03*
X169545000Y-123571000D03*
X167005000Y-123571000D03*
X169545000Y-126111000D03*
X167005000Y-126111000D03*
X169545000Y-128651000D03*
X167005000Y-128651000D03*
D14*
X156210000Y-112649000D03*
D15*
X156210000Y-115189000D03*
X156210000Y-117729000D03*
D14*
X156210000Y-123698000D03*
D15*
X156210000Y-126238000D03*
X156210000Y-128778000D03*
D12*
X135826500Y-120777000D03*
D13*
X138366500Y-120777000D03*
X135826500Y-123317000D03*
X138366500Y-123317000D03*
X135826500Y-125857000D03*
X138366500Y-125857000D03*
X135826500Y-128397000D03*
X138366500Y-128397000D03*
D11*
X150147000Y-129476500D03*
X150147000Y-128206500D03*
X150147000Y-126936500D03*
X150147000Y-125666500D03*
X150147000Y-124396500D03*
X150147000Y-123126500D03*
X150147000Y-121856500D03*
X150147000Y-120586500D03*
X144747000Y-120586500D03*
X144747000Y-121856500D03*
X144747000Y-123126500D03*
X144747000Y-124396500D03*
X144747000Y-125666500D03*
X144747000Y-126936500D03*
X144747000Y-128206500D03*
X144747000Y-129476500D03*
D12*
X136525000Y-91630500D03*
D13*
X139065000Y-91630500D03*
X136525000Y-94170500D03*
X139065000Y-94170500D03*
X136525000Y-96710500D03*
X139065000Y-96710500D03*
X136525000Y-99250500D03*
X139065000Y-99250500D03*
D16*
X160591500Y-93027500D03*
D17*
X160591500Y-95567500D03*
X160591500Y-98107500D03*
X160591500Y-100647500D03*
X160591500Y-103187500D03*
X160591500Y-105727500D03*
X160591500Y-108267500D03*
X160591500Y-110807500D03*
X160591500Y-113347500D03*
X160591500Y-115887500D03*
X160591500Y-118427500D03*
X160591500Y-120967500D03*
X160591500Y-123507500D03*
X160591500Y-126047500D03*
X160591500Y-128587500D03*
X175831500Y-128587500D03*
X175831500Y-126047500D03*
X175831500Y-123507500D03*
X175831500Y-120967500D03*
X175831500Y-118427500D03*
X175831500Y-115887500D03*
X175831500Y-113347500D03*
X175831500Y-110807500D03*
X175831500Y-108267500D03*
X175831500Y-105727500D03*
X175831500Y-103187500D03*
X175831500Y-100647500D03*
X175831500Y-98107500D03*
X175831500Y-95567500D03*
X175831500Y-93027500D03*
D18*
X153733500Y-91440000D03*
D19*
X156273500Y-91440000D03*
D20*
X138557000Y-116967000D03*
X152781000Y-106934000D03*
X167640000Y-87122000D03*
X167640000Y-91440000D03*
X159575500Y-107061000D03*
X157480000Y-107061000D03*
X153924000Y-129667000D03*
X152019000Y-131889500D03*
X152400000Y-116776500D03*
X152336500Y-119062500D03*
X136588500Y-115379500D03*
X137858500Y-102362000D03*
X135001000Y-105029000D03*
X143510000Y-121920000D03*
X143192500Y-100711000D03*
X171196000Y-92392500D03*
X173799500Y-104521000D03*
X162687000Y-95567500D03*
X134874000Y-117475000D03*
X136779000Y-117475000D03*
X139192000Y-114935000D03*
X144526000Y-114998500D03*
X151574500Y-93789500D03*
X154495500Y-105092500D03*
X140843000Y-105410000D03*
X141033500Y-131254500D03*
X142557500Y-129476500D03*
X152590500Y-127000000D03*
X140652500Y-118237000D03*
X137096500Y-118237000D03*
X133159500Y-109855000D03*
X149796500Y-117221000D03*
X138938000Y-108331000D03*
X136525000Y-111569500D03*
X136461500Y-112903000D03*
X136461500Y-113855500D03*
X147193000Y-127952500D03*
X152463500Y-111633000D03*
X152400000Y-110363000D03*
X152400000Y-109093000D03*
X152590500Y-107886500D03*
X141859000Y-98869500D03*
X142875000Y-102870000D03*
X142240000Y-97028000D03*
X142367000Y-88201500D03*
X143573500Y-109791500D03*
X146939000Y-94424500D03*
X142684500Y-108648500D03*
X145478500Y-91821000D03*
X151066500Y-90805000D03*
X156527500Y-95377000D03*
X156400500Y-97028000D03*
X165100000Y-119951500D03*
X147891500Y-129540000D03*
X177990500Y-115951000D03*
D21*
X140431500Y-115379500D02*
X140431500Y-115854500D01*
X140431500Y-116362500D02*
X140431500Y-115854500D01*
X139827000Y-116967000D02*
X140431500Y-116362500D01*
X138557000Y-116967000D02*
X139827000Y-116967000D01*
X151163000Y-106489500D02*
X145763000Y-106489500D01*
X151638000Y-106934000D02*
X151607500Y-106934000D01*
X151607500Y-106934000D02*
X151163000Y-106489500D01*
X151638000Y-106934000D02*
X152781000Y-106934000D01*
X167640000Y-91440000D02*
X167640000Y-87122000D01*
X159575500Y-107061000D02*
X157480000Y-107061000D01*
X145763000Y-106489500D02*
X145859500Y-106489500D01*
X153924000Y-129984500D02*
X153924000Y-129667000D01*
X152019000Y-131889500D02*
X153924000Y-129984500D01*
X151163000Y-115379500D02*
X151163000Y-115539500D01*
X151163000Y-115539500D02*
X152400000Y-116776500D01*
X152336500Y-119062500D02*
X150812500Y-120586500D01*
X150812500Y-120586500D02*
X150147000Y-120586500D01*
X136588500Y-115379500D02*
X135031500Y-115379500D01*
X145763000Y-106489500D02*
X145763000Y-106395500D01*
X135031500Y-106489500D02*
X135031500Y-105059500D01*
X139065000Y-101155500D02*
X139065000Y-99250500D01*
X137858500Y-102362000D02*
X139065000Y-101155500D01*
X135031500Y-105059500D02*
X135001000Y-105029000D01*
X144747000Y-121856500D02*
X143573500Y-121856500D01*
X143573500Y-121856500D02*
X143510000Y-121920000D01*
X139065000Y-96710500D02*
X140589000Y-96710500D01*
X143192500Y-99123500D02*
X143192500Y-100711000D01*
X142811500Y-98742500D02*
X143192500Y-99123500D01*
X142811500Y-98171000D02*
X142811500Y-98742500D01*
X142557500Y-97917000D02*
X142811500Y-98171000D01*
X141668500Y-97917000D02*
X142557500Y-97917000D01*
X141033500Y-97282000D02*
X141668500Y-97917000D01*
X141033500Y-97155000D02*
X141033500Y-97282000D01*
X140589000Y-96710500D02*
X141033500Y-97155000D01*
X169545000Y-130556000D02*
X169545000Y-128651000D01*
X170561000Y-131572000D02*
X169545000Y-130556000D01*
X177482500Y-131572000D02*
X170561000Y-131572000D01*
X179705000Y-129349500D02*
X177482500Y-131572000D01*
X179705000Y-90995500D02*
X179705000Y-129349500D01*
X178498500Y-89789000D02*
X179705000Y-90995500D01*
X173799500Y-89789000D02*
X178498500Y-89789000D01*
X171196000Y-92392500D02*
X173799500Y-89789000D01*
X172085000Y-108331000D02*
X169545000Y-108331000D01*
X172910500Y-107505500D02*
X172085000Y-108331000D01*
X172910500Y-105410000D02*
X172910500Y-107505500D01*
X173799500Y-104521000D02*
X172910500Y-105410000D01*
X160591500Y-95567500D02*
X162687000Y-95567500D01*
X139700000Y-104267000D02*
X140843000Y-105410000D01*
X134175500Y-104267000D02*
X139700000Y-104267000D01*
X132524500Y-105918000D02*
X134175500Y-104267000D01*
X132524500Y-115125500D02*
X132524500Y-105918000D01*
X134874000Y-117475000D02*
X132524500Y-115125500D01*
X136779000Y-117348000D02*
X136779000Y-117475000D01*
X139192000Y-114935000D02*
X136779000Y-117348000D01*
X145763000Y-115379500D02*
X144907000Y-115379500D01*
X144907000Y-115379500D02*
X144526000Y-114998500D01*
X152781000Y-105029000D02*
X152781000Y-94996000D01*
X152781000Y-94996000D02*
X151574500Y-93789500D01*
X154622500Y-117729000D02*
X156210000Y-117729000D01*
X153924000Y-117030500D02*
X154622500Y-117729000D01*
X153924000Y-110680500D02*
X153924000Y-117030500D01*
X154559000Y-110045500D02*
X153924000Y-110680500D01*
X154559000Y-105156000D02*
X154559000Y-110045500D01*
X154495500Y-105092500D02*
X154559000Y-105156000D01*
X160591500Y-120967500D02*
X157289500Y-120967500D01*
X156210000Y-119888000D02*
X156210000Y-117729000D01*
X157289500Y-120967500D02*
X156210000Y-119888000D01*
X140431500Y-105821500D02*
X140431500Y-106489500D01*
X140843000Y-105410000D02*
X140431500Y-105821500D01*
X144747000Y-129476500D02*
X142621000Y-129476500D01*
X153670000Y-128778000D02*
X156210000Y-128778000D01*
X151066500Y-131381500D02*
X153670000Y-128778000D01*
X141160500Y-131381500D02*
X151066500Y-131381500D01*
X141033500Y-131254500D02*
X141160500Y-131381500D01*
X142621000Y-129476500D02*
X142557500Y-129476500D01*
X154368500Y-128778000D02*
X156210000Y-128778000D01*
X152590500Y-127000000D02*
X154368500Y-128778000D01*
X140652500Y-118237000D02*
X137096500Y-118237000D01*
X133159500Y-109855000D02*
X133858000Y-109156500D01*
X134904500Y-109156500D02*
X133858000Y-109156500D01*
X149796500Y-117221000D02*
X149796500Y-113220500D01*
X149796500Y-113220500D02*
X150177500Y-112839500D01*
X150177500Y-112839500D02*
X151163000Y-112839500D01*
X134904500Y-109156500D02*
X135031500Y-109029500D01*
X135031500Y-110299500D02*
X136969500Y-110299500D01*
X136969500Y-110299500D02*
X138938000Y-108331000D01*
X136525000Y-111569500D02*
X135031500Y-111569500D01*
X136398000Y-112839500D02*
X135031500Y-112839500D01*
X136461500Y-112903000D02*
X136398000Y-112839500D01*
X136207500Y-114109500D02*
X135031500Y-114109500D01*
X136461500Y-113855500D02*
X136207500Y-114109500D01*
X135158500Y-113982500D02*
X135031500Y-114109500D01*
X144747000Y-126936500D02*
X143827500Y-126936500D01*
X141541500Y-114109500D02*
X140431500Y-114109500D01*
X142038496Y-114606496D02*
X141541500Y-114109500D01*
X142038496Y-117740004D02*
X142038496Y-114606496D01*
X140589000Y-119189500D02*
X142038496Y-117740004D01*
X140589000Y-123698000D02*
X140589000Y-119189500D01*
X143827500Y-126936500D02*
X140589000Y-123698000D01*
X144747000Y-126936500D02*
X144208500Y-126936500D01*
X144747000Y-125666500D02*
X143193898Y-125666500D01*
X141922500Y-112839500D02*
X140431500Y-112839500D01*
X142488498Y-113405498D02*
X141922500Y-112839500D01*
X142488498Y-117994004D02*
X142488498Y-113405498D01*
X141039002Y-119443500D02*
X142488498Y-117994004D01*
X141039002Y-123511604D02*
X141039002Y-119443500D01*
X143193898Y-125666500D02*
X141039002Y-123511604D01*
X144747000Y-125666500D02*
X144145000Y-125666500D01*
X144747000Y-124396500D02*
X142684500Y-124396500D01*
X142176500Y-111569500D02*
X140431500Y-111569500D01*
X142938500Y-112331500D02*
X142176500Y-111569500D01*
X142938500Y-118237000D02*
X142938500Y-112331500D01*
X141541500Y-119634000D02*
X142938500Y-118237000D01*
X141541500Y-123253500D02*
X141541500Y-119634000D01*
X142684500Y-124396500D02*
X141541500Y-123253500D01*
X144747000Y-124396500D02*
X144208500Y-124396500D01*
X144747000Y-123126500D02*
X142303500Y-123126500D01*
X143446500Y-111442500D02*
X142303500Y-110299500D01*
X142303500Y-110299500D02*
X140431500Y-110299500D01*
X143446500Y-118427500D02*
X143446500Y-111442500D01*
X142049500Y-119824500D02*
X143446500Y-118427500D01*
X142049500Y-122872500D02*
X142049500Y-119824500D01*
X142303500Y-123126500D02*
X142049500Y-122872500D01*
X144747000Y-123126500D02*
X143764000Y-123126500D01*
X135826500Y-117665500D02*
X135826500Y-117411500D01*
X138430000Y-109918500D02*
X139319000Y-109029500D01*
X140431500Y-109029500D02*
X139319000Y-109029500D01*
X135826500Y-117665500D02*
X135826500Y-120777000D01*
X137223500Y-111125000D02*
X138430000Y-109918500D01*
X137223500Y-116014500D02*
X137223500Y-111125000D01*
X135826500Y-117411500D02*
X137223500Y-116014500D01*
X144335500Y-113786498D02*
X144335500Y-111633000D01*
X141986000Y-109093000D02*
X141986000Y-109283500D01*
X141986000Y-108585000D02*
X141986000Y-109093000D01*
X141160500Y-107759500D02*
X141986000Y-108585000D01*
X141986000Y-109283500D02*
X143896502Y-111194002D01*
X144335500Y-113786498D02*
X144335500Y-114173000D01*
X144335500Y-111633000D02*
X143896502Y-111194002D01*
X143896502Y-116401002D02*
X143896502Y-114611998D01*
X143896502Y-114611998D02*
X144335500Y-114173000D01*
X144462500Y-116967000D02*
X147002500Y-119507000D01*
X147002500Y-119507000D02*
X147002500Y-127762000D01*
X147002500Y-127762000D02*
X147193000Y-127952500D01*
X143896502Y-116401002D02*
X144462500Y-116967000D01*
X144335500Y-114173000D02*
X145699500Y-114173000D01*
X145699500Y-114173000D02*
X145763000Y-114109500D01*
X145763000Y-114109500D02*
X145097500Y-114109500D01*
X140431500Y-107759500D02*
X141160500Y-107759500D01*
X152400000Y-111569500D02*
X151163000Y-111569500D01*
X152463500Y-111633000D02*
X152400000Y-111569500D01*
X152336500Y-110299500D02*
X151163000Y-110299500D01*
X152400000Y-110363000D02*
X152336500Y-110299500D01*
X152336500Y-109029500D02*
X151163000Y-109029500D01*
X152400000Y-109093000D02*
X152336500Y-109029500D01*
X152463500Y-107759500D02*
X151163000Y-107759500D01*
X152590500Y-107886500D02*
X152463500Y-107759500D01*
X151892000Y-107886500D02*
X151163000Y-107759500D01*
X150147000Y-123126500D02*
X149669500Y-123126500D01*
X149669500Y-123126500D02*
X149034500Y-122491500D01*
X149034500Y-122491500D02*
X149034500Y-109029500D01*
X149034500Y-109029500D02*
X147764500Y-107759500D01*
X147764500Y-107759500D02*
X145763000Y-107759500D01*
X150147000Y-124396500D02*
X149733000Y-124396500D01*
X149733000Y-124396500D02*
X148526500Y-123190000D01*
X148526500Y-123190000D02*
X148526500Y-109918500D01*
X148526500Y-109918500D02*
X147637500Y-109029500D01*
X147637500Y-109029500D02*
X145763000Y-109029500D01*
X150147000Y-125666500D02*
X149542500Y-125666500D01*
X149542500Y-125666500D02*
X148018500Y-124142500D01*
X148018500Y-124142500D02*
X148018500Y-110998000D01*
X148018500Y-110998000D02*
X147320000Y-110299500D01*
X147320000Y-110299500D02*
X145763000Y-110299500D01*
X150147000Y-126936500D02*
X149542500Y-126936500D01*
X149542500Y-126936500D02*
X147510500Y-124904500D01*
X147510500Y-124904500D02*
X147510500Y-111950500D01*
X147510500Y-111950500D02*
X147129500Y-111569500D01*
X147129500Y-111569500D02*
X145763000Y-111569500D01*
X141859000Y-101854000D02*
X141859000Y-98869500D01*
X142875000Y-102870000D02*
X141859000Y-101854000D01*
X141605000Y-96393000D02*
X142240000Y-97028000D01*
X141605000Y-88963500D02*
X141605000Y-96393000D01*
X142367000Y-88201500D02*
X141605000Y-88963500D01*
X146939000Y-94424500D02*
X146939000Y-101917500D01*
X143573500Y-105283000D02*
X143573500Y-109791500D01*
X146939000Y-101917500D02*
X143573500Y-105283000D01*
X160591500Y-93027500D02*
X160591500Y-90360500D01*
X146939000Y-91376500D02*
X146939000Y-94424500D01*
X149288500Y-89027000D02*
X146939000Y-91376500D01*
X159258000Y-89027000D02*
X149288500Y-89027000D01*
X160591500Y-90360500D02*
X159258000Y-89027000D01*
X148812250Y-88487250D02*
X159480250Y-88487250D01*
X166560500Y-95567500D02*
X171640500Y-95567500D01*
X159480250Y-88487250D02*
X166560500Y-95567500D01*
X145478500Y-91821000D02*
X145478500Y-102362000D01*
X142684500Y-105156000D02*
X142684500Y-108648500D01*
X145478500Y-102362000D02*
X142684500Y-105156000D01*
X175831500Y-95567500D02*
X171640500Y-95567500D01*
X171640500Y-95567500D02*
X171513500Y-95567500D01*
X148844000Y-88455500D02*
X148812250Y-88487250D01*
X148812250Y-88487250D02*
X145478500Y-91821000D01*
X162877500Y-94297500D02*
X153606500Y-94297500D01*
X166687500Y-98107500D02*
X162877500Y-94297500D01*
X166687500Y-98107500D02*
X175831500Y-98107500D01*
X151066500Y-91757500D02*
X151066500Y-90805000D01*
X153606500Y-94297500D02*
X151066500Y-91757500D01*
X136525000Y-91186000D02*
X136525000Y-91630500D01*
X164052250Y-96869250D02*
X158019750Y-96869250D01*
X158019750Y-96869250D02*
X156527500Y-95377000D01*
X175831500Y-100647500D02*
X167830500Y-100647500D01*
X167830500Y-100647500D02*
X164052250Y-96869250D01*
X164052250Y-96869250D02*
X164020500Y-96837500D01*
X162814000Y-99314000D02*
X158940500Y-99314000D01*
X166687500Y-103187500D02*
X162814000Y-99314000D01*
X175831500Y-103187500D02*
X166687500Y-103187500D01*
X156654500Y-97028000D02*
X156400500Y-97028000D01*
X158940500Y-99314000D02*
X156654500Y-97028000D01*
X167005000Y-118491000D02*
X167195500Y-118491000D01*
X167195500Y-118491000D02*
X168465500Y-117221000D01*
X168465500Y-117221000D02*
X170561000Y-117221000D01*
X170561000Y-117221000D02*
X172529500Y-115252500D01*
X172529500Y-115252500D02*
X172529500Y-110109000D01*
X172529500Y-110109000D02*
X174371000Y-108267500D01*
X174371000Y-108267500D02*
X175831500Y-108267500D01*
X169545000Y-121031000D02*
X169799000Y-121031000D01*
X169799000Y-121031000D02*
X173228000Y-117602000D01*
X173228000Y-117602000D02*
X173228000Y-111950500D01*
X173228000Y-111950500D02*
X174371000Y-110807500D01*
X174371000Y-110807500D02*
X175831500Y-110807500D01*
X167005000Y-121031000D02*
X167576500Y-121031000D01*
X167576500Y-121031000D02*
X168846500Y-122301000D01*
X168846500Y-122301000D02*
X170370500Y-122301000D01*
X170370500Y-122301000D02*
X173799500Y-118872000D01*
X173799500Y-118872000D02*
X173799500Y-114109500D01*
X173799500Y-114109500D02*
X174561500Y-113347500D01*
X174561500Y-113347500D02*
X175831500Y-113347500D01*
X169545000Y-123571000D02*
X169545000Y-123825000D01*
X169545000Y-123825000D02*
X171005500Y-125285500D01*
X171005500Y-125285500D02*
X171005500Y-126619000D01*
X171005500Y-126619000D02*
X170243500Y-127381000D01*
X170243500Y-127381000D02*
X165798500Y-127381000D01*
X165798500Y-127381000D02*
X163449000Y-125031500D01*
X163449000Y-125031500D02*
X163449000Y-109537500D01*
X163449000Y-109537500D02*
X162179000Y-108267500D01*
X162179000Y-108267500D02*
X160591500Y-108267500D01*
X167005000Y-123571000D02*
X166878000Y-123571000D01*
X166878000Y-123571000D02*
X163957000Y-120650000D01*
X163957000Y-120650000D02*
X163957000Y-107569000D01*
X163957000Y-107569000D02*
X162115500Y-105727500D01*
X162115500Y-105727500D02*
X160591500Y-105727500D01*
X169545000Y-126111000D02*
X169545000Y-125730000D01*
X169545000Y-125730000D02*
X168211500Y-124396500D01*
X168211500Y-124396500D02*
X168211500Y-122999500D01*
X168211500Y-122999500D02*
X167512301Y-122300301D01*
X167512301Y-122300301D02*
X166496301Y-122300301D01*
X166496301Y-122300301D02*
X164465000Y-120269000D01*
X164465000Y-120269000D02*
X164465000Y-107251500D01*
X164465000Y-107251500D02*
X162433000Y-105219500D01*
X162433000Y-105219500D02*
X162433000Y-103632000D01*
X162433000Y-103632000D02*
X161988500Y-103187500D01*
X161988500Y-103187500D02*
X160591500Y-103187500D01*
X167005000Y-126111000D02*
X167005000Y-125984000D01*
X162115500Y-100647500D02*
X160591500Y-100647500D01*
X163068000Y-101600000D02*
X162115500Y-100647500D01*
X163068000Y-105029000D02*
X163068000Y-101600000D01*
X165100000Y-107061000D02*
X163068000Y-105029000D01*
X165100000Y-119951500D02*
X165100000Y-107061000D01*
X156210000Y-115189000D02*
X157734000Y-115189000D01*
X158432500Y-115887500D02*
X160591500Y-115887500D01*
X157734000Y-115189000D02*
X158432500Y-115887500D01*
X156210000Y-126238000D02*
X157670500Y-126238000D01*
X161861500Y-118427500D02*
X160591500Y-118427500D01*
X162306000Y-118872000D02*
X161861500Y-118427500D01*
X162306000Y-124206000D02*
X162306000Y-118872000D01*
X161734500Y-124777500D02*
X162306000Y-124206000D01*
X159131000Y-124777500D02*
X161734500Y-124777500D01*
X157670500Y-126238000D02*
X159131000Y-124777500D01*
X150147000Y-129476500D02*
X147955000Y-129476500D01*
X147955000Y-129476500D02*
X147891500Y-129540000D01*
X141128750Y-125126750D02*
X139954000Y-123952000D01*
X137096500Y-122047000D02*
X135826500Y-123317000D01*
X139128500Y-122047000D02*
X137096500Y-122047000D01*
X139954000Y-122872500D02*
X139128500Y-122047000D01*
X139954000Y-123952000D02*
X139954000Y-122872500D01*
X144747000Y-128206500D02*
X144208500Y-128206500D01*
X144208500Y-128206500D02*
X141128750Y-125126750D01*
X141128750Y-125126750D02*
X141097000Y-125095000D01*
X135318500Y-129857500D02*
X135001000Y-129857500D01*
X134175500Y-125476000D02*
X135064500Y-124587000D01*
X135064500Y-124587000D02*
X137096500Y-124587000D01*
X138366500Y-123317000D02*
X137096500Y-124587000D01*
X147891500Y-128206500D02*
X147129500Y-128968500D01*
X147129500Y-128968500D02*
X147129500Y-129857500D01*
X147129500Y-129857500D02*
X146113500Y-130873500D01*
X146113500Y-130873500D02*
X141986000Y-130873500D01*
X141986000Y-130873500D02*
X140970000Y-129857500D01*
X140970000Y-129857500D02*
X135318500Y-129857500D01*
X148336000Y-128206500D02*
X150147000Y-128206500D01*
X148336000Y-128206500D02*
X147891500Y-128206500D01*
X134175500Y-129032000D02*
X134175500Y-125476000D01*
X135001000Y-129857500D02*
X134175500Y-129032000D01*
X150147000Y-128206500D02*
X149415500Y-128206500D01*
X144747000Y-120586500D02*
X145478500Y-120586500D01*
X145478500Y-120586500D02*
X146494500Y-121602500D01*
X146494500Y-121602500D02*
X146494500Y-129667000D01*
X146494500Y-129667000D02*
X145796000Y-130365500D01*
X145796000Y-130365500D02*
X142430500Y-130365500D01*
X142430500Y-130365500D02*
X139192000Y-127127000D01*
X139192000Y-127127000D02*
X137096500Y-127127000D01*
X137096500Y-127127000D02*
X135826500Y-125857000D01*
X177990500Y-115951000D02*
X177990500Y-107950000D01*
X175831500Y-105791000D02*
X177990500Y-107950000D01*
X175831500Y-105791000D02*
X175831500Y-105727500D01*
D22*
G36*
X142344673Y-103662192D02*
X142688201Y-103804838D01*
X142960623Y-103805075D01*
X142147099Y-104618599D01*
X141982352Y-104865161D01*
X141924500Y-105156000D01*
X141924500Y-107448698D01*
X141804288Y-107328486D01*
X141784662Y-107224183D01*
X141726322Y-107133520D01*
X141816500Y-106915810D01*
X141816500Y-106775250D01*
X141657750Y-106616500D01*
X140558500Y-106616500D01*
X140558500Y-106636500D01*
X140304500Y-106636500D01*
X140304500Y-106616500D01*
X139205250Y-106616500D01*
X139046500Y-106775250D01*
X139046500Y-106915810D01*
X139136306Y-107132622D01*
X139085069Y-107207610D01*
X139046900Y-107396094D01*
X138752833Y-107395838D01*
X138409057Y-107537883D01*
X138145808Y-107800673D01*
X138003162Y-108144201D01*
X138003121Y-108191077D01*
X136654698Y-109539500D01*
X136386414Y-109539500D01*
X136428940Y-109329500D01*
X136428940Y-108729500D01*
X136384662Y-108494183D01*
X136320822Y-108394972D01*
X136377931Y-108311390D01*
X136428940Y-108059500D01*
X136428940Y-107459500D01*
X136384662Y-107224183D01*
X136320822Y-107124972D01*
X136377931Y-107041390D01*
X136428940Y-106789500D01*
X136428940Y-106189500D01*
X136405174Y-106063190D01*
X139046500Y-106063190D01*
X139046500Y-106203750D01*
X139205250Y-106362500D01*
X140304500Y-106362500D01*
X140304500Y-105713250D01*
X140558500Y-105713250D01*
X140558500Y-106362500D01*
X141657750Y-106362500D01*
X141816500Y-106203750D01*
X141816500Y-106063190D01*
X141719827Y-105829801D01*
X141541198Y-105651173D01*
X141307809Y-105554500D01*
X140717250Y-105554500D01*
X140558500Y-105713250D01*
X140304500Y-105713250D01*
X140145750Y-105554500D01*
X139555191Y-105554500D01*
X139321802Y-105651173D01*
X139143173Y-105829801D01*
X139046500Y-106063190D01*
X136405174Y-106063190D01*
X136384662Y-105954183D01*
X136245590Y-105738059D01*
X136033390Y-105593069D01*
X135798899Y-105545583D01*
X135935838Y-105215799D01*
X135936162Y-104843833D01*
X135794117Y-104500057D01*
X135531327Y-104236808D01*
X135187799Y-104094162D01*
X134815833Y-104093838D01*
X134472057Y-104235883D01*
X134208808Y-104498673D01*
X134066162Y-104842201D01*
X134065838Y-105214167D01*
X134207104Y-105556059D01*
X134046183Y-105586338D01*
X133830059Y-105725410D01*
X133685069Y-105937610D01*
X133634060Y-106189500D01*
X133634060Y-106789500D01*
X133678338Y-107024817D01*
X133742178Y-107124028D01*
X133685069Y-107207610D01*
X133634060Y-107459500D01*
X133634060Y-108059500D01*
X133678338Y-108294817D01*
X133742178Y-108394028D01*
X133722006Y-108423551D01*
X133567160Y-108454352D01*
X133320599Y-108619099D01*
X133019820Y-108919878D01*
X132974333Y-108919838D01*
X132630557Y-109061883D01*
X132367308Y-109324673D01*
X132224662Y-109668201D01*
X132224338Y-110040167D01*
X132366383Y-110383943D01*
X132629173Y-110647192D01*
X132972701Y-110789838D01*
X133344667Y-110790162D01*
X133646471Y-110665459D01*
X133678338Y-110834817D01*
X133742178Y-110934028D01*
X133685069Y-111017610D01*
X133634060Y-111269500D01*
X133634060Y-111869500D01*
X133678338Y-112104817D01*
X133742178Y-112204028D01*
X133685069Y-112287610D01*
X133634060Y-112539500D01*
X133634060Y-113139500D01*
X133678338Y-113374817D01*
X133742178Y-113474028D01*
X133685069Y-113557610D01*
X133634060Y-113809500D01*
X133634060Y-114409500D01*
X133678338Y-114644817D01*
X133742178Y-114744028D01*
X133685069Y-114827610D01*
X133634060Y-115079500D01*
X133634060Y-115679500D01*
X133678338Y-115914817D01*
X133817410Y-116130941D01*
X134029610Y-116275931D01*
X134281500Y-116326940D01*
X135781500Y-116326940D01*
X135848950Y-116314248D01*
X135289099Y-116874099D01*
X135124352Y-117120661D01*
X135066500Y-117411500D01*
X135066500Y-119265960D01*
X134962900Y-119265960D01*
X134727583Y-119310238D01*
X134511459Y-119449310D01*
X134366469Y-119661510D01*
X134315460Y-119913400D01*
X134315460Y-121640600D01*
X134359738Y-121875917D01*
X134498810Y-122092041D01*
X134711010Y-122237031D01*
X134754631Y-122245864D01*
X134737471Y-122257330D01*
X134412615Y-122743511D01*
X134298541Y-123317000D01*
X134412615Y-123890489D01*
X134522201Y-124054497D01*
X133638099Y-124938599D01*
X133473352Y-125185161D01*
X133415500Y-125476000D01*
X133415500Y-129032000D01*
X133473352Y-129322839D01*
X133638099Y-129569401D01*
X134463599Y-130394901D01*
X134710160Y-130559648D01*
X135001000Y-130617500D01*
X140655198Y-130617500D01*
X141448599Y-131410901D01*
X141695161Y-131575648D01*
X141986000Y-131633500D01*
X146113500Y-131633500D01*
X146404339Y-131575648D01*
X146650901Y-131410901D01*
X147621509Y-130440293D01*
X147704701Y-130474838D01*
X148076667Y-130475162D01*
X148420443Y-130333117D01*
X148517229Y-130236500D01*
X148945437Y-130236500D01*
X149145110Y-130372931D01*
X149397000Y-130423940D01*
X150897000Y-130423940D01*
X151132317Y-130379662D01*
X151348441Y-130240590D01*
X151493431Y-130028390D01*
X151544440Y-129776500D01*
X151544440Y-129176500D01*
X151500162Y-128941183D01*
X151436322Y-128841972D01*
X151493431Y-128758390D01*
X151544440Y-128506500D01*
X151544440Y-127906500D01*
X151500162Y-127671183D01*
X151436322Y-127571972D01*
X151493431Y-127488390D01*
X151544440Y-127236500D01*
X151544440Y-126636500D01*
X151500162Y-126401183D01*
X151436322Y-126301972D01*
X151493431Y-126218390D01*
X151544440Y-125966500D01*
X151544440Y-125366500D01*
X151500162Y-125131183D01*
X151436322Y-125031972D01*
X151493431Y-124948390D01*
X151544440Y-124696500D01*
X151544440Y-124096500D01*
X151500162Y-123861183D01*
X151436322Y-123761972D01*
X151493431Y-123678390D01*
X151544440Y-123426500D01*
X151544440Y-122826500D01*
X151500162Y-122591183D01*
X151436322Y-122491972D01*
X151493431Y-122408390D01*
X151544440Y-122156500D01*
X151544440Y-121556500D01*
X151500162Y-121321183D01*
X151436322Y-121221972D01*
X151493431Y-121138390D01*
X151533556Y-120940246D01*
X152476180Y-119997622D01*
X152521667Y-119997662D01*
X152865443Y-119855617D01*
X153128692Y-119592827D01*
X153271338Y-119249299D01*
X153271662Y-118877333D01*
X153129617Y-118533557D01*
X152866827Y-118270308D01*
X152523299Y-118127662D01*
X152151333Y-118127338D01*
X151807557Y-118269383D01*
X151544308Y-118532173D01*
X151401662Y-118875701D01*
X151401621Y-118922577D01*
X150685138Y-119639060D01*
X149794500Y-119639060D01*
X149794500Y-118155999D01*
X149981667Y-118156162D01*
X150146569Y-118088026D01*
X154602642Y-118088026D01*
X154605291Y-118103791D01*
X154859268Y-118631036D01*
X155295680Y-119020954D01*
X155848087Y-119214184D01*
X156083000Y-119069924D01*
X156083000Y-117856000D01*
X154723783Y-117856000D01*
X154602642Y-118088026D01*
X150146569Y-118088026D01*
X150325443Y-118014117D01*
X150588692Y-117751327D01*
X150731338Y-117407799D01*
X150731662Y-117035833D01*
X150589617Y-116692057D01*
X150556500Y-116658882D01*
X150556500Y-116326940D01*
X150875638Y-116326940D01*
X151464878Y-116916180D01*
X151464838Y-116961667D01*
X151606883Y-117305443D01*
X151869673Y-117568692D01*
X152213201Y-117711338D01*
X152585167Y-117711662D01*
X152928943Y-117569617D01*
X153192192Y-117306827D01*
X153334838Y-116963299D01*
X153335162Y-116591333D01*
X153193117Y-116247557D01*
X152930327Y-115984308D01*
X152586799Y-115841662D01*
X152539923Y-115841621D01*
X152529683Y-115831381D01*
X152560440Y-115679500D01*
X152560440Y-115079500D01*
X152516162Y-114844183D01*
X152452322Y-114744972D01*
X152509431Y-114661390D01*
X152560440Y-114409500D01*
X152560440Y-113809500D01*
X152516162Y-113574183D01*
X152452322Y-113474972D01*
X152509431Y-113391390D01*
X152560440Y-113139500D01*
X152560440Y-112568085D01*
X152648667Y-112568162D01*
X152992443Y-112426117D01*
X153255692Y-112163327D01*
X153398338Y-111819799D01*
X153398662Y-111447833D01*
X153256617Y-111104057D01*
X153119096Y-110966296D01*
X153192192Y-110893327D01*
X153334838Y-110549799D01*
X153335162Y-110177833D01*
X153193117Y-109834057D01*
X153087290Y-109728046D01*
X153192192Y-109623327D01*
X153334838Y-109279799D01*
X153335162Y-108907833D01*
X153205408Y-108593802D01*
X153382692Y-108416827D01*
X153525338Y-108073299D01*
X153525662Y-107701333D01*
X153470210Y-107567129D01*
X153573192Y-107464327D01*
X153715838Y-107120799D01*
X153716162Y-106748833D01*
X153574117Y-106405057D01*
X153311327Y-106141808D01*
X152967799Y-105999162D01*
X152595833Y-105998838D01*
X152529706Y-106026161D01*
X152516162Y-105954183D01*
X152377090Y-105738059D01*
X152164890Y-105593069D01*
X151913000Y-105542060D01*
X150413000Y-105542060D01*
X150177683Y-105586338D01*
X149961559Y-105725410D01*
X149958764Y-105729500D01*
X146964563Y-105729500D01*
X146764890Y-105593069D01*
X146513000Y-105542060D01*
X145013000Y-105542060D01*
X144777683Y-105586338D01*
X144561559Y-105725410D01*
X144416569Y-105937610D01*
X144365560Y-106189500D01*
X144365560Y-106789500D01*
X144409838Y-107024817D01*
X144473678Y-107124028D01*
X144416569Y-107207610D01*
X144365560Y-107459500D01*
X144365560Y-108059500D01*
X144409838Y-108294817D01*
X144473678Y-108394028D01*
X144416569Y-108477610D01*
X144365560Y-108729500D01*
X144365560Y-109261498D01*
X144333500Y-109229382D01*
X144333500Y-105597802D01*
X146426302Y-103505000D01*
X157416500Y-103505000D01*
X157416500Y-106125944D01*
X157294833Y-106125838D01*
X156951057Y-106267883D01*
X156687808Y-106530673D01*
X156545162Y-106874201D01*
X156544838Y-107246167D01*
X156686883Y-107589943D01*
X156949673Y-107853192D01*
X157293201Y-107995838D01*
X157416500Y-107995945D01*
X157416500Y-111176537D01*
X157226000Y-111137960D01*
X155194000Y-111137960D01*
X154958683Y-111182238D01*
X154742559Y-111321310D01*
X154597569Y-111533510D01*
X154546560Y-111785400D01*
X154546560Y-113512600D01*
X154590838Y-113747917D01*
X154729910Y-113964041D01*
X154942110Y-114109031D01*
X154983439Y-114117400D01*
X154965585Y-114129330D01*
X154640729Y-114615511D01*
X154526655Y-115189000D01*
X154640729Y-115762489D01*
X154965585Y-116248670D01*
X155275069Y-116455461D01*
X154859268Y-116826964D01*
X154605291Y-117354209D01*
X154602642Y-117369974D01*
X154723783Y-117602000D01*
X156083000Y-117602000D01*
X156083000Y-117582000D01*
X156337000Y-117582000D01*
X156337000Y-117602000D01*
X156357000Y-117602000D01*
X156357000Y-117856000D01*
X156337000Y-117856000D01*
X156337000Y-119069924D01*
X156571913Y-119214184D01*
X157124320Y-119020954D01*
X157416500Y-118759902D01*
X157416500Y-122225537D01*
X157226000Y-122186960D01*
X155194000Y-122186960D01*
X154958683Y-122231238D01*
X154742559Y-122370310D01*
X154597569Y-122582510D01*
X154546560Y-122834400D01*
X154546560Y-124561600D01*
X154590838Y-124796917D01*
X154729910Y-125013041D01*
X154942110Y-125158031D01*
X154983439Y-125166400D01*
X154965585Y-125178330D01*
X154640729Y-125664511D01*
X154526655Y-126238000D01*
X154640729Y-126811489D01*
X154965585Y-127297670D01*
X155275069Y-127504461D01*
X154859268Y-127875964D01*
X154605291Y-128403209D01*
X154602642Y-128418974D01*
X154723783Y-128651000D01*
X156083000Y-128651000D01*
X156083000Y-128631000D01*
X156337000Y-128631000D01*
X156337000Y-128651000D01*
X156357000Y-128651000D01*
X156357000Y-128905000D01*
X156337000Y-128905000D01*
X156337000Y-130118924D01*
X156571913Y-130263184D01*
X157124320Y-130069954D01*
X157416500Y-129808902D01*
X157416500Y-132080000D01*
X152952301Y-132080000D01*
X152953838Y-132076299D01*
X152953879Y-132029423D01*
X154461401Y-130521901D01*
X154602320Y-130311001D01*
X154716192Y-130197327D01*
X154858838Y-129853799D01*
X154858990Y-129679459D01*
X154859268Y-129680036D01*
X155295680Y-130069954D01*
X155848087Y-130263184D01*
X156083000Y-130118924D01*
X156083000Y-128905000D01*
X154723783Y-128905000D01*
X154641600Y-129062408D01*
X154454327Y-128874808D01*
X154110799Y-128732162D01*
X153738833Y-128731838D01*
X153395057Y-128873883D01*
X153131808Y-129136673D01*
X152989162Y-129480201D01*
X152988844Y-129844854D01*
X151879320Y-130954378D01*
X151833833Y-130954338D01*
X151490057Y-131096383D01*
X151226808Y-131359173D01*
X151084162Y-131702701D01*
X151083838Y-132074667D01*
X151086042Y-132080000D01*
X131826000Y-132080000D01*
X131826000Y-103505000D01*
X142187755Y-103505000D01*
X142344673Y-103662192D01*
X142344673Y-103662192D01*
G37*
X142344673Y-103662192D02*
X142688201Y-103804838D01*
X142960623Y-103805075D01*
X142147099Y-104618599D01*
X141982352Y-104865161D01*
X141924500Y-105156000D01*
X141924500Y-107448698D01*
X141804288Y-107328486D01*
X141784662Y-107224183D01*
X141726322Y-107133520D01*
X141816500Y-106915810D01*
X141816500Y-106775250D01*
X141657750Y-106616500D01*
X140558500Y-106616500D01*
X140558500Y-106636500D01*
X140304500Y-106636500D01*
X140304500Y-106616500D01*
X139205250Y-106616500D01*
X139046500Y-106775250D01*
X139046500Y-106915810D01*
X139136306Y-107132622D01*
X139085069Y-107207610D01*
X139046900Y-107396094D01*
X138752833Y-107395838D01*
X138409057Y-107537883D01*
X138145808Y-107800673D01*
X138003162Y-108144201D01*
X138003121Y-108191077D01*
X136654698Y-109539500D01*
X136386414Y-109539500D01*
X136428940Y-109329500D01*
X136428940Y-108729500D01*
X136384662Y-108494183D01*
X136320822Y-108394972D01*
X136377931Y-108311390D01*
X136428940Y-108059500D01*
X136428940Y-107459500D01*
X136384662Y-107224183D01*
X136320822Y-107124972D01*
X136377931Y-107041390D01*
X136428940Y-106789500D01*
X136428940Y-106189500D01*
X136405174Y-106063190D01*
X139046500Y-106063190D01*
X139046500Y-106203750D01*
X139205250Y-106362500D01*
X140304500Y-106362500D01*
X140304500Y-105713250D01*
X140558500Y-105713250D01*
X140558500Y-106362500D01*
X141657750Y-106362500D01*
X141816500Y-106203750D01*
X141816500Y-106063190D01*
X141719827Y-105829801D01*
X141541198Y-105651173D01*
X141307809Y-105554500D01*
X140717250Y-105554500D01*
X140558500Y-105713250D01*
X140304500Y-105713250D01*
X140145750Y-105554500D01*
X139555191Y-105554500D01*
X139321802Y-105651173D01*
X139143173Y-105829801D01*
X139046500Y-106063190D01*
X136405174Y-106063190D01*
X136384662Y-105954183D01*
X136245590Y-105738059D01*
X136033390Y-105593069D01*
X135798899Y-105545583D01*
X135935838Y-105215799D01*
X135936162Y-104843833D01*
X135794117Y-104500057D01*
X135531327Y-104236808D01*
X135187799Y-104094162D01*
X134815833Y-104093838D01*
X134472057Y-104235883D01*
X134208808Y-104498673D01*
X134066162Y-104842201D01*
X134065838Y-105214167D01*
X134207104Y-105556059D01*
X134046183Y-105586338D01*
X133830059Y-105725410D01*
X133685069Y-105937610D01*
X133634060Y-106189500D01*
X133634060Y-106789500D01*
X133678338Y-107024817D01*
X133742178Y-107124028D01*
X133685069Y-107207610D01*
X133634060Y-107459500D01*
X133634060Y-108059500D01*
X133678338Y-108294817D01*
X133742178Y-108394028D01*
X133722006Y-108423551D01*
X133567160Y-108454352D01*
X133320599Y-108619099D01*
X133019820Y-108919878D01*
X132974333Y-108919838D01*
X132630557Y-109061883D01*
X132367308Y-109324673D01*
X132224662Y-109668201D01*
X132224338Y-110040167D01*
X132366383Y-110383943D01*
X132629173Y-110647192D01*
X132972701Y-110789838D01*
X133344667Y-110790162D01*
X133646471Y-110665459D01*
X133678338Y-110834817D01*
X133742178Y-110934028D01*
X133685069Y-111017610D01*
X133634060Y-111269500D01*
X133634060Y-111869500D01*
X133678338Y-112104817D01*
X133742178Y-112204028D01*
X133685069Y-112287610D01*
X133634060Y-112539500D01*
X133634060Y-113139500D01*
X133678338Y-113374817D01*
X133742178Y-113474028D01*
X133685069Y-113557610D01*
X133634060Y-113809500D01*
X133634060Y-114409500D01*
X133678338Y-114644817D01*
X133742178Y-114744028D01*
X133685069Y-114827610D01*
X133634060Y-115079500D01*
X133634060Y-115679500D01*
X133678338Y-115914817D01*
X133817410Y-116130941D01*
X134029610Y-116275931D01*
X134281500Y-116326940D01*
X135781500Y-116326940D01*
X135848950Y-116314248D01*
X135289099Y-116874099D01*
X135124352Y-117120661D01*
X135066500Y-117411500D01*
X135066500Y-119265960D01*
X134962900Y-119265960D01*
X134727583Y-119310238D01*
X134511459Y-119449310D01*
X134366469Y-119661510D01*
X134315460Y-119913400D01*
X134315460Y-121640600D01*
X134359738Y-121875917D01*
X134498810Y-122092041D01*
X134711010Y-122237031D01*
X134754631Y-122245864D01*
X134737471Y-122257330D01*
X134412615Y-122743511D01*
X134298541Y-123317000D01*
X134412615Y-123890489D01*
X134522201Y-124054497D01*
X133638099Y-124938599D01*
X133473352Y-125185161D01*
X133415500Y-125476000D01*
X133415500Y-129032000D01*
X133473352Y-129322839D01*
X133638099Y-129569401D01*
X134463599Y-130394901D01*
X134710160Y-130559648D01*
X135001000Y-130617500D01*
X140655198Y-130617500D01*
X141448599Y-131410901D01*
X141695161Y-131575648D01*
X141986000Y-131633500D01*
X146113500Y-131633500D01*
X146404339Y-131575648D01*
X146650901Y-131410901D01*
X147621509Y-130440293D01*
X147704701Y-130474838D01*
X148076667Y-130475162D01*
X148420443Y-130333117D01*
X148517229Y-130236500D01*
X148945437Y-130236500D01*
X149145110Y-130372931D01*
X149397000Y-130423940D01*
X150897000Y-130423940D01*
X151132317Y-130379662D01*
X151348441Y-130240590D01*
X151493431Y-130028390D01*
X151544440Y-129776500D01*
X151544440Y-129176500D01*
X151500162Y-128941183D01*
X151436322Y-128841972D01*
X151493431Y-128758390D01*
X151544440Y-128506500D01*
X151544440Y-127906500D01*
X151500162Y-127671183D01*
X151436322Y-127571972D01*
X151493431Y-127488390D01*
X151544440Y-127236500D01*
X151544440Y-126636500D01*
X151500162Y-126401183D01*
X151436322Y-126301972D01*
X151493431Y-126218390D01*
X151544440Y-125966500D01*
X151544440Y-125366500D01*
X151500162Y-125131183D01*
X151436322Y-125031972D01*
X151493431Y-124948390D01*
X151544440Y-124696500D01*
X151544440Y-124096500D01*
X151500162Y-123861183D01*
X151436322Y-123761972D01*
X151493431Y-123678390D01*
X151544440Y-123426500D01*
X151544440Y-122826500D01*
X151500162Y-122591183D01*
X151436322Y-122491972D01*
X151493431Y-122408390D01*
X151544440Y-122156500D01*
X151544440Y-121556500D01*
X151500162Y-121321183D01*
X151436322Y-121221972D01*
X151493431Y-121138390D01*
X151533556Y-120940246D01*
X152476180Y-119997622D01*
X152521667Y-119997662D01*
X152865443Y-119855617D01*
X153128692Y-119592827D01*
X153271338Y-119249299D01*
X153271662Y-118877333D01*
X153129617Y-118533557D01*
X152866827Y-118270308D01*
X152523299Y-118127662D01*
X152151333Y-118127338D01*
X151807557Y-118269383D01*
X151544308Y-118532173D01*
X151401662Y-118875701D01*
X151401621Y-118922577D01*
X150685138Y-119639060D01*
X149794500Y-119639060D01*
X149794500Y-118155999D01*
X149981667Y-118156162D01*
X150146569Y-118088026D01*
X154602642Y-118088026D01*
X154605291Y-118103791D01*
X154859268Y-118631036D01*
X155295680Y-119020954D01*
X155848087Y-119214184D01*
X156083000Y-119069924D01*
X156083000Y-117856000D01*
X154723783Y-117856000D01*
X154602642Y-118088026D01*
X150146569Y-118088026D01*
X150325443Y-118014117D01*
X150588692Y-117751327D01*
X150731338Y-117407799D01*
X150731662Y-117035833D01*
X150589617Y-116692057D01*
X150556500Y-116658882D01*
X150556500Y-116326940D01*
X150875638Y-116326940D01*
X151464878Y-116916180D01*
X151464838Y-116961667D01*
X151606883Y-117305443D01*
X151869673Y-117568692D01*
X152213201Y-117711338D01*
X152585167Y-117711662D01*
X152928943Y-117569617D01*
X153192192Y-117306827D01*
X153334838Y-116963299D01*
X153335162Y-116591333D01*
X153193117Y-116247557D01*
X152930327Y-115984308D01*
X152586799Y-115841662D01*
X152539923Y-115841621D01*
X152529683Y-115831381D01*
X152560440Y-115679500D01*
X152560440Y-115079500D01*
X152516162Y-114844183D01*
X152452322Y-114744972D01*
X152509431Y-114661390D01*
X152560440Y-114409500D01*
X152560440Y-113809500D01*
X152516162Y-113574183D01*
X152452322Y-113474972D01*
X152509431Y-113391390D01*
X152560440Y-113139500D01*
X152560440Y-112568085D01*
X152648667Y-112568162D01*
X152992443Y-112426117D01*
X153255692Y-112163327D01*
X153398338Y-111819799D01*
X153398662Y-111447833D01*
X153256617Y-111104057D01*
X153119096Y-110966296D01*
X153192192Y-110893327D01*
X153334838Y-110549799D01*
X153335162Y-110177833D01*
X153193117Y-109834057D01*
X153087290Y-109728046D01*
X153192192Y-109623327D01*
X153334838Y-109279799D01*
X153335162Y-108907833D01*
X153205408Y-108593802D01*
X153382692Y-108416827D01*
X153525338Y-108073299D01*
X153525662Y-107701333D01*
X153470210Y-107567129D01*
X153573192Y-107464327D01*
X153715838Y-107120799D01*
X153716162Y-106748833D01*
X153574117Y-106405057D01*
X153311327Y-106141808D01*
X152967799Y-105999162D01*
X152595833Y-105998838D01*
X152529706Y-106026161D01*
X152516162Y-105954183D01*
X152377090Y-105738059D01*
X152164890Y-105593069D01*
X151913000Y-105542060D01*
X150413000Y-105542060D01*
X150177683Y-105586338D01*
X149961559Y-105725410D01*
X149958764Y-105729500D01*
X146964563Y-105729500D01*
X146764890Y-105593069D01*
X146513000Y-105542060D01*
X145013000Y-105542060D01*
X144777683Y-105586338D01*
X144561559Y-105725410D01*
X144416569Y-105937610D01*
X144365560Y-106189500D01*
X144365560Y-106789500D01*
X144409838Y-107024817D01*
X144473678Y-107124028D01*
X144416569Y-107207610D01*
X144365560Y-107459500D01*
X144365560Y-108059500D01*
X144409838Y-108294817D01*
X144473678Y-108394028D01*
X144416569Y-108477610D01*
X144365560Y-108729500D01*
X144365560Y-109261498D01*
X144333500Y-109229382D01*
X144333500Y-105597802D01*
X146426302Y-103505000D01*
X157416500Y-103505000D01*
X157416500Y-106125944D01*
X157294833Y-106125838D01*
X156951057Y-106267883D01*
X156687808Y-106530673D01*
X156545162Y-106874201D01*
X156544838Y-107246167D01*
X156686883Y-107589943D01*
X156949673Y-107853192D01*
X157293201Y-107995838D01*
X157416500Y-107995945D01*
X157416500Y-111176537D01*
X157226000Y-111137960D01*
X155194000Y-111137960D01*
X154958683Y-111182238D01*
X154742559Y-111321310D01*
X154597569Y-111533510D01*
X154546560Y-111785400D01*
X154546560Y-113512600D01*
X154590838Y-113747917D01*
X154729910Y-113964041D01*
X154942110Y-114109031D01*
X154983439Y-114117400D01*
X154965585Y-114129330D01*
X154640729Y-114615511D01*
X154526655Y-115189000D01*
X154640729Y-115762489D01*
X154965585Y-116248670D01*
X155275069Y-116455461D01*
X154859268Y-116826964D01*
X154605291Y-117354209D01*
X154602642Y-117369974D01*
X154723783Y-117602000D01*
X156083000Y-117602000D01*
X156083000Y-117582000D01*
X156337000Y-117582000D01*
X156337000Y-117602000D01*
X156357000Y-117602000D01*
X156357000Y-117856000D01*
X156337000Y-117856000D01*
X156337000Y-119069924D01*
X156571913Y-119214184D01*
X157124320Y-119020954D01*
X157416500Y-118759902D01*
X157416500Y-122225537D01*
X157226000Y-122186960D01*
X155194000Y-122186960D01*
X154958683Y-122231238D01*
X154742559Y-122370310D01*
X154597569Y-122582510D01*
X154546560Y-122834400D01*
X154546560Y-124561600D01*
X154590838Y-124796917D01*
X154729910Y-125013041D01*
X154942110Y-125158031D01*
X154983439Y-125166400D01*
X154965585Y-125178330D01*
X154640729Y-125664511D01*
X154526655Y-126238000D01*
X154640729Y-126811489D01*
X154965585Y-127297670D01*
X155275069Y-127504461D01*
X154859268Y-127875964D01*
X154605291Y-128403209D01*
X154602642Y-128418974D01*
X154723783Y-128651000D01*
X156083000Y-128651000D01*
X156083000Y-128631000D01*
X156337000Y-128631000D01*
X156337000Y-128651000D01*
X156357000Y-128651000D01*
X156357000Y-128905000D01*
X156337000Y-128905000D01*
X156337000Y-130118924D01*
X156571913Y-130263184D01*
X157124320Y-130069954D01*
X157416500Y-129808902D01*
X157416500Y-132080000D01*
X152952301Y-132080000D01*
X152953838Y-132076299D01*
X152953879Y-132029423D01*
X154461401Y-130521901D01*
X154602320Y-130311001D01*
X154716192Y-130197327D01*
X154858838Y-129853799D01*
X154858990Y-129679459D01*
X154859268Y-129680036D01*
X155295680Y-130069954D01*
X155848087Y-130263184D01*
X156083000Y-130118924D01*
X156083000Y-128905000D01*
X154723783Y-128905000D01*
X154641600Y-129062408D01*
X154454327Y-128874808D01*
X154110799Y-128732162D01*
X153738833Y-128731838D01*
X153395057Y-128873883D01*
X153131808Y-129136673D01*
X152989162Y-129480201D01*
X152988844Y-129844854D01*
X151879320Y-130954378D01*
X151833833Y-130954338D01*
X151490057Y-131096383D01*
X151226808Y-131359173D01*
X151084162Y-131702701D01*
X151083838Y-132074667D01*
X151086042Y-132080000D01*
X131826000Y-132080000D01*
X131826000Y-103505000D01*
X142187755Y-103505000D01*
X142344673Y-103662192D01*
G36*
X139416599Y-124489401D02*
X143349560Y-128422362D01*
X143349560Y-128506500D01*
X143393838Y-128741817D01*
X143452178Y-128832480D01*
X143362000Y-129050190D01*
X143362000Y-129190750D01*
X143520750Y-129349500D01*
X144620000Y-129349500D01*
X144620000Y-129329500D01*
X144874000Y-129329500D01*
X144874000Y-129349500D01*
X144894000Y-129349500D01*
X144894000Y-129603500D01*
X144874000Y-129603500D01*
X144874000Y-129605500D01*
X144620000Y-129605500D01*
X144620000Y-129603500D01*
X143520750Y-129603500D01*
X143518750Y-129605500D01*
X142745302Y-129605500D01*
X139729401Y-126589599D01*
X139691149Y-126564040D01*
X139780385Y-126430489D01*
X139894459Y-125857000D01*
X139780385Y-125283511D01*
X139455529Y-124797330D01*
X139140748Y-124587000D01*
X139376540Y-124429449D01*
X139416599Y-124489401D01*
X139416599Y-124489401D01*
G37*
X139416599Y-124489401D02*
X143349560Y-128422362D01*
X143349560Y-128506500D01*
X143393838Y-128741817D01*
X143452178Y-128832480D01*
X143362000Y-129050190D01*
X143362000Y-129190750D01*
X143520750Y-129349500D01*
X144620000Y-129349500D01*
X144620000Y-129329500D01*
X144874000Y-129329500D01*
X144874000Y-129349500D01*
X144894000Y-129349500D01*
X144894000Y-129603500D01*
X144874000Y-129603500D01*
X144874000Y-129605500D01*
X144620000Y-129605500D01*
X144620000Y-129603500D01*
X143520750Y-129603500D01*
X143518750Y-129605500D01*
X142745302Y-129605500D01*
X139729401Y-126589599D01*
X139691149Y-126564040D01*
X139780385Y-126430489D01*
X139894459Y-125857000D01*
X139780385Y-125283511D01*
X139455529Y-124797330D01*
X139140748Y-124587000D01*
X139376540Y-124429449D01*
X139416599Y-124489401D01*
G36*
X145890000Y-115252500D02*
X145910000Y-115252500D01*
X145910000Y-115506500D01*
X145890000Y-115506500D01*
X145890000Y-116155750D01*
X146048750Y-116314500D01*
X146639309Y-116314500D01*
X146750500Y-116268443D01*
X146750500Y-118180198D01*
X144883466Y-116313164D01*
X144886691Y-116314500D01*
X145477250Y-116314500D01*
X145636000Y-116155750D01*
X145636000Y-115506500D01*
X145616000Y-115506500D01*
X145616000Y-115252500D01*
X145636000Y-115252500D01*
X145636000Y-115232500D01*
X145890000Y-115232500D01*
X145890000Y-115252500D01*
X145890000Y-115252500D01*
G37*
X145890000Y-115252500D02*
X145910000Y-115252500D01*
X145910000Y-115506500D01*
X145890000Y-115506500D01*
X145890000Y-116155750D01*
X146048750Y-116314500D01*
X146639309Y-116314500D01*
X146750500Y-116268443D01*
X146750500Y-118180198D01*
X144883466Y-116313164D01*
X144886691Y-116314500D01*
X145477250Y-116314500D01*
X145636000Y-116155750D01*
X145636000Y-115506500D01*
X145616000Y-115506500D01*
X145616000Y-115252500D01*
X145636000Y-115252500D01*
X145636000Y-115232500D01*
X145890000Y-115232500D01*
X145890000Y-115252500D01*
G36*
X166705162Y-86935201D02*
X166704838Y-87307167D01*
X166846883Y-87650943D01*
X166880000Y-87684118D01*
X166880000Y-90877537D01*
X166847808Y-90909673D01*
X166705162Y-91253201D01*
X166704838Y-91625167D01*
X166846883Y-91968943D01*
X167109673Y-92232192D01*
X167453201Y-92374838D01*
X167825167Y-92375162D01*
X168168943Y-92233117D01*
X168432192Y-91970327D01*
X168574838Y-91626799D01*
X168575162Y-91254833D01*
X168433117Y-90911057D01*
X168400000Y-90877882D01*
X168400000Y-87684463D01*
X168432192Y-87652327D01*
X168574838Y-87308799D01*
X168575162Y-86936833D01*
X168520483Y-86804500D01*
X180276500Y-86804500D01*
X180276500Y-132080000D01*
X158686500Y-132080000D01*
X158686500Y-126296802D01*
X158804737Y-126178565D01*
X158886941Y-126591829D01*
X159195278Y-127053289D01*
X159590699Y-127317500D01*
X159195278Y-127581711D01*
X158886941Y-128043171D01*
X158778667Y-128587500D01*
X158886941Y-129131829D01*
X159195278Y-129593289D01*
X159656738Y-129901626D01*
X160201067Y-130009900D01*
X160981933Y-130009900D01*
X161526262Y-129901626D01*
X161987722Y-129593289D01*
X162296059Y-129131829D01*
X162404333Y-128587500D01*
X162296059Y-128043171D01*
X161987722Y-127581711D01*
X161592301Y-127317500D01*
X161987722Y-127053289D01*
X162296059Y-126591829D01*
X162404333Y-126047500D01*
X162296059Y-125503171D01*
X162201633Y-125361852D01*
X162271901Y-125314901D01*
X162689000Y-124897802D01*
X162689000Y-125031500D01*
X162746852Y-125322339D01*
X162911599Y-125568901D01*
X165261099Y-127918401D01*
X165507661Y-128083148D01*
X165586860Y-128098902D01*
X165477041Y-128651000D01*
X165591115Y-129224489D01*
X165915971Y-129710670D01*
X166402152Y-130035526D01*
X166975641Y-130149600D01*
X167034359Y-130149600D01*
X167607848Y-130035526D01*
X168094029Y-129710670D01*
X168274992Y-129439839D01*
X168656510Y-129857821D01*
X169185973Y-130105968D01*
X169418000Y-129985469D01*
X169418000Y-128778000D01*
X169672000Y-128778000D01*
X169672000Y-129985469D01*
X169904027Y-130105968D01*
X170433490Y-129857821D01*
X170827688Y-129425947D01*
X170999958Y-129010026D01*
X170878817Y-128778000D01*
X169672000Y-128778000D01*
X169418000Y-128778000D01*
X169398000Y-128778000D01*
X169398000Y-128524000D01*
X169418000Y-128524000D01*
X169418000Y-128504000D01*
X169672000Y-128504000D01*
X169672000Y-128524000D01*
X170878817Y-128524000D01*
X170999958Y-128291974D01*
X170827688Y-127876053D01*
X170825570Y-127873732D01*
X171542901Y-127156401D01*
X171707648Y-126909839D01*
X171765500Y-126619000D01*
X171765500Y-125285500D01*
X171707648Y-124994661D01*
X171542901Y-124748099D01*
X170951037Y-124156235D01*
X170958885Y-124144489D01*
X171072959Y-123571000D01*
X170958885Y-122997511D01*
X170869649Y-122863960D01*
X170907901Y-122838401D01*
X174336901Y-119409401D01*
X174378109Y-119347729D01*
X174435278Y-119433289D01*
X174830699Y-119697500D01*
X174435278Y-119961711D01*
X174126941Y-120423171D01*
X174018667Y-120967500D01*
X174126941Y-121511829D01*
X174435278Y-121973289D01*
X174830699Y-122237500D01*
X174435278Y-122501711D01*
X174126941Y-122963171D01*
X174018667Y-123507500D01*
X174126941Y-124051829D01*
X174435278Y-124513289D01*
X174830699Y-124777500D01*
X174435278Y-125041711D01*
X174126941Y-125503171D01*
X174018667Y-126047500D01*
X174126941Y-126591829D01*
X174435278Y-127053289D01*
X174830699Y-127317500D01*
X174435278Y-127581711D01*
X174126941Y-128043171D01*
X174018667Y-128587500D01*
X174126941Y-129131829D01*
X174435278Y-129593289D01*
X174896738Y-129901626D01*
X175441067Y-130009900D01*
X176221933Y-130009900D01*
X176766262Y-129901626D01*
X177227722Y-129593289D01*
X177536059Y-129131829D01*
X177644333Y-128587500D01*
X177536059Y-128043171D01*
X177227722Y-127581711D01*
X176832301Y-127317500D01*
X177227722Y-127053289D01*
X177536059Y-126591829D01*
X177644333Y-126047500D01*
X177536059Y-125503171D01*
X177227722Y-125041711D01*
X176832301Y-124777500D01*
X177227722Y-124513289D01*
X177536059Y-124051829D01*
X177644333Y-123507500D01*
X177536059Y-122963171D01*
X177227722Y-122501711D01*
X176832301Y-122237500D01*
X177227722Y-121973289D01*
X177536059Y-121511829D01*
X177644333Y-120967500D01*
X177536059Y-120423171D01*
X177227722Y-119961711D01*
X176832301Y-119697500D01*
X177227722Y-119433289D01*
X177536059Y-118971829D01*
X177644333Y-118427500D01*
X177536059Y-117883171D01*
X177227722Y-117421711D01*
X176832301Y-117157500D01*
X177227722Y-116893289D01*
X177381004Y-116663885D01*
X177460173Y-116743192D01*
X177803701Y-116885838D01*
X178175667Y-116886162D01*
X178519443Y-116744117D01*
X178782692Y-116481327D01*
X178925338Y-116137799D01*
X178925662Y-115765833D01*
X178783617Y-115422057D01*
X178750500Y-115388882D01*
X178750500Y-107950000D01*
X178692648Y-107659161D01*
X178527901Y-107412599D01*
X177476407Y-106361105D01*
X177536059Y-106271829D01*
X177644333Y-105727500D01*
X177536059Y-105183171D01*
X177227722Y-104721711D01*
X176832301Y-104457500D01*
X177227722Y-104193289D01*
X177536059Y-103731829D01*
X177644333Y-103187500D01*
X177536059Y-102643171D01*
X177227722Y-102181711D01*
X176832301Y-101917500D01*
X177227722Y-101653289D01*
X177536059Y-101191829D01*
X177644333Y-100647500D01*
X177536059Y-100103171D01*
X177227722Y-99641711D01*
X176832301Y-99377500D01*
X177227722Y-99113289D01*
X177536059Y-98651829D01*
X177644333Y-98107500D01*
X177536059Y-97563171D01*
X177227722Y-97101711D01*
X176832301Y-96837500D01*
X177227722Y-96573289D01*
X177536059Y-96111829D01*
X177644333Y-95567500D01*
X177536059Y-95023171D01*
X177227722Y-94561711D01*
X176832301Y-94297500D01*
X177227722Y-94033289D01*
X177536059Y-93571829D01*
X177644333Y-93027500D01*
X177536059Y-92483171D01*
X177227722Y-92021711D01*
X176766262Y-91713374D01*
X176221933Y-91605100D01*
X175441067Y-91605100D01*
X174896738Y-91713374D01*
X174435278Y-92021711D01*
X174126941Y-92483171D01*
X174018667Y-93027500D01*
X174126941Y-93571829D01*
X174435278Y-94033289D01*
X174830699Y-94297500D01*
X174435278Y-94561711D01*
X174271047Y-94807500D01*
X166875302Y-94807500D01*
X160017651Y-87949849D01*
X159771089Y-87785102D01*
X159480250Y-87727250D01*
X149003617Y-87727250D01*
X148844000Y-87695500D01*
X148553160Y-87753352D01*
X148306599Y-87918099D01*
X145338820Y-90885878D01*
X145293333Y-90885838D01*
X144949557Y-91027883D01*
X144686308Y-91290673D01*
X144543662Y-91634201D01*
X144543338Y-92006167D01*
X144685383Y-92349943D01*
X144718500Y-92383118D01*
X144718500Y-102047198D01*
X144437164Y-102328534D01*
X143653763Y-102326678D01*
X143405327Y-102077808D01*
X143061799Y-101935162D01*
X143014923Y-101935121D01*
X142619000Y-101539198D01*
X142619000Y-99431963D01*
X142651192Y-99399827D01*
X142793838Y-99056299D01*
X142794162Y-98684333D01*
X142652117Y-98340557D01*
X142389327Y-98077308D01*
X142113781Y-97962891D01*
X142425167Y-97963162D01*
X142768943Y-97821117D01*
X143032192Y-97558327D01*
X143174838Y-97214799D01*
X143175162Y-96842833D01*
X143033117Y-96499057D01*
X142770327Y-96235808D01*
X142426799Y-96093162D01*
X142379923Y-96093121D01*
X142365000Y-96078198D01*
X142365000Y-89278302D01*
X142506680Y-89136622D01*
X142552167Y-89136662D01*
X142895943Y-88994617D01*
X143159192Y-88731827D01*
X143301838Y-88388299D01*
X143302162Y-88016333D01*
X143160117Y-87672557D01*
X142897327Y-87409308D01*
X142553799Y-87266662D01*
X142181833Y-87266338D01*
X141838057Y-87408383D01*
X141574808Y-87671173D01*
X141432162Y-88014701D01*
X141432121Y-88061577D01*
X141067599Y-88426099D01*
X140902852Y-88672661D01*
X140845000Y-88963500D01*
X140845000Y-96393000D01*
X140902852Y-96683839D01*
X141067599Y-96930401D01*
X141304878Y-97167680D01*
X141304838Y-97213167D01*
X141446883Y-97556943D01*
X141709673Y-97820192D01*
X141985219Y-97934609D01*
X141673833Y-97934338D01*
X141330057Y-98076383D01*
X141066808Y-98339173D01*
X140924162Y-98682701D01*
X140923838Y-99054667D01*
X141065883Y-99398443D01*
X141099000Y-99431618D01*
X141099000Y-101854000D01*
X141156852Y-102144839D01*
X141274585Y-102321040D01*
X138979700Y-102315602D01*
X139602401Y-101692901D01*
X139767148Y-101446339D01*
X139825000Y-101155500D01*
X139825000Y-100530020D01*
X140154029Y-100310170D01*
X140478885Y-99823989D01*
X140592959Y-99250500D01*
X140478885Y-98677011D01*
X140154029Y-98190830D01*
X139830772Y-97974836D01*
X139953490Y-97917321D01*
X140347688Y-97485447D01*
X140519958Y-97069526D01*
X140398817Y-96837500D01*
X139192000Y-96837500D01*
X139192000Y-96857500D01*
X138938000Y-96857500D01*
X138938000Y-96837500D01*
X138918000Y-96837500D01*
X138918000Y-96583500D01*
X138938000Y-96583500D01*
X138938000Y-96563500D01*
X139192000Y-96563500D01*
X139192000Y-96583500D01*
X140398817Y-96583500D01*
X140519958Y-96351474D01*
X140347688Y-95935553D01*
X139953490Y-95503679D01*
X139830772Y-95446164D01*
X140154029Y-95230170D01*
X140478885Y-94743989D01*
X140592959Y-94170500D01*
X140478885Y-93597011D01*
X140154029Y-93110830D01*
X139839248Y-92900500D01*
X140154029Y-92690170D01*
X140478885Y-92203989D01*
X140592959Y-91630500D01*
X140478885Y-91057011D01*
X140154029Y-90570830D01*
X139667848Y-90245974D01*
X139094359Y-90131900D01*
X139035641Y-90131900D01*
X138462152Y-90245974D01*
X137996558Y-90557074D01*
X137991762Y-90531583D01*
X137852690Y-90315459D01*
X137640490Y-90170469D01*
X137388600Y-90119460D01*
X135661400Y-90119460D01*
X135426083Y-90163738D01*
X135209959Y-90302810D01*
X135064969Y-90515010D01*
X135013960Y-90766900D01*
X135013960Y-92494100D01*
X135058238Y-92729417D01*
X135197310Y-92945541D01*
X135409510Y-93090531D01*
X135453131Y-93099364D01*
X135435971Y-93110830D01*
X135111115Y-93597011D01*
X134997041Y-94170500D01*
X135111115Y-94743989D01*
X135435971Y-95230170D01*
X135750752Y-95440500D01*
X135435971Y-95650830D01*
X135111115Y-96137011D01*
X134997041Y-96710500D01*
X135111115Y-97283989D01*
X135435971Y-97770170D01*
X135759228Y-97986164D01*
X135636510Y-98043679D01*
X135242312Y-98475553D01*
X135070042Y-98891474D01*
X135191183Y-99123500D01*
X136398000Y-99123500D01*
X136398000Y-99103500D01*
X136652000Y-99103500D01*
X136652000Y-99123500D01*
X136672000Y-99123500D01*
X136672000Y-99377500D01*
X136652000Y-99377500D01*
X136652000Y-100584969D01*
X136884027Y-100705468D01*
X137413490Y-100457321D01*
X137795008Y-100039339D01*
X137975971Y-100310170D01*
X138305000Y-100530020D01*
X138305000Y-100840698D01*
X137718820Y-101426878D01*
X137673333Y-101426838D01*
X137329557Y-101568883D01*
X137066308Y-101831673D01*
X136923662Y-102175201D01*
X136923544Y-102310729D01*
X131888482Y-102298798D01*
X131866795Y-99609526D01*
X135070042Y-99609526D01*
X135242312Y-100025447D01*
X135636510Y-100457321D01*
X136165973Y-100705468D01*
X136398000Y-100584969D01*
X136398000Y-99377500D01*
X135191183Y-99377500D01*
X135070042Y-99609526D01*
X131866795Y-99609526D01*
X131763528Y-86804500D01*
X166759434Y-86804500D01*
X166705162Y-86935201D01*
X166705162Y-86935201D01*
G37*
X166705162Y-86935201D02*
X166704838Y-87307167D01*
X166846883Y-87650943D01*
X166880000Y-87684118D01*
X166880000Y-90877537D01*
X166847808Y-90909673D01*
X166705162Y-91253201D01*
X166704838Y-91625167D01*
X166846883Y-91968943D01*
X167109673Y-92232192D01*
X167453201Y-92374838D01*
X167825167Y-92375162D01*
X168168943Y-92233117D01*
X168432192Y-91970327D01*
X168574838Y-91626799D01*
X168575162Y-91254833D01*
X168433117Y-90911057D01*
X168400000Y-90877882D01*
X168400000Y-87684463D01*
X168432192Y-87652327D01*
X168574838Y-87308799D01*
X168575162Y-86936833D01*
X168520483Y-86804500D01*
X180276500Y-86804500D01*
X180276500Y-132080000D01*
X158686500Y-132080000D01*
X158686500Y-126296802D01*
X158804737Y-126178565D01*
X158886941Y-126591829D01*
X159195278Y-127053289D01*
X159590699Y-127317500D01*
X159195278Y-127581711D01*
X158886941Y-128043171D01*
X158778667Y-128587500D01*
X158886941Y-129131829D01*
X159195278Y-129593289D01*
X159656738Y-129901626D01*
X160201067Y-130009900D01*
X160981933Y-130009900D01*
X161526262Y-129901626D01*
X161987722Y-129593289D01*
X162296059Y-129131829D01*
X162404333Y-128587500D01*
X162296059Y-128043171D01*
X161987722Y-127581711D01*
X161592301Y-127317500D01*
X161987722Y-127053289D01*
X162296059Y-126591829D01*
X162404333Y-126047500D01*
X162296059Y-125503171D01*
X162201633Y-125361852D01*
X162271901Y-125314901D01*
X162689000Y-124897802D01*
X162689000Y-125031500D01*
X162746852Y-125322339D01*
X162911599Y-125568901D01*
X165261099Y-127918401D01*
X165507661Y-128083148D01*
X165586860Y-128098902D01*
X165477041Y-128651000D01*
X165591115Y-129224489D01*
X165915971Y-129710670D01*
X166402152Y-130035526D01*
X166975641Y-130149600D01*
X167034359Y-130149600D01*
X167607848Y-130035526D01*
X168094029Y-129710670D01*
X168274992Y-129439839D01*
X168656510Y-129857821D01*
X169185973Y-130105968D01*
X169418000Y-129985469D01*
X169418000Y-128778000D01*
X169672000Y-128778000D01*
X169672000Y-129985469D01*
X169904027Y-130105968D01*
X170433490Y-129857821D01*
X170827688Y-129425947D01*
X170999958Y-129010026D01*
X170878817Y-128778000D01*
X169672000Y-128778000D01*
X169418000Y-128778000D01*
X169398000Y-128778000D01*
X169398000Y-128524000D01*
X169418000Y-128524000D01*
X169418000Y-128504000D01*
X169672000Y-128504000D01*
X169672000Y-128524000D01*
X170878817Y-128524000D01*
X170999958Y-128291974D01*
X170827688Y-127876053D01*
X170825570Y-127873732D01*
X171542901Y-127156401D01*
X171707648Y-126909839D01*
X171765500Y-126619000D01*
X171765500Y-125285500D01*
X171707648Y-124994661D01*
X171542901Y-124748099D01*
X170951037Y-124156235D01*
X170958885Y-124144489D01*
X171072959Y-123571000D01*
X170958885Y-122997511D01*
X170869649Y-122863960D01*
X170907901Y-122838401D01*
X174336901Y-119409401D01*
X174378109Y-119347729D01*
X174435278Y-119433289D01*
X174830699Y-119697500D01*
X174435278Y-119961711D01*
X174126941Y-120423171D01*
X174018667Y-120967500D01*
X174126941Y-121511829D01*
X174435278Y-121973289D01*
X174830699Y-122237500D01*
X174435278Y-122501711D01*
X174126941Y-122963171D01*
X174018667Y-123507500D01*
X174126941Y-124051829D01*
X174435278Y-124513289D01*
X174830699Y-124777500D01*
X174435278Y-125041711D01*
X174126941Y-125503171D01*
X174018667Y-126047500D01*
X174126941Y-126591829D01*
X174435278Y-127053289D01*
X174830699Y-127317500D01*
X174435278Y-127581711D01*
X174126941Y-128043171D01*
X174018667Y-128587500D01*
X174126941Y-129131829D01*
X174435278Y-129593289D01*
X174896738Y-129901626D01*
X175441067Y-130009900D01*
X176221933Y-130009900D01*
X176766262Y-129901626D01*
X177227722Y-129593289D01*
X177536059Y-129131829D01*
X177644333Y-128587500D01*
X177536059Y-128043171D01*
X177227722Y-127581711D01*
X176832301Y-127317500D01*
X177227722Y-127053289D01*
X177536059Y-126591829D01*
X177644333Y-126047500D01*
X177536059Y-125503171D01*
X177227722Y-125041711D01*
X176832301Y-124777500D01*
X177227722Y-124513289D01*
X177536059Y-124051829D01*
X177644333Y-123507500D01*
X177536059Y-122963171D01*
X177227722Y-122501711D01*
X176832301Y-122237500D01*
X177227722Y-121973289D01*
X177536059Y-121511829D01*
X177644333Y-120967500D01*
X177536059Y-120423171D01*
X177227722Y-119961711D01*
X176832301Y-119697500D01*
X177227722Y-119433289D01*
X177536059Y-118971829D01*
X177644333Y-118427500D01*
X177536059Y-117883171D01*
X177227722Y-117421711D01*
X176832301Y-117157500D01*
X177227722Y-116893289D01*
X177381004Y-116663885D01*
X177460173Y-116743192D01*
X177803701Y-116885838D01*
X178175667Y-116886162D01*
X178519443Y-116744117D01*
X178782692Y-116481327D01*
X178925338Y-116137799D01*
X178925662Y-115765833D01*
X178783617Y-115422057D01*
X178750500Y-115388882D01*
X178750500Y-107950000D01*
X178692648Y-107659161D01*
X178527901Y-107412599D01*
X177476407Y-106361105D01*
X177536059Y-106271829D01*
X177644333Y-105727500D01*
X177536059Y-105183171D01*
X177227722Y-104721711D01*
X176832301Y-104457500D01*
X177227722Y-104193289D01*
X177536059Y-103731829D01*
X177644333Y-103187500D01*
X177536059Y-102643171D01*
X177227722Y-102181711D01*
X176832301Y-101917500D01*
X177227722Y-101653289D01*
X177536059Y-101191829D01*
X177644333Y-100647500D01*
X177536059Y-100103171D01*
X177227722Y-99641711D01*
X176832301Y-99377500D01*
X177227722Y-99113289D01*
X177536059Y-98651829D01*
X177644333Y-98107500D01*
X177536059Y-97563171D01*
X177227722Y-97101711D01*
X176832301Y-96837500D01*
X177227722Y-96573289D01*
X177536059Y-96111829D01*
X177644333Y-95567500D01*
X177536059Y-95023171D01*
X177227722Y-94561711D01*
X176832301Y-94297500D01*
X177227722Y-94033289D01*
X177536059Y-93571829D01*
X177644333Y-93027500D01*
X177536059Y-92483171D01*
X177227722Y-92021711D01*
X176766262Y-91713374D01*
X176221933Y-91605100D01*
X175441067Y-91605100D01*
X174896738Y-91713374D01*
X174435278Y-92021711D01*
X174126941Y-92483171D01*
X174018667Y-93027500D01*
X174126941Y-93571829D01*
X174435278Y-94033289D01*
X174830699Y-94297500D01*
X174435278Y-94561711D01*
X174271047Y-94807500D01*
X166875302Y-94807500D01*
X160017651Y-87949849D01*
X159771089Y-87785102D01*
X159480250Y-87727250D01*
X149003617Y-87727250D01*
X148844000Y-87695500D01*
X148553160Y-87753352D01*
X148306599Y-87918099D01*
X145338820Y-90885878D01*
X145293333Y-90885838D01*
X144949557Y-91027883D01*
X144686308Y-91290673D01*
X144543662Y-91634201D01*
X144543338Y-92006167D01*
X144685383Y-92349943D01*
X144718500Y-92383118D01*
X144718500Y-102047198D01*
X144437164Y-102328534D01*
X143653763Y-102326678D01*
X143405327Y-102077808D01*
X143061799Y-101935162D01*
X143014923Y-101935121D01*
X142619000Y-101539198D01*
X142619000Y-99431963D01*
X142651192Y-99399827D01*
X142793838Y-99056299D01*
X142794162Y-98684333D01*
X142652117Y-98340557D01*
X142389327Y-98077308D01*
X142113781Y-97962891D01*
X142425167Y-97963162D01*
X142768943Y-97821117D01*
X143032192Y-97558327D01*
X143174838Y-97214799D01*
X143175162Y-96842833D01*
X143033117Y-96499057D01*
X142770327Y-96235808D01*
X142426799Y-96093162D01*
X142379923Y-96093121D01*
X142365000Y-96078198D01*
X142365000Y-89278302D01*
X142506680Y-89136622D01*
X142552167Y-89136662D01*
X142895943Y-88994617D01*
X143159192Y-88731827D01*
X143301838Y-88388299D01*
X143302162Y-88016333D01*
X143160117Y-87672557D01*
X142897327Y-87409308D01*
X142553799Y-87266662D01*
X142181833Y-87266338D01*
X141838057Y-87408383D01*
X141574808Y-87671173D01*
X141432162Y-88014701D01*
X141432121Y-88061577D01*
X141067599Y-88426099D01*
X140902852Y-88672661D01*
X140845000Y-88963500D01*
X140845000Y-96393000D01*
X140902852Y-96683839D01*
X141067599Y-96930401D01*
X141304878Y-97167680D01*
X141304838Y-97213167D01*
X141446883Y-97556943D01*
X141709673Y-97820192D01*
X141985219Y-97934609D01*
X141673833Y-97934338D01*
X141330057Y-98076383D01*
X141066808Y-98339173D01*
X140924162Y-98682701D01*
X140923838Y-99054667D01*
X141065883Y-99398443D01*
X141099000Y-99431618D01*
X141099000Y-101854000D01*
X141156852Y-102144839D01*
X141274585Y-102321040D01*
X138979700Y-102315602D01*
X139602401Y-101692901D01*
X139767148Y-101446339D01*
X139825000Y-101155500D01*
X139825000Y-100530020D01*
X140154029Y-100310170D01*
X140478885Y-99823989D01*
X140592959Y-99250500D01*
X140478885Y-98677011D01*
X140154029Y-98190830D01*
X139830772Y-97974836D01*
X139953490Y-97917321D01*
X140347688Y-97485447D01*
X140519958Y-97069526D01*
X140398817Y-96837500D01*
X139192000Y-96837500D01*
X139192000Y-96857500D01*
X138938000Y-96857500D01*
X138938000Y-96837500D01*
X138918000Y-96837500D01*
X138918000Y-96583500D01*
X138938000Y-96583500D01*
X138938000Y-96563500D01*
X139192000Y-96563500D01*
X139192000Y-96583500D01*
X140398817Y-96583500D01*
X140519958Y-96351474D01*
X140347688Y-95935553D01*
X139953490Y-95503679D01*
X139830772Y-95446164D01*
X140154029Y-95230170D01*
X140478885Y-94743989D01*
X140592959Y-94170500D01*
X140478885Y-93597011D01*
X140154029Y-93110830D01*
X139839248Y-92900500D01*
X140154029Y-92690170D01*
X140478885Y-92203989D01*
X140592959Y-91630500D01*
X140478885Y-91057011D01*
X140154029Y-90570830D01*
X139667848Y-90245974D01*
X139094359Y-90131900D01*
X139035641Y-90131900D01*
X138462152Y-90245974D01*
X137996558Y-90557074D01*
X137991762Y-90531583D01*
X137852690Y-90315459D01*
X137640490Y-90170469D01*
X137388600Y-90119460D01*
X135661400Y-90119460D01*
X135426083Y-90163738D01*
X135209959Y-90302810D01*
X135064969Y-90515010D01*
X135013960Y-90766900D01*
X135013960Y-92494100D01*
X135058238Y-92729417D01*
X135197310Y-92945541D01*
X135409510Y-93090531D01*
X135453131Y-93099364D01*
X135435971Y-93110830D01*
X135111115Y-93597011D01*
X134997041Y-94170500D01*
X135111115Y-94743989D01*
X135435971Y-95230170D01*
X135750752Y-95440500D01*
X135435971Y-95650830D01*
X135111115Y-96137011D01*
X134997041Y-96710500D01*
X135111115Y-97283989D01*
X135435971Y-97770170D01*
X135759228Y-97986164D01*
X135636510Y-98043679D01*
X135242312Y-98475553D01*
X135070042Y-98891474D01*
X135191183Y-99123500D01*
X136398000Y-99123500D01*
X136398000Y-99103500D01*
X136652000Y-99103500D01*
X136652000Y-99123500D01*
X136672000Y-99123500D01*
X136672000Y-99377500D01*
X136652000Y-99377500D01*
X136652000Y-100584969D01*
X136884027Y-100705468D01*
X137413490Y-100457321D01*
X137795008Y-100039339D01*
X137975971Y-100310170D01*
X138305000Y-100530020D01*
X138305000Y-100840698D01*
X137718820Y-101426878D01*
X137673333Y-101426838D01*
X137329557Y-101568883D01*
X137066308Y-101831673D01*
X136923662Y-102175201D01*
X136923544Y-102310729D01*
X131888482Y-102298798D01*
X131866795Y-99609526D01*
X135070042Y-99609526D01*
X135242312Y-100025447D01*
X135636510Y-100457321D01*
X136165973Y-100705468D01*
X136398000Y-100584969D01*
X136398000Y-99377500D01*
X135191183Y-99377500D01*
X135070042Y-99609526D01*
X131866795Y-99609526D01*
X131763528Y-86804500D01*
X166759434Y-86804500D01*
X166705162Y-86935201D01*
G36*
X166150099Y-103724901D02*
X166396660Y-103889648D01*
X166687500Y-103947500D01*
X174271047Y-103947500D01*
X174435278Y-104193289D01*
X174830699Y-104457500D01*
X174435278Y-104721711D01*
X174126941Y-105183171D01*
X174018667Y-105727500D01*
X174126941Y-106271829D01*
X174435278Y-106733289D01*
X174830699Y-106997500D01*
X174435278Y-107261711D01*
X174255726Y-107530429D01*
X174080160Y-107565352D01*
X173833599Y-107730099D01*
X171992099Y-109571599D01*
X171827352Y-109818161D01*
X171769500Y-110109000D01*
X171769500Y-114937698D01*
X171020405Y-115686793D01*
X170958885Y-115377511D01*
X170634029Y-114891330D01*
X170319248Y-114681000D01*
X170634029Y-114470670D01*
X170958885Y-113984489D01*
X171072959Y-113411000D01*
X170958885Y-112837511D01*
X170634029Y-112351330D01*
X170319248Y-112141000D01*
X170634029Y-111930670D01*
X170958885Y-111444489D01*
X171072959Y-110871000D01*
X170958885Y-110297511D01*
X170634029Y-109811330D01*
X170612977Y-109797263D01*
X170768298Y-109732927D01*
X170946927Y-109554299D01*
X171043600Y-109320910D01*
X171043600Y-108616750D01*
X170884850Y-108458000D01*
X169672000Y-108458000D01*
X169672000Y-108478000D01*
X169418000Y-108478000D01*
X169418000Y-108458000D01*
X169398000Y-108458000D01*
X169398000Y-108204000D01*
X169418000Y-108204000D01*
X169418000Y-106991150D01*
X169672000Y-106991150D01*
X169672000Y-108204000D01*
X170884850Y-108204000D01*
X171043600Y-108045250D01*
X171043600Y-107341090D01*
X170946927Y-107107701D01*
X170768298Y-106929073D01*
X170534909Y-106832400D01*
X169830750Y-106832400D01*
X169672000Y-106991150D01*
X169418000Y-106991150D01*
X169259250Y-106832400D01*
X168555091Y-106832400D01*
X168321702Y-106929073D01*
X168143073Y-107107701D01*
X168079356Y-107261526D01*
X167607848Y-106946474D01*
X167034359Y-106832400D01*
X166975641Y-106832400D01*
X166402152Y-106946474D01*
X165915971Y-107271330D01*
X165860000Y-107355096D01*
X165860000Y-107061000D01*
X165802148Y-106770161D01*
X165637401Y-106523599D01*
X163828000Y-104714198D01*
X163828000Y-101600000D01*
X163779035Y-101353837D01*
X166150099Y-103724901D01*
X166150099Y-103724901D01*
G37*
X166150099Y-103724901D02*
X166396660Y-103889648D01*
X166687500Y-103947500D01*
X174271047Y-103947500D01*
X174435278Y-104193289D01*
X174830699Y-104457500D01*
X174435278Y-104721711D01*
X174126941Y-105183171D01*
X174018667Y-105727500D01*
X174126941Y-106271829D01*
X174435278Y-106733289D01*
X174830699Y-106997500D01*
X174435278Y-107261711D01*
X174255726Y-107530429D01*
X174080160Y-107565352D01*
X173833599Y-107730099D01*
X171992099Y-109571599D01*
X171827352Y-109818161D01*
X171769500Y-110109000D01*
X171769500Y-114937698D01*
X171020405Y-115686793D01*
X170958885Y-115377511D01*
X170634029Y-114891330D01*
X170319248Y-114681000D01*
X170634029Y-114470670D01*
X170958885Y-113984489D01*
X171072959Y-113411000D01*
X170958885Y-112837511D01*
X170634029Y-112351330D01*
X170319248Y-112141000D01*
X170634029Y-111930670D01*
X170958885Y-111444489D01*
X171072959Y-110871000D01*
X170958885Y-110297511D01*
X170634029Y-109811330D01*
X170612977Y-109797263D01*
X170768298Y-109732927D01*
X170946927Y-109554299D01*
X171043600Y-109320910D01*
X171043600Y-108616750D01*
X170884850Y-108458000D01*
X169672000Y-108458000D01*
X169672000Y-108478000D01*
X169418000Y-108478000D01*
X169418000Y-108458000D01*
X169398000Y-108458000D01*
X169398000Y-108204000D01*
X169418000Y-108204000D01*
X169418000Y-106991150D01*
X169672000Y-106991150D01*
X169672000Y-108204000D01*
X170884850Y-108204000D01*
X171043600Y-108045250D01*
X171043600Y-107341090D01*
X170946927Y-107107701D01*
X170768298Y-106929073D01*
X170534909Y-106832400D01*
X169830750Y-106832400D01*
X169672000Y-106991150D01*
X169418000Y-106991150D01*
X169259250Y-106832400D01*
X168555091Y-106832400D01*
X168321702Y-106929073D01*
X168143073Y-107107701D01*
X168079356Y-107261526D01*
X167607848Y-106946474D01*
X167034359Y-106832400D01*
X166975641Y-106832400D01*
X166402152Y-106946474D01*
X165915971Y-107271330D01*
X165860000Y-107355096D01*
X165860000Y-107061000D01*
X165802148Y-106770161D01*
X165637401Y-106523599D01*
X163828000Y-104714198D01*
X163828000Y-101600000D01*
X163779035Y-101353837D01*
X166150099Y-103724901D01*
G36*
X158873173Y-95140504D02*
X158856490Y-95220440D01*
X158978648Y-95440500D01*
X160464500Y-95440500D01*
X160464500Y-95420500D01*
X160718500Y-95420500D01*
X160718500Y-95440500D01*
X162204352Y-95440500D01*
X162326510Y-95220440D01*
X162309827Y-95140504D01*
X162264482Y-95057500D01*
X162562698Y-95057500D01*
X163614448Y-96109250D01*
X162247137Y-96109250D01*
X162309827Y-95994496D01*
X162326510Y-95914560D01*
X162204352Y-95694500D01*
X160718500Y-95694500D01*
X160718500Y-95714500D01*
X160464500Y-95714500D01*
X160464500Y-95694500D01*
X158978648Y-95694500D01*
X158856490Y-95914560D01*
X158873173Y-95994496D01*
X158935863Y-96109250D01*
X158334552Y-96109250D01*
X157462622Y-95237320D01*
X157462662Y-95191833D01*
X157407157Y-95057500D01*
X158918518Y-95057500D01*
X158873173Y-95140504D01*
X158873173Y-95140504D01*
G37*
X158873173Y-95140504D02*
X158856490Y-95220440D01*
X158978648Y-95440500D01*
X160464500Y-95440500D01*
X160464500Y-95420500D01*
X160718500Y-95420500D01*
X160718500Y-95440500D01*
X162204352Y-95440500D01*
X162326510Y-95220440D01*
X162309827Y-95140504D01*
X162264482Y-95057500D01*
X162562698Y-95057500D01*
X163614448Y-96109250D01*
X162247137Y-96109250D01*
X162309827Y-95994496D01*
X162326510Y-95914560D01*
X162204352Y-95694500D01*
X160718500Y-95694500D01*
X160718500Y-95714500D01*
X160464500Y-95714500D01*
X160464500Y-95694500D01*
X158978648Y-95694500D01*
X158856490Y-95914560D01*
X158873173Y-95994496D01*
X158935863Y-96109250D01*
X158334552Y-96109250D01*
X157462622Y-95237320D01*
X157462662Y-95191833D01*
X157407157Y-95057500D01*
X158918518Y-95057500D01*
X158873173Y-95140504D01*
M02*
