G04 #@! TF.FileFunction,Copper,L2,Bot,Signal*
%FSLAX46Y46*%
G04 Gerber Fmt 4.6, Leading zero omitted, Abs format (unit mm)*
G04 Created by KiCad (PCBNEW 4.0.2-stable) date 16.05.2016 20:30:10*
%MOMM*%
G01*
G04 APERTURE LIST*
%ADD10C,0.100000*%
%ADD11R,1.600000X2.000000*%
%ADD12R,1.500000X0.600000*%
%ADD13R,1.727200X1.727200*%
%ADD14O,1.727200X1.727200*%
%ADD15R,2.032000X1.727200*%
%ADD16O,2.032000X1.727200*%
%ADD17R,1.700000X2.000000*%
%ADD18R,2.286000X1.574800*%
%ADD19O,2.286000X1.574800*%
%ADD20R,2.032000X2.032000*%
%ADD21O,2.032000X2.032000*%
%ADD22C,0.600000*%
%ADD23C,0.250000*%
%ADD24C,0.254000*%
G04 APERTURE END LIST*
D10*
D11*
X156464000Y-105124000D03*
X156464000Y-101124000D03*
X152781000Y-105124000D03*
X152781000Y-101124000D03*
D12*
X143794500Y-99568000D03*
X143794500Y-98298000D03*
X143794500Y-97028000D03*
X143794500Y-95758000D03*
X143794500Y-94488000D03*
X143794500Y-93218000D03*
X143794500Y-91948000D03*
X143794500Y-90678000D03*
X149194500Y-90678000D03*
X149194500Y-91948000D03*
X149194500Y-93218000D03*
X149194500Y-94488000D03*
X149194500Y-95758000D03*
X149194500Y-97028000D03*
X149194500Y-98298000D03*
X149194500Y-99568000D03*
D13*
X169545000Y-108331000D03*
D14*
X167005000Y-108331000D03*
X169545000Y-110871000D03*
X167005000Y-110871000D03*
X169545000Y-113411000D03*
X167005000Y-113411000D03*
X169545000Y-115951000D03*
X167005000Y-115951000D03*
X169545000Y-118491000D03*
X167005000Y-118491000D03*
X169545000Y-121031000D03*
X167005000Y-121031000D03*
X169545000Y-123571000D03*
X167005000Y-123571000D03*
X169545000Y-126111000D03*
X167005000Y-126111000D03*
X169545000Y-128651000D03*
X167005000Y-128651000D03*
D15*
X156210000Y-112649000D03*
D16*
X156210000Y-115189000D03*
X156210000Y-117729000D03*
D15*
X156210000Y-123698000D03*
D16*
X156210000Y-126238000D03*
X156210000Y-128778000D03*
D13*
X135826500Y-120777000D03*
D14*
X138366500Y-120777000D03*
X135826500Y-123317000D03*
X138366500Y-123317000D03*
X135826500Y-125857000D03*
X138366500Y-125857000D03*
X135826500Y-128397000D03*
X138366500Y-128397000D03*
D17*
X170307000Y-94774000D03*
X170307000Y-98774000D03*
X165925500Y-94774000D03*
X165925500Y-98774000D03*
D12*
X146273500Y-106997500D03*
X146273500Y-108267500D03*
X146273500Y-109537500D03*
X146273500Y-110807500D03*
X146273500Y-112077500D03*
X146273500Y-113347500D03*
X146273500Y-114617500D03*
X146273500Y-115887500D03*
X140873500Y-115887500D03*
X140873500Y-114617500D03*
X140873500Y-113347500D03*
X140873500Y-112077500D03*
X140873500Y-110807500D03*
X140873500Y-109537500D03*
X140873500Y-108267500D03*
X140873500Y-106997500D03*
D13*
X136525000Y-91630500D03*
D14*
X139065000Y-91630500D03*
X136525000Y-94170500D03*
X139065000Y-94170500D03*
X136525000Y-96710500D03*
X139065000Y-96710500D03*
X136525000Y-99250500D03*
X139065000Y-99250500D03*
D18*
X160591500Y-93027500D03*
D19*
X160591500Y-95567500D03*
X160591500Y-98107500D03*
X160591500Y-100647500D03*
X160591500Y-103187500D03*
X160591500Y-105727500D03*
X160591500Y-108267500D03*
X160591500Y-110807500D03*
X160591500Y-113347500D03*
X160591500Y-115887500D03*
X160591500Y-118427500D03*
X160591500Y-120967500D03*
X160591500Y-123507500D03*
X160591500Y-126047500D03*
X160591500Y-128587500D03*
X175831500Y-128587500D03*
X175831500Y-126047500D03*
X175831500Y-123507500D03*
X175831500Y-120967500D03*
X175831500Y-118427500D03*
X175831500Y-115887500D03*
X175831500Y-113347500D03*
X175831500Y-110807500D03*
X175831500Y-108267500D03*
X175831500Y-105727500D03*
X175831500Y-103187500D03*
X175831500Y-100647500D03*
X175831500Y-98107500D03*
X175831500Y-95567500D03*
X175831500Y-93027500D03*
D12*
X145509000Y-129540000D03*
X145509000Y-128270000D03*
X145509000Y-127000000D03*
X145509000Y-125730000D03*
X145509000Y-124460000D03*
X145509000Y-123190000D03*
X145509000Y-121920000D03*
X145509000Y-120650000D03*
X150909000Y-120650000D03*
X150909000Y-121920000D03*
X150909000Y-123190000D03*
X150909000Y-124460000D03*
X150909000Y-125730000D03*
X150909000Y-127000000D03*
X150909000Y-128270000D03*
X150909000Y-129540000D03*
D20*
X153733500Y-91440000D03*
D21*
X156273500Y-91440000D03*
D22*
X138557000Y-116967000D03*
X152781000Y-106934000D03*
X167640000Y-87122000D03*
X167640000Y-91440000D03*
X159575500Y-107061000D03*
X157480000Y-107061000D03*
X153924000Y-129667000D03*
X152019000Y-131889500D03*
X152400000Y-116776500D03*
X152336500Y-119062500D03*
X136588500Y-115379500D03*
X137858500Y-102362000D03*
X135001000Y-105029000D03*
X143510000Y-121920000D03*
X143192500Y-100711000D03*
X171196000Y-92392500D03*
X173799500Y-104521000D03*
X162687000Y-95567500D03*
X134874000Y-117475000D03*
X136779000Y-117475000D03*
X139192000Y-114935000D03*
X144526000Y-114998500D03*
X151574500Y-93789500D03*
X154495500Y-105092500D03*
X140843000Y-105410000D03*
X141033500Y-131254500D03*
X142557500Y-129476500D03*
X152590500Y-127000000D03*
X140652500Y-118237000D03*
X137096500Y-118237000D03*
X133159500Y-109855000D03*
X149796500Y-117221000D03*
X138938000Y-108331000D03*
X136525000Y-111569500D03*
X136461500Y-112903000D03*
X136461500Y-113855500D03*
X147193000Y-127952500D03*
X152463500Y-111633000D03*
X152400000Y-110363000D03*
X152400000Y-109093000D03*
X152590500Y-107886500D03*
X141859000Y-98869500D03*
X142875000Y-102870000D03*
X142240000Y-97028000D03*
X142367000Y-88201500D03*
X143573500Y-109791500D03*
X146939000Y-94424500D03*
X142684500Y-108648500D03*
X145478500Y-91821000D03*
X151066500Y-90805000D03*
X156527500Y-95377000D03*
X156400500Y-97028000D03*
X165100000Y-119951500D03*
X147891500Y-129540000D03*
X177990500Y-115951000D03*
D23*
X137287000Y-116967000D02*
X138557000Y-116967000D01*
X136588500Y-116268500D02*
X136588500Y-115379500D01*
X136588500Y-116268500D02*
X137287000Y-116967000D01*
X152781000Y-106934000D02*
X154940000Y-106934000D01*
X156273500Y-91440000D02*
X167576500Y-91376500D01*
X133858000Y-91694000D02*
X135096250Y-92932250D01*
X133858000Y-90932000D02*
X133858000Y-91694000D01*
X137668000Y-87122000D02*
X133858000Y-90932000D01*
X164909500Y-87122000D02*
X137668000Y-87122000D01*
X167640000Y-87122000D02*
X164909500Y-87122000D01*
X167576500Y-91376500D02*
X167640000Y-91440000D01*
X154940000Y-106934000D02*
X156781500Y-106934000D01*
X156781500Y-106934000D02*
X156464000Y-106616500D01*
X156464000Y-106616500D02*
X156464000Y-105124000D01*
X167005000Y-108331000D02*
X163639500Y-108331000D01*
X163639500Y-108331000D02*
X162369500Y-107061000D01*
X162369500Y-107061000D02*
X159575500Y-107061000D01*
X157480000Y-107061000D02*
X157416500Y-106997500D01*
X157416500Y-106997500D02*
X156845000Y-106997500D01*
X156845000Y-106997500D02*
X156464000Y-106616500D01*
X156464000Y-106616500D02*
X156464000Y-105124000D01*
X154940000Y-106934000D02*
X155384500Y-106934000D01*
X156464000Y-105854500D02*
X156464000Y-105124000D01*
X138366500Y-128397000D02*
X138366500Y-129730500D01*
X155067000Y-123698000D02*
X156210000Y-123698000D01*
X153987500Y-124777500D02*
X155067000Y-123698000D01*
X153987500Y-129603500D02*
X153987500Y-124777500D01*
X153924000Y-129667000D02*
X153987500Y-129603500D01*
X140716000Y-132080000D02*
X152019000Y-131889500D01*
X138366500Y-129730500D02*
X140716000Y-132080000D01*
X152400000Y-116776500D02*
X152336500Y-116840000D01*
X152336500Y-116840000D02*
X152336500Y-119062500D01*
X140873500Y-110807500D02*
X139636500Y-110807500D01*
X138430000Y-113538000D02*
X136588500Y-115379500D01*
X138430000Y-112014000D02*
X138430000Y-113538000D01*
X139636500Y-110807500D02*
X138430000Y-112014000D01*
X143794500Y-90678000D02*
X142811500Y-90678000D01*
X133032500Y-103060500D02*
X135001000Y-105029000D01*
X133032500Y-94996000D02*
X133032500Y-103060500D01*
X135128000Y-92900500D02*
X135096250Y-92932250D01*
X135096250Y-92932250D02*
X133032500Y-94996000D01*
X140589000Y-92900500D02*
X135128000Y-92900500D01*
X142811500Y-90678000D02*
X140589000Y-92900500D01*
X137668000Y-102362000D02*
X137858500Y-102362000D01*
X135001000Y-105029000D02*
X137668000Y-102362000D01*
X138366500Y-128397000D02*
X138366500Y-128460500D01*
X143510000Y-121920000D02*
X145509000Y-121920000D01*
X160591500Y-95567500D02*
X159766000Y-95567500D01*
X159766000Y-95567500D02*
X158432500Y-96901000D01*
X158432500Y-99155500D02*
X156464000Y-101124000D01*
X158432500Y-96901000D02*
X158432500Y-99155500D01*
X143794500Y-100109000D02*
X143794500Y-99568000D01*
X143192500Y-100711000D02*
X143794500Y-100109000D01*
X170307000Y-94774000D02*
X170307000Y-93281500D01*
X170307000Y-93281500D02*
X171196000Y-92392500D01*
X170307000Y-94774000D02*
X171990000Y-94774000D01*
X173799500Y-96583500D02*
X173799500Y-104521000D01*
X171990000Y-94774000D02*
X173799500Y-96583500D01*
X165925500Y-94774000D02*
X170307000Y-94774000D01*
X163480500Y-94774000D02*
X165925500Y-94774000D01*
X162687000Y-95567500D02*
X163480500Y-94774000D01*
X140873500Y-114617500D02*
X139509500Y-114617500D01*
X136779000Y-117475000D02*
X134874000Y-117475000D01*
X139509500Y-114617500D02*
X139192000Y-114935000D01*
X144145000Y-114617500D02*
X140873500Y-114617500D01*
X144526000Y-114998500D02*
X144145000Y-114617500D01*
X151574500Y-93789500D02*
X153733500Y-91630500D01*
X153733500Y-91630500D02*
X153733500Y-91440000D01*
X152781000Y-105124000D02*
X154464000Y-105124000D01*
X154464000Y-105124000D02*
X154495500Y-105092500D01*
X140873500Y-106997500D02*
X140873500Y-105440500D01*
X140873500Y-105440500D02*
X140843000Y-105410000D01*
X141033500Y-131000500D02*
X141033500Y-131254500D01*
X142557500Y-129476500D02*
X141033500Y-131000500D01*
X150909000Y-127000000D02*
X152590500Y-127000000D01*
X133159500Y-116268500D02*
X133159500Y-116967000D01*
X143002000Y-125730000D02*
X141605000Y-124333000D01*
X141605000Y-124333000D02*
X141605000Y-119189500D01*
X141605000Y-119189500D02*
X140652500Y-118237000D01*
X133159500Y-116268500D02*
X133159500Y-109855000D01*
X143002000Y-125730000D02*
X145509000Y-125730000D01*
X134429500Y-118237000D02*
X137096500Y-118237000D01*
X133159500Y-116967000D02*
X134429500Y-118237000D01*
X145509000Y-125730000D02*
X146494500Y-125730000D01*
X146494500Y-125730000D02*
X148526500Y-123698000D01*
X148526500Y-123698000D02*
X148526500Y-118491000D01*
X148526500Y-118491000D02*
X149796500Y-117221000D01*
X139001500Y-108267500D02*
X140873500Y-108267500D01*
X138938000Y-108331000D02*
X139001500Y-108267500D01*
X146273500Y-106997500D02*
X144780000Y-106997500D01*
X136779000Y-111315500D02*
X136525000Y-111569500D01*
X136779000Y-106680000D02*
X136779000Y-111315500D01*
X139700000Y-103759000D02*
X136779000Y-106680000D01*
X142684500Y-103759000D02*
X139700000Y-103759000D01*
X144526000Y-105600500D02*
X142684500Y-103759000D01*
X144526000Y-106743500D02*
X144526000Y-105600500D01*
X144780000Y-106997500D02*
X144526000Y-106743500D01*
X137287000Y-106934000D02*
X137287000Y-112077500D01*
X144462500Y-108267500D02*
X144018000Y-107823000D01*
X144018000Y-107823000D02*
X144018000Y-105791000D01*
X144018000Y-105791000D02*
X142494000Y-104267000D01*
X142494000Y-104267000D02*
X139954000Y-104267000D01*
X139954000Y-104267000D02*
X137287000Y-106934000D01*
X146273500Y-108267500D02*
X144462500Y-108267500D01*
X137287000Y-112077500D02*
X136461500Y-112903000D01*
X137795000Y-107124500D02*
X137795000Y-112522000D01*
X144589500Y-109537500D02*
X143446500Y-108394500D01*
X143446500Y-108394500D02*
X143446500Y-106172000D01*
X143446500Y-106172000D02*
X142049500Y-104775000D01*
X142049500Y-104775000D02*
X140144500Y-104775000D01*
X140144500Y-104775000D02*
X137795000Y-107124500D01*
X146273500Y-109537500D02*
X144589500Y-109537500D01*
X137795000Y-112522000D02*
X136461500Y-113855500D01*
X147193000Y-127952500D02*
X146875500Y-128270000D01*
X145509000Y-128270000D02*
X146875500Y-128270000D01*
X146273500Y-110807500D02*
X147447000Y-110807500D01*
X152463500Y-112458500D02*
X152463500Y-111633000D01*
X152082500Y-112839500D02*
X152463500Y-112458500D01*
X149479000Y-112839500D02*
X152082500Y-112839500D01*
X147447000Y-110807500D02*
X149479000Y-112839500D01*
X146273500Y-112077500D02*
X148018500Y-112077500D01*
X153098500Y-111061500D02*
X152400000Y-110363000D01*
X153098500Y-112522000D02*
X153098500Y-111061500D01*
X152273000Y-113347500D02*
X153098500Y-112522000D01*
X149288500Y-113347500D02*
X152273000Y-113347500D01*
X148018500Y-112077500D02*
X149288500Y-113347500D01*
X146273500Y-113347500D02*
X148590000Y-113347500D01*
X153606500Y-110299500D02*
X152400000Y-109093000D01*
X153606500Y-112712500D02*
X153606500Y-110299500D01*
X152463500Y-113855500D02*
X153606500Y-112712500D01*
X149098000Y-113855500D02*
X152463500Y-113855500D01*
X148590000Y-113347500D02*
X149098000Y-113855500D01*
X146273500Y-114617500D02*
X152400000Y-114617500D01*
X152590500Y-107950000D02*
X152590500Y-107886500D01*
X154114500Y-109474000D02*
X152590500Y-107950000D01*
X154114500Y-112903000D02*
X154114500Y-109474000D01*
X152400000Y-114617500D02*
X154114500Y-112903000D01*
X156908500Y-102870000D02*
X158305500Y-102870000D01*
X158940500Y-113982500D02*
X159575500Y-114617500D01*
X158940500Y-103505000D02*
X158940500Y-113982500D01*
X158305500Y-102870000D02*
X158940500Y-103505000D01*
X167005000Y-115951000D02*
X163258500Y-115951000D01*
X161925000Y-114617500D02*
X159575500Y-114617500D01*
X163258500Y-115951000D02*
X161925000Y-114617500D01*
X142430500Y-98298000D02*
X143794500Y-98298000D01*
X141859000Y-98869500D02*
X142430500Y-98298000D01*
X156972000Y-102870000D02*
X156908500Y-102870000D01*
X156908500Y-102870000D02*
X142875000Y-102870000D01*
X159575500Y-114617500D02*
X159512000Y-114617500D01*
X178816000Y-91884500D02*
X178816000Y-91694000D01*
X143794500Y-97028000D02*
X142240000Y-97028000D01*
X178816000Y-113792000D02*
X178816000Y-91884500D01*
X178816000Y-113792000D02*
X176720500Y-115887500D01*
X157162500Y-88201500D02*
X142367000Y-88201500D01*
X159385000Y-90424000D02*
X157162500Y-88201500D01*
X177546000Y-90424000D02*
X159385000Y-90424000D01*
X178816000Y-91694000D02*
X177546000Y-90424000D01*
X175831500Y-115887500D02*
X176720500Y-115887500D01*
X143794500Y-95758000D02*
X140525500Y-95758000D01*
X137731500Y-95504000D02*
X136525000Y-96710500D01*
X140271500Y-95504000D02*
X137731500Y-95504000D01*
X140525500Y-95758000D02*
X140271500Y-95504000D01*
X142875000Y-113347500D02*
X140873500Y-113347500D01*
X143573500Y-112649000D02*
X142875000Y-113347500D01*
X143573500Y-109791500D02*
X143573500Y-112649000D01*
X146875500Y-94488000D02*
X143794500Y-94488000D01*
X146939000Y-94424500D02*
X146875500Y-94488000D01*
X143794500Y-93218000D02*
X142303500Y-93218000D01*
X141351000Y-94170500D02*
X139065000Y-94170500D01*
X142303500Y-93218000D02*
X141351000Y-94170500D01*
X141795500Y-109537500D02*
X140873500Y-109537500D01*
X142684500Y-108648500D02*
X141795500Y-109537500D01*
X145351500Y-91948000D02*
X143794500Y-91948000D01*
X145478500Y-91821000D02*
X145351500Y-91948000D01*
X151066500Y-90805000D02*
X150939500Y-90678000D01*
X149194500Y-90678000D02*
X150939500Y-90678000D01*
X149194500Y-91948000D02*
X147764500Y-91948000D01*
X139065000Y-89090500D02*
X136525000Y-91630500D01*
X145923000Y-89090500D02*
X139065000Y-89090500D01*
X146939000Y-90106500D02*
X145923000Y-89090500D01*
X146939000Y-91122500D02*
X146939000Y-90106500D01*
X147764500Y-91948000D02*
X146939000Y-91122500D01*
X149194500Y-93218000D02*
X149987000Y-93218000D01*
X151447500Y-95377000D02*
X152844500Y-95377000D01*
X150812500Y-94742000D02*
X151447500Y-95377000D01*
X150812500Y-94043500D02*
X150812500Y-94742000D01*
X149987000Y-93218000D02*
X150812500Y-94043500D01*
X156527500Y-95377000D02*
X152844500Y-95377000D01*
X152844500Y-95377000D02*
X152717500Y-95377000D01*
X149194500Y-94488000D02*
X148526500Y-94488000D01*
X148526500Y-94488000D02*
X146431000Y-92392500D01*
X146431000Y-92392500D02*
X146431000Y-90424000D01*
X146431000Y-90424000D02*
X145669000Y-89662000D01*
X145669000Y-89662000D02*
X141033500Y-89662000D01*
X141033500Y-89662000D02*
X139065000Y-91630500D01*
X156400500Y-97028000D02*
X151447500Y-97028000D01*
X151574500Y-97028000D02*
X151447500Y-97028000D01*
X151447500Y-97028000D02*
X149194500Y-97028000D01*
X149194500Y-98298000D02*
X148082000Y-98298000D01*
X134683500Y-96012000D02*
X136525000Y-94170500D01*
X134683500Y-99885500D02*
X134683500Y-96012000D01*
X136398000Y-101600000D02*
X134683500Y-99885500D01*
X146113500Y-101600000D02*
X136398000Y-101600000D01*
X147510500Y-100203000D02*
X146113500Y-101600000D01*
X147510500Y-98869500D02*
X147510500Y-100203000D01*
X148082000Y-98298000D02*
X147510500Y-98869500D01*
X169545000Y-110871000D02*
X169735500Y-110871000D01*
X169735500Y-110871000D02*
X171450000Y-109156500D01*
X171450000Y-99917000D02*
X170307000Y-98774000D01*
X171450000Y-109156500D02*
X171450000Y-99917000D01*
X169545000Y-110871000D02*
X169100500Y-110871000D01*
X169100500Y-110871000D02*
X167894000Y-112077500D01*
X167894000Y-112077500D02*
X163131500Y-112077500D01*
X163131500Y-112077500D02*
X161861500Y-113347500D01*
X161861500Y-113347500D02*
X160591500Y-113347500D01*
X167005000Y-110871000D02*
X167005000Y-110299500D01*
X167005000Y-110299500D02*
X168275000Y-109029500D01*
X168275000Y-101123500D02*
X165925500Y-98774000D01*
X168275000Y-109029500D02*
X168275000Y-101123500D01*
X167005000Y-110871000D02*
X160655000Y-110871000D01*
X160655000Y-110871000D02*
X160591500Y-110807500D01*
X169545000Y-113411000D02*
X169545000Y-113855500D01*
X169545000Y-113855500D02*
X168275000Y-115125500D01*
X168275000Y-115125500D02*
X168275000Y-116459000D01*
X168275000Y-116459000D02*
X169100500Y-117284500D01*
X169100500Y-117284500D02*
X173418500Y-117284500D01*
X173418500Y-117284500D02*
X174561500Y-118427500D01*
X174561500Y-118427500D02*
X175831500Y-118427500D01*
X169545000Y-115951000D02*
X170688000Y-115951000D01*
X178054000Y-110871000D02*
X178054000Y-93789500D01*
X176847500Y-112077500D02*
X178054000Y-110871000D01*
X174561500Y-112077500D02*
X176847500Y-112077500D01*
X170688000Y-115951000D02*
X174561500Y-112077500D01*
X177292000Y-93027500D02*
X175831500Y-93027500D01*
X178054000Y-93789500D02*
X177292000Y-93027500D01*
X167005000Y-126111000D02*
X166624000Y-126111000D01*
X166624000Y-126111000D02*
X165100000Y-124587000D01*
X165100000Y-124587000D02*
X165100000Y-119951500D01*
X138366500Y-120777000D02*
X139065000Y-120777000D01*
X139065000Y-120777000D02*
X140271500Y-121983500D01*
X140271500Y-121983500D02*
X140271500Y-125603000D01*
X140271500Y-125603000D02*
X144208500Y-129540000D01*
X144208500Y-129540000D02*
X145509000Y-129540000D01*
X147891500Y-129540000D02*
X145509000Y-129540000D01*
X135826500Y-125857000D02*
X135953500Y-125857000D01*
X149098000Y-129095500D02*
X149098000Y-127762000D01*
X177990500Y-129286000D02*
X177990500Y-115951000D01*
X176339500Y-130937000D02*
X177990500Y-129286000D01*
X150050500Y-130937000D02*
X176339500Y-130937000D01*
X149098000Y-129984500D02*
X150050500Y-130937000D01*
X149098000Y-129095500D02*
X149098000Y-129984500D01*
X140970000Y-119697500D02*
X139192000Y-117919500D01*
X139573000Y-112077500D02*
X139255500Y-112395000D01*
X145509000Y-127000000D02*
X143129000Y-127000000D01*
X143129000Y-127000000D02*
X140970000Y-124841000D01*
X140970000Y-124841000D02*
X140970000Y-119697500D01*
X139573000Y-112077500D02*
X139763500Y-112077500D01*
X138938000Y-112712500D02*
X139255500Y-112395000D01*
X138938000Y-113792000D02*
X138938000Y-112712500D01*
X138493500Y-114236500D02*
X138938000Y-113792000D01*
X138493500Y-115443000D02*
X138493500Y-114236500D01*
X139192000Y-116141500D02*
X138493500Y-115443000D01*
X139192000Y-117919500D02*
X139192000Y-116141500D01*
X149098000Y-127762000D02*
X148336000Y-127000000D01*
X148336000Y-127000000D02*
X147002500Y-127000000D01*
X147002500Y-127000000D02*
X145509000Y-127000000D01*
X139700000Y-112077500D02*
X139763500Y-112077500D01*
X139763500Y-112077500D02*
X140873500Y-112077500D01*
D24*
G36*
X180213176Y-132143665D02*
X131762323Y-132206834D01*
X131731494Y-110040167D01*
X132224338Y-110040167D01*
X132366383Y-110383943D01*
X132399500Y-110417118D01*
X132399500Y-116967000D01*
X132457352Y-117257839D01*
X132622099Y-117504401D01*
X133892099Y-118774401D01*
X134138660Y-118939148D01*
X134429500Y-118997000D01*
X136534037Y-118997000D01*
X136566173Y-119029192D01*
X136909701Y-119171838D01*
X137281667Y-119172162D01*
X137625443Y-119030117D01*
X137888692Y-118767327D01*
X138031338Y-118423799D01*
X138031662Y-118051833D01*
X137889617Y-117708057D01*
X137713951Y-117532084D01*
X137714162Y-117289833D01*
X137572117Y-116946057D01*
X137309327Y-116682808D01*
X136965799Y-116540162D01*
X136593833Y-116539838D01*
X136250057Y-116681883D01*
X136216882Y-116715000D01*
X135436463Y-116715000D01*
X135404327Y-116682808D01*
X135060799Y-116540162D01*
X134688833Y-116539838D01*
X134345057Y-116681883D01*
X134146948Y-116879646D01*
X133919500Y-116652198D01*
X133919500Y-110417463D01*
X133951692Y-110385327D01*
X134094338Y-110041799D01*
X134094662Y-109669833D01*
X133952617Y-109326057D01*
X133689827Y-109062808D01*
X133346299Y-108920162D01*
X132974333Y-108919838D01*
X132630557Y-109061883D01*
X132367308Y-109324673D01*
X132224662Y-109668201D01*
X132224338Y-110040167D01*
X131731494Y-110040167D01*
X131711984Y-96012000D01*
X133923500Y-96012000D01*
X133923500Y-99885500D01*
X133981352Y-100176339D01*
X134146099Y-100422901D01*
X135860599Y-102137401D01*
X136107161Y-102302148D01*
X136398000Y-102360000D01*
X142074367Y-102360000D01*
X141940162Y-102683201D01*
X141939887Y-102999000D01*
X139700000Y-102999000D01*
X139409161Y-103056852D01*
X139162599Y-103221599D01*
X136241599Y-106142599D01*
X136076852Y-106389161D01*
X136019000Y-106680000D01*
X136019000Y-110766903D01*
X135996057Y-110776383D01*
X135732808Y-111039173D01*
X135590162Y-111382701D01*
X135589838Y-111754667D01*
X135731883Y-112098443D01*
X135837765Y-112204510D01*
X135669308Y-112372673D01*
X135526662Y-112716201D01*
X135526338Y-113088167D01*
X135646732Y-113379543D01*
X135526662Y-113668701D01*
X135526338Y-114040667D01*
X135668383Y-114384443D01*
X135931173Y-114647692D01*
X136274701Y-114790338D01*
X136646667Y-114790662D01*
X136990443Y-114648617D01*
X137253692Y-114385827D01*
X137396338Y-114042299D01*
X137396379Y-113995423D01*
X138178000Y-113213802D01*
X138178000Y-113477198D01*
X137956099Y-113699099D01*
X137791352Y-113945661D01*
X137733500Y-114236500D01*
X137733500Y-115443000D01*
X137791352Y-115733839D01*
X137956099Y-115980401D01*
X138432000Y-116456302D01*
X138432000Y-117919500D01*
X138489852Y-118210339D01*
X138654599Y-118456901D01*
X140210000Y-120012302D01*
X140210000Y-120847198D01*
X139833540Y-120470738D01*
X139780385Y-120203511D01*
X139455529Y-119717330D01*
X138969348Y-119392474D01*
X138395859Y-119278400D01*
X138337141Y-119278400D01*
X137763652Y-119392474D01*
X137298058Y-119703574D01*
X137293262Y-119678083D01*
X137154190Y-119461959D01*
X136941990Y-119316969D01*
X136690100Y-119265960D01*
X134962900Y-119265960D01*
X134727583Y-119310238D01*
X134511459Y-119449310D01*
X134366469Y-119661510D01*
X134315460Y-119913400D01*
X134315460Y-121640600D01*
X134359738Y-121875917D01*
X134498810Y-122092041D01*
X134711010Y-122237031D01*
X134754631Y-122245864D01*
X134737471Y-122257330D01*
X134412615Y-122743511D01*
X134298541Y-123317000D01*
X134412615Y-123890489D01*
X134737471Y-124376670D01*
X135052252Y-124587000D01*
X134737471Y-124797330D01*
X134412615Y-125283511D01*
X134298541Y-125857000D01*
X134412615Y-126430489D01*
X134737471Y-126916670D01*
X135052252Y-127127000D01*
X134737471Y-127337330D01*
X134412615Y-127823511D01*
X134298541Y-128397000D01*
X134412615Y-128970489D01*
X134737471Y-129456670D01*
X135223652Y-129781526D01*
X135797141Y-129895600D01*
X135855859Y-129895600D01*
X136429348Y-129781526D01*
X136915529Y-129456670D01*
X137096492Y-129185839D01*
X137478010Y-129603821D01*
X138007473Y-129851968D01*
X138239500Y-129731469D01*
X138239500Y-128524000D01*
X138493500Y-128524000D01*
X138493500Y-129731469D01*
X138725527Y-129851968D01*
X139254990Y-129603821D01*
X139649188Y-129171947D01*
X139821458Y-128756026D01*
X139700317Y-128524000D01*
X138493500Y-128524000D01*
X138239500Y-128524000D01*
X138219500Y-128524000D01*
X138219500Y-128270000D01*
X138239500Y-128270000D01*
X138239500Y-128250000D01*
X138493500Y-128250000D01*
X138493500Y-128270000D01*
X139700317Y-128270000D01*
X139821458Y-128037974D01*
X139649188Y-127622053D01*
X139254990Y-127190179D01*
X139132272Y-127132664D01*
X139455529Y-126916670D01*
X139780385Y-126430489D01*
X139820834Y-126227136D01*
X142204417Y-128610719D01*
X142028557Y-128683383D01*
X141765308Y-128946173D01*
X141622662Y-129289701D01*
X141622621Y-129336577D01*
X140496099Y-130463099D01*
X140482600Y-130483302D01*
X140241308Y-130724173D01*
X140098662Y-131067701D01*
X140098338Y-131439667D01*
X140240383Y-131783443D01*
X140503173Y-132046692D01*
X140846701Y-132189338D01*
X141218667Y-132189662D01*
X141562443Y-132047617D01*
X141825692Y-131784827D01*
X141968338Y-131441299D01*
X141968600Y-131140202D01*
X142697180Y-130411622D01*
X142742667Y-130411662D01*
X143086443Y-130269617D01*
X143349692Y-130006827D01*
X143423288Y-129829590D01*
X143671099Y-130077401D01*
X143917661Y-130242148D01*
X144208500Y-130300000D01*
X144307437Y-130300000D01*
X144507110Y-130436431D01*
X144759000Y-130487440D01*
X146259000Y-130487440D01*
X146494317Y-130443162D01*
X146710441Y-130304090D01*
X146713236Y-130300000D01*
X147329037Y-130300000D01*
X147361173Y-130332192D01*
X147704701Y-130474838D01*
X148076667Y-130475162D01*
X148420443Y-130333117D01*
X148428850Y-130324724D01*
X148560599Y-130521901D01*
X149513099Y-131474401D01*
X149759660Y-131639148D01*
X149807914Y-131648746D01*
X150050500Y-131697000D01*
X176339500Y-131697000D01*
X176630339Y-131639148D01*
X176876901Y-131474401D01*
X178527901Y-129823401D01*
X178692648Y-129576839D01*
X178750500Y-129286000D01*
X178750500Y-116513463D01*
X178782692Y-116481327D01*
X178925338Y-116137799D01*
X178925662Y-115765833D01*
X178783617Y-115422057D01*
X178522409Y-115160393D01*
X179353401Y-114329401D01*
X179518148Y-114082839D01*
X179576000Y-113792000D01*
X179576000Y-91694000D01*
X179540658Y-91516327D01*
X179518148Y-91403160D01*
X179353401Y-91156599D01*
X178083401Y-89886599D01*
X177836839Y-89721852D01*
X177546000Y-89664000D01*
X159699802Y-89664000D01*
X157699901Y-87664099D01*
X157453339Y-87499352D01*
X157162500Y-87441500D01*
X142929463Y-87441500D01*
X142897327Y-87409308D01*
X142553799Y-87266662D01*
X142181833Y-87266338D01*
X141838057Y-87408383D01*
X141574808Y-87671173D01*
X141432162Y-88014701D01*
X141431887Y-88330500D01*
X139065000Y-88330500D01*
X138822414Y-88378754D01*
X138774160Y-88388352D01*
X138527599Y-88553099D01*
X136961238Y-90119460D01*
X135661400Y-90119460D01*
X135426083Y-90163738D01*
X135209959Y-90302810D01*
X135064969Y-90515010D01*
X135013960Y-90766900D01*
X135013960Y-92494100D01*
X135058238Y-92729417D01*
X135197310Y-92945541D01*
X135409510Y-93090531D01*
X135453131Y-93099364D01*
X135435971Y-93110830D01*
X135111115Y-93597011D01*
X134997041Y-94170500D01*
X135072225Y-94548473D01*
X134146099Y-95474599D01*
X133981352Y-95721161D01*
X133923500Y-96012000D01*
X131711984Y-96012000D01*
X131699177Y-86804500D01*
X180276323Y-86804500D01*
X180213176Y-132143665D01*
X180213176Y-132143665D01*
G37*
X180213176Y-132143665D02*
X131762323Y-132206834D01*
X131731494Y-110040167D01*
X132224338Y-110040167D01*
X132366383Y-110383943D01*
X132399500Y-110417118D01*
X132399500Y-116967000D01*
X132457352Y-117257839D01*
X132622099Y-117504401D01*
X133892099Y-118774401D01*
X134138660Y-118939148D01*
X134429500Y-118997000D01*
X136534037Y-118997000D01*
X136566173Y-119029192D01*
X136909701Y-119171838D01*
X137281667Y-119172162D01*
X137625443Y-119030117D01*
X137888692Y-118767327D01*
X138031338Y-118423799D01*
X138031662Y-118051833D01*
X137889617Y-117708057D01*
X137713951Y-117532084D01*
X137714162Y-117289833D01*
X137572117Y-116946057D01*
X137309327Y-116682808D01*
X136965799Y-116540162D01*
X136593833Y-116539838D01*
X136250057Y-116681883D01*
X136216882Y-116715000D01*
X135436463Y-116715000D01*
X135404327Y-116682808D01*
X135060799Y-116540162D01*
X134688833Y-116539838D01*
X134345057Y-116681883D01*
X134146948Y-116879646D01*
X133919500Y-116652198D01*
X133919500Y-110417463D01*
X133951692Y-110385327D01*
X134094338Y-110041799D01*
X134094662Y-109669833D01*
X133952617Y-109326057D01*
X133689827Y-109062808D01*
X133346299Y-108920162D01*
X132974333Y-108919838D01*
X132630557Y-109061883D01*
X132367308Y-109324673D01*
X132224662Y-109668201D01*
X132224338Y-110040167D01*
X131731494Y-110040167D01*
X131711984Y-96012000D01*
X133923500Y-96012000D01*
X133923500Y-99885500D01*
X133981352Y-100176339D01*
X134146099Y-100422901D01*
X135860599Y-102137401D01*
X136107161Y-102302148D01*
X136398000Y-102360000D01*
X142074367Y-102360000D01*
X141940162Y-102683201D01*
X141939887Y-102999000D01*
X139700000Y-102999000D01*
X139409161Y-103056852D01*
X139162599Y-103221599D01*
X136241599Y-106142599D01*
X136076852Y-106389161D01*
X136019000Y-106680000D01*
X136019000Y-110766903D01*
X135996057Y-110776383D01*
X135732808Y-111039173D01*
X135590162Y-111382701D01*
X135589838Y-111754667D01*
X135731883Y-112098443D01*
X135837765Y-112204510D01*
X135669308Y-112372673D01*
X135526662Y-112716201D01*
X135526338Y-113088167D01*
X135646732Y-113379543D01*
X135526662Y-113668701D01*
X135526338Y-114040667D01*
X135668383Y-114384443D01*
X135931173Y-114647692D01*
X136274701Y-114790338D01*
X136646667Y-114790662D01*
X136990443Y-114648617D01*
X137253692Y-114385827D01*
X137396338Y-114042299D01*
X137396379Y-113995423D01*
X138178000Y-113213802D01*
X138178000Y-113477198D01*
X137956099Y-113699099D01*
X137791352Y-113945661D01*
X137733500Y-114236500D01*
X137733500Y-115443000D01*
X137791352Y-115733839D01*
X137956099Y-115980401D01*
X138432000Y-116456302D01*
X138432000Y-117919500D01*
X138489852Y-118210339D01*
X138654599Y-118456901D01*
X140210000Y-120012302D01*
X140210000Y-120847198D01*
X139833540Y-120470738D01*
X139780385Y-120203511D01*
X139455529Y-119717330D01*
X138969348Y-119392474D01*
X138395859Y-119278400D01*
X138337141Y-119278400D01*
X137763652Y-119392474D01*
X137298058Y-119703574D01*
X137293262Y-119678083D01*
X137154190Y-119461959D01*
X136941990Y-119316969D01*
X136690100Y-119265960D01*
X134962900Y-119265960D01*
X134727583Y-119310238D01*
X134511459Y-119449310D01*
X134366469Y-119661510D01*
X134315460Y-119913400D01*
X134315460Y-121640600D01*
X134359738Y-121875917D01*
X134498810Y-122092041D01*
X134711010Y-122237031D01*
X134754631Y-122245864D01*
X134737471Y-122257330D01*
X134412615Y-122743511D01*
X134298541Y-123317000D01*
X134412615Y-123890489D01*
X134737471Y-124376670D01*
X135052252Y-124587000D01*
X134737471Y-124797330D01*
X134412615Y-125283511D01*
X134298541Y-125857000D01*
X134412615Y-126430489D01*
X134737471Y-126916670D01*
X135052252Y-127127000D01*
X134737471Y-127337330D01*
X134412615Y-127823511D01*
X134298541Y-128397000D01*
X134412615Y-128970489D01*
X134737471Y-129456670D01*
X135223652Y-129781526D01*
X135797141Y-129895600D01*
X135855859Y-129895600D01*
X136429348Y-129781526D01*
X136915529Y-129456670D01*
X137096492Y-129185839D01*
X137478010Y-129603821D01*
X138007473Y-129851968D01*
X138239500Y-129731469D01*
X138239500Y-128524000D01*
X138493500Y-128524000D01*
X138493500Y-129731469D01*
X138725527Y-129851968D01*
X139254990Y-129603821D01*
X139649188Y-129171947D01*
X139821458Y-128756026D01*
X139700317Y-128524000D01*
X138493500Y-128524000D01*
X138239500Y-128524000D01*
X138219500Y-128524000D01*
X138219500Y-128270000D01*
X138239500Y-128270000D01*
X138239500Y-128250000D01*
X138493500Y-128250000D01*
X138493500Y-128270000D01*
X139700317Y-128270000D01*
X139821458Y-128037974D01*
X139649188Y-127622053D01*
X139254990Y-127190179D01*
X139132272Y-127132664D01*
X139455529Y-126916670D01*
X139780385Y-126430489D01*
X139820834Y-126227136D01*
X142204417Y-128610719D01*
X142028557Y-128683383D01*
X141765308Y-128946173D01*
X141622662Y-129289701D01*
X141622621Y-129336577D01*
X140496099Y-130463099D01*
X140482600Y-130483302D01*
X140241308Y-130724173D01*
X140098662Y-131067701D01*
X140098338Y-131439667D01*
X140240383Y-131783443D01*
X140503173Y-132046692D01*
X140846701Y-132189338D01*
X141218667Y-132189662D01*
X141562443Y-132047617D01*
X141825692Y-131784827D01*
X141968338Y-131441299D01*
X141968600Y-131140202D01*
X142697180Y-130411622D01*
X142742667Y-130411662D01*
X143086443Y-130269617D01*
X143349692Y-130006827D01*
X143423288Y-129829590D01*
X143671099Y-130077401D01*
X143917661Y-130242148D01*
X144208500Y-130300000D01*
X144307437Y-130300000D01*
X144507110Y-130436431D01*
X144759000Y-130487440D01*
X146259000Y-130487440D01*
X146494317Y-130443162D01*
X146710441Y-130304090D01*
X146713236Y-130300000D01*
X147329037Y-130300000D01*
X147361173Y-130332192D01*
X147704701Y-130474838D01*
X148076667Y-130475162D01*
X148420443Y-130333117D01*
X148428850Y-130324724D01*
X148560599Y-130521901D01*
X149513099Y-131474401D01*
X149759660Y-131639148D01*
X149807914Y-131648746D01*
X150050500Y-131697000D01*
X176339500Y-131697000D01*
X176630339Y-131639148D01*
X176876901Y-131474401D01*
X178527901Y-129823401D01*
X178692648Y-129576839D01*
X178750500Y-129286000D01*
X178750500Y-116513463D01*
X178782692Y-116481327D01*
X178925338Y-116137799D01*
X178925662Y-115765833D01*
X178783617Y-115422057D01*
X178522409Y-115160393D01*
X179353401Y-114329401D01*
X179518148Y-114082839D01*
X179576000Y-113792000D01*
X179576000Y-91694000D01*
X179540658Y-91516327D01*
X179518148Y-91403160D01*
X179353401Y-91156599D01*
X178083401Y-89886599D01*
X177836839Y-89721852D01*
X177546000Y-89664000D01*
X159699802Y-89664000D01*
X157699901Y-87664099D01*
X157453339Y-87499352D01*
X157162500Y-87441500D01*
X142929463Y-87441500D01*
X142897327Y-87409308D01*
X142553799Y-87266662D01*
X142181833Y-87266338D01*
X141838057Y-87408383D01*
X141574808Y-87671173D01*
X141432162Y-88014701D01*
X141431887Y-88330500D01*
X139065000Y-88330500D01*
X138822414Y-88378754D01*
X138774160Y-88388352D01*
X138527599Y-88553099D01*
X136961238Y-90119460D01*
X135661400Y-90119460D01*
X135426083Y-90163738D01*
X135209959Y-90302810D01*
X135064969Y-90515010D01*
X135013960Y-90766900D01*
X135013960Y-92494100D01*
X135058238Y-92729417D01*
X135197310Y-92945541D01*
X135409510Y-93090531D01*
X135453131Y-93099364D01*
X135435971Y-93110830D01*
X135111115Y-93597011D01*
X134997041Y-94170500D01*
X135072225Y-94548473D01*
X134146099Y-95474599D01*
X133981352Y-95721161D01*
X133923500Y-96012000D01*
X131711984Y-96012000D01*
X131699177Y-86804500D01*
X180276323Y-86804500D01*
X180213176Y-132143665D01*
G36*
X151529559Y-103659910D02*
X151384569Y-103872110D01*
X151333560Y-104124000D01*
X151333560Y-106124000D01*
X151377838Y-106359317D01*
X151516910Y-106575441D01*
X151729110Y-106720431D01*
X151981000Y-106771440D01*
X153581000Y-106771440D01*
X153816317Y-106727162D01*
X154032441Y-106588090D01*
X154177431Y-106375890D01*
X154228440Y-106124000D01*
X154228440Y-105994011D01*
X154308701Y-106027338D01*
X154680667Y-106027662D01*
X155024443Y-105885617D01*
X155029000Y-105881068D01*
X155029000Y-106250309D01*
X155125673Y-106483698D01*
X155304301Y-106662327D01*
X155537690Y-106759000D01*
X156178250Y-106759000D01*
X156337000Y-106600250D01*
X156337000Y-105251000D01*
X156591000Y-105251000D01*
X156591000Y-106600250D01*
X156749750Y-106759000D01*
X157390310Y-106759000D01*
X157623699Y-106662327D01*
X157802327Y-106483698D01*
X157899000Y-106250309D01*
X157899000Y-105409750D01*
X157740250Y-105251000D01*
X156591000Y-105251000D01*
X156337000Y-105251000D01*
X156317000Y-105251000D01*
X156317000Y-104997000D01*
X156337000Y-104997000D01*
X156337000Y-104977000D01*
X156591000Y-104977000D01*
X156591000Y-104997000D01*
X157740250Y-104997000D01*
X157899000Y-104838250D01*
X157899000Y-103997691D01*
X157802327Y-103764302D01*
X157668026Y-103630000D01*
X157990698Y-103630000D01*
X158180500Y-103819802D01*
X158180500Y-113982500D01*
X158238352Y-114273339D01*
X158403099Y-114519901D01*
X158846732Y-114963534D01*
X158974599Y-115154901D01*
X159000967Y-115172519D01*
X158886941Y-115343171D01*
X158778667Y-115887500D01*
X158886941Y-116431829D01*
X159195278Y-116893289D01*
X159590699Y-117157500D01*
X159195278Y-117421711D01*
X158886941Y-117883171D01*
X158778667Y-118427500D01*
X158886941Y-118971829D01*
X159195278Y-119433289D01*
X159590699Y-119697500D01*
X159195278Y-119961711D01*
X158886941Y-120423171D01*
X158778667Y-120967500D01*
X158886941Y-121511829D01*
X159195278Y-121973289D01*
X159590699Y-122237500D01*
X159195278Y-122501711D01*
X158886941Y-122963171D01*
X158778667Y-123507500D01*
X158886941Y-124051829D01*
X159195278Y-124513289D01*
X159590330Y-124777254D01*
X159574238Y-124781975D01*
X159140309Y-125131514D01*
X158873173Y-125620504D01*
X158856490Y-125700440D01*
X158978648Y-125920500D01*
X160464500Y-125920500D01*
X160464500Y-125900500D01*
X160718500Y-125900500D01*
X160718500Y-125920500D01*
X162204352Y-125920500D01*
X162326510Y-125700440D01*
X162309827Y-125620504D01*
X162042691Y-125131514D01*
X161608762Y-124781975D01*
X161592670Y-124777254D01*
X161987722Y-124513289D01*
X162296059Y-124051829D01*
X162404333Y-123507500D01*
X162296059Y-122963171D01*
X161987722Y-122501711D01*
X161592301Y-122237500D01*
X161987722Y-121973289D01*
X162296059Y-121511829D01*
X162404333Y-120967500D01*
X162296059Y-120423171D01*
X161987722Y-119961711D01*
X161592301Y-119697500D01*
X161987722Y-119433289D01*
X162296059Y-118971829D01*
X162404333Y-118427500D01*
X162296059Y-117883171D01*
X161987722Y-117421711D01*
X161592301Y-117157500D01*
X161987722Y-116893289D01*
X162296059Y-116431829D01*
X162357192Y-116124494D01*
X162721099Y-116488401D01*
X162967661Y-116653148D01*
X163258500Y-116711000D01*
X165715738Y-116711000D01*
X165915971Y-117010670D01*
X166230752Y-117221000D01*
X165915971Y-117431330D01*
X165591115Y-117917511D01*
X165477041Y-118491000D01*
X165591115Y-119064489D01*
X165703346Y-119232455D01*
X165630327Y-119159308D01*
X165286799Y-119016662D01*
X164914833Y-119016338D01*
X164571057Y-119158383D01*
X164307808Y-119421173D01*
X164165162Y-119764701D01*
X164164838Y-120136667D01*
X164306883Y-120480443D01*
X164340000Y-120513618D01*
X164340000Y-124587000D01*
X164397852Y-124877839D01*
X164562599Y-125124401D01*
X165489013Y-126050815D01*
X165477041Y-126111000D01*
X165591115Y-126684489D01*
X165915971Y-127170670D01*
X166239228Y-127386664D01*
X166116510Y-127444179D01*
X165722312Y-127876053D01*
X165550042Y-128291974D01*
X165671183Y-128524000D01*
X166878000Y-128524000D01*
X166878000Y-128504000D01*
X167132000Y-128504000D01*
X167132000Y-128524000D01*
X167152000Y-128524000D01*
X167152000Y-128778000D01*
X167132000Y-128778000D01*
X167132000Y-129985469D01*
X167364027Y-130105968D01*
X167893490Y-129857821D01*
X168275008Y-129439839D01*
X168455971Y-129710670D01*
X168942152Y-130035526D01*
X169515641Y-130149600D01*
X169574359Y-130149600D01*
X170147848Y-130035526D01*
X170634029Y-129710670D01*
X170958885Y-129224489D01*
X171072959Y-128651000D01*
X170958885Y-128077511D01*
X170634029Y-127591330D01*
X170319248Y-127381000D01*
X170634029Y-127170670D01*
X170958885Y-126684489D01*
X171072959Y-126111000D01*
X170958885Y-125537511D01*
X170634029Y-125051330D01*
X170319248Y-124841000D01*
X170634029Y-124630670D01*
X170958885Y-124144489D01*
X171072959Y-123571000D01*
X170958885Y-122997511D01*
X170634029Y-122511330D01*
X170319248Y-122301000D01*
X170634029Y-122090670D01*
X170958885Y-121604489D01*
X171072959Y-121031000D01*
X170958885Y-120457511D01*
X170634029Y-119971330D01*
X170319248Y-119761000D01*
X170634029Y-119550670D01*
X170958885Y-119064489D01*
X171072959Y-118491000D01*
X170984145Y-118044500D01*
X173103698Y-118044500D01*
X174024099Y-118964901D01*
X174201526Y-119083454D01*
X174435278Y-119433289D01*
X174830330Y-119697254D01*
X174814238Y-119701975D01*
X174380309Y-120051514D01*
X174113173Y-120540504D01*
X174096490Y-120620440D01*
X174218648Y-120840500D01*
X175704500Y-120840500D01*
X175704500Y-120820500D01*
X175958500Y-120820500D01*
X175958500Y-120840500D01*
X175978500Y-120840500D01*
X175978500Y-121094500D01*
X175958500Y-121094500D01*
X175958500Y-121114500D01*
X175704500Y-121114500D01*
X175704500Y-121094500D01*
X174218648Y-121094500D01*
X174096490Y-121314560D01*
X174113173Y-121394496D01*
X174380309Y-121883486D01*
X174814238Y-122233025D01*
X174830330Y-122237746D01*
X174435278Y-122501711D01*
X174126941Y-122963171D01*
X174018667Y-123507500D01*
X174126941Y-124051829D01*
X174435278Y-124513289D01*
X174830699Y-124777500D01*
X174435278Y-125041711D01*
X174126941Y-125503171D01*
X174018667Y-126047500D01*
X174126941Y-126591829D01*
X174435278Y-127053289D01*
X174830699Y-127317500D01*
X174435278Y-127581711D01*
X174126941Y-128043171D01*
X174018667Y-128587500D01*
X174126941Y-129131829D01*
X174435278Y-129593289D01*
X174896738Y-129901626D01*
X175441067Y-130009900D01*
X176191798Y-130009900D01*
X176024698Y-130177000D01*
X156895468Y-130177000D01*
X156968234Y-130162526D01*
X157454415Y-129837670D01*
X157779271Y-129351489D01*
X157893345Y-128778000D01*
X157855453Y-128587500D01*
X158778667Y-128587500D01*
X158886941Y-129131829D01*
X159195278Y-129593289D01*
X159656738Y-129901626D01*
X160201067Y-130009900D01*
X160981933Y-130009900D01*
X161526262Y-129901626D01*
X161987722Y-129593289D01*
X162296059Y-129131829D01*
X162320287Y-129010026D01*
X165550042Y-129010026D01*
X165722312Y-129425947D01*
X166116510Y-129857821D01*
X166645973Y-130105968D01*
X166878000Y-129985469D01*
X166878000Y-128778000D01*
X165671183Y-128778000D01*
X165550042Y-129010026D01*
X162320287Y-129010026D01*
X162404333Y-128587500D01*
X162296059Y-128043171D01*
X161987722Y-127581711D01*
X161592670Y-127317746D01*
X161608762Y-127313025D01*
X162042691Y-126963486D01*
X162309827Y-126474496D01*
X162326510Y-126394560D01*
X162204352Y-126174500D01*
X160718500Y-126174500D01*
X160718500Y-126194500D01*
X160464500Y-126194500D01*
X160464500Y-126174500D01*
X158978648Y-126174500D01*
X158856490Y-126394560D01*
X158873173Y-126474496D01*
X159140309Y-126963486D01*
X159574238Y-127313025D01*
X159590330Y-127317746D01*
X159195278Y-127581711D01*
X158886941Y-128043171D01*
X158778667Y-128587500D01*
X157855453Y-128587500D01*
X157779271Y-128204511D01*
X157454415Y-127718330D01*
X157139634Y-127508000D01*
X157454415Y-127297670D01*
X157779271Y-126811489D01*
X157893345Y-126238000D01*
X157779271Y-125664511D01*
X157454415Y-125178330D01*
X157432220Y-125163500D01*
X157585698Y-125099927D01*
X157764327Y-124921299D01*
X157861000Y-124687910D01*
X157861000Y-123983750D01*
X157702250Y-123825000D01*
X156337000Y-123825000D01*
X156337000Y-123845000D01*
X156083000Y-123845000D01*
X156083000Y-123825000D01*
X154717750Y-123825000D01*
X154559000Y-123983750D01*
X154559000Y-124687910D01*
X154655673Y-124921299D01*
X154834302Y-125099927D01*
X154987780Y-125163500D01*
X154965585Y-125178330D01*
X154640729Y-125664511D01*
X154526655Y-126238000D01*
X154640729Y-126811489D01*
X154965585Y-127297670D01*
X155280366Y-127508000D01*
X154965585Y-127718330D01*
X154640729Y-128204511D01*
X154526655Y-128778000D01*
X154640729Y-129351489D01*
X154965585Y-129837670D01*
X155451766Y-130162526D01*
X155524532Y-130177000D01*
X152197278Y-130177000D01*
X152255431Y-130091890D01*
X152306440Y-129840000D01*
X152306440Y-129240000D01*
X152262162Y-129004683D01*
X152198322Y-128905472D01*
X152255431Y-128821890D01*
X152306440Y-128570000D01*
X152306440Y-127970000D01*
X152291020Y-127888048D01*
X152403701Y-127934838D01*
X152775667Y-127935162D01*
X153119443Y-127793117D01*
X153382692Y-127530327D01*
X153525338Y-127186799D01*
X153525662Y-126814833D01*
X153383617Y-126471057D01*
X153120827Y-126207808D01*
X152777299Y-126065162D01*
X152405333Y-126064838D01*
X152289711Y-126112612D01*
X152306440Y-126030000D01*
X152306440Y-125430000D01*
X152262162Y-125194683D01*
X152198322Y-125095472D01*
X152255431Y-125011890D01*
X152306440Y-124760000D01*
X152306440Y-124160000D01*
X152262162Y-123924683D01*
X152198322Y-123825472D01*
X152255431Y-123741890D01*
X152306440Y-123490000D01*
X152306440Y-122890000D01*
X152272212Y-122708090D01*
X154559000Y-122708090D01*
X154559000Y-123412250D01*
X154717750Y-123571000D01*
X156083000Y-123571000D01*
X156083000Y-122358150D01*
X156337000Y-122358150D01*
X156337000Y-123571000D01*
X157702250Y-123571000D01*
X157861000Y-123412250D01*
X157861000Y-122708090D01*
X157764327Y-122474701D01*
X157585698Y-122296073D01*
X157352309Y-122199400D01*
X156495750Y-122199400D01*
X156337000Y-122358150D01*
X156083000Y-122358150D01*
X155924250Y-122199400D01*
X155067691Y-122199400D01*
X154834302Y-122296073D01*
X154655673Y-122474701D01*
X154559000Y-122708090D01*
X152272212Y-122708090D01*
X152262162Y-122654683D01*
X152198322Y-122555472D01*
X152255431Y-122471890D01*
X152306440Y-122220000D01*
X152306440Y-121620000D01*
X152262162Y-121384683D01*
X152198322Y-121285472D01*
X152255431Y-121201890D01*
X152306440Y-120950000D01*
X152306440Y-120350000D01*
X152262162Y-120114683D01*
X152123090Y-119898559D01*
X151910890Y-119753569D01*
X151659000Y-119702560D01*
X150159000Y-119702560D01*
X149923683Y-119746838D01*
X149707559Y-119885910D01*
X149562569Y-120098110D01*
X149511560Y-120350000D01*
X149511560Y-120950000D01*
X149555838Y-121185317D01*
X149619678Y-121284528D01*
X149562569Y-121368110D01*
X149511560Y-121620000D01*
X149511560Y-122220000D01*
X149555838Y-122455317D01*
X149619678Y-122554528D01*
X149562569Y-122638110D01*
X149511560Y-122890000D01*
X149511560Y-123490000D01*
X149555838Y-123725317D01*
X149619678Y-123824528D01*
X149562569Y-123908110D01*
X149511560Y-124160000D01*
X149511560Y-124760000D01*
X149555838Y-124995317D01*
X149619678Y-125094528D01*
X149562569Y-125178110D01*
X149511560Y-125430000D01*
X149511560Y-126030000D01*
X149555838Y-126265317D01*
X149619678Y-126364528D01*
X149562569Y-126448110D01*
X149511560Y-126700000D01*
X149511560Y-127100758D01*
X148873401Y-126462599D01*
X148626839Y-126297852D01*
X148336000Y-126240000D01*
X147059302Y-126240000D01*
X149063901Y-124235401D01*
X149228648Y-123988839D01*
X149286500Y-123698000D01*
X149286500Y-118805802D01*
X149936180Y-118156122D01*
X149981667Y-118156162D01*
X150325443Y-118014117D01*
X150588692Y-117751327D01*
X150731338Y-117407799D01*
X150731662Y-117035833D01*
X150589617Y-116692057D01*
X150326827Y-116428808D01*
X149983299Y-116286162D01*
X149611333Y-116285838D01*
X149267557Y-116427883D01*
X149004308Y-116690673D01*
X148861662Y-117034201D01*
X148861621Y-117081077D01*
X147989099Y-117953599D01*
X147824352Y-118200161D01*
X147766500Y-118491000D01*
X147766500Y-123383198D01*
X146906440Y-124243258D01*
X146906440Y-124160000D01*
X146862162Y-123924683D01*
X146798322Y-123825472D01*
X146855431Y-123741890D01*
X146906440Y-123490000D01*
X146906440Y-122890000D01*
X146862162Y-122654683D01*
X146803822Y-122564020D01*
X146894000Y-122346310D01*
X146894000Y-122205750D01*
X146735250Y-122047000D01*
X145636000Y-122047000D01*
X145636000Y-122067000D01*
X145382000Y-122067000D01*
X145382000Y-122047000D01*
X144282750Y-122047000D01*
X144124000Y-122205750D01*
X144124000Y-122346310D01*
X144213806Y-122563122D01*
X144162569Y-122638110D01*
X144111560Y-122890000D01*
X144111560Y-123490000D01*
X144155838Y-123725317D01*
X144219678Y-123824528D01*
X144162569Y-123908110D01*
X144111560Y-124160000D01*
X144111560Y-124760000D01*
X144151074Y-124970000D01*
X143316802Y-124970000D01*
X142365000Y-124018198D01*
X142365000Y-120350000D01*
X144111560Y-120350000D01*
X144111560Y-120950000D01*
X144155838Y-121185317D01*
X144214178Y-121275980D01*
X144124000Y-121493690D01*
X144124000Y-121634250D01*
X144282750Y-121793000D01*
X145382000Y-121793000D01*
X145382000Y-121773000D01*
X145636000Y-121773000D01*
X145636000Y-121793000D01*
X146735250Y-121793000D01*
X146894000Y-121634250D01*
X146894000Y-121493690D01*
X146804194Y-121276878D01*
X146855431Y-121201890D01*
X146906440Y-120950000D01*
X146906440Y-120350000D01*
X146862162Y-120114683D01*
X146723090Y-119898559D01*
X146510890Y-119753569D01*
X146259000Y-119702560D01*
X144759000Y-119702560D01*
X144523683Y-119746838D01*
X144307559Y-119885910D01*
X144162569Y-120098110D01*
X144111560Y-120350000D01*
X142365000Y-120350000D01*
X142365000Y-119189500D01*
X142307148Y-118898661D01*
X142307148Y-118898660D01*
X142142401Y-118652099D01*
X141587622Y-118097320D01*
X141587662Y-118051833D01*
X141445617Y-117708057D01*
X141182827Y-117444808D01*
X140839299Y-117302162D01*
X140467333Y-117301838D01*
X140123557Y-117443883D01*
X139957226Y-117609924D01*
X139952000Y-117604698D01*
X139952000Y-116800210D01*
X140123500Y-116834940D01*
X141623500Y-116834940D01*
X141858817Y-116790662D01*
X142074941Y-116651590D01*
X142219931Y-116439390D01*
X142270940Y-116187500D01*
X142270940Y-116173250D01*
X144888500Y-116173250D01*
X144888500Y-116313810D01*
X144985173Y-116547199D01*
X145163802Y-116725827D01*
X145397191Y-116822500D01*
X145987750Y-116822500D01*
X146146500Y-116663750D01*
X146146500Y-116014500D01*
X146400500Y-116014500D01*
X146400500Y-116663750D01*
X146559250Y-116822500D01*
X147149809Y-116822500D01*
X147383198Y-116725827D01*
X147561827Y-116547199D01*
X147658500Y-116313810D01*
X147658500Y-116173250D01*
X147499750Y-116014500D01*
X146400500Y-116014500D01*
X146146500Y-116014500D01*
X145047250Y-116014500D01*
X144888500Y-116173250D01*
X142270940Y-116173250D01*
X142270940Y-115587500D01*
X142231426Y-115377500D01*
X143670928Y-115377500D01*
X143732883Y-115527443D01*
X143995673Y-115790692D01*
X144339201Y-115933338D01*
X144711167Y-115933662D01*
X145054943Y-115791617D01*
X145086114Y-115760500D01*
X146146500Y-115760500D01*
X146146500Y-115740500D01*
X146400500Y-115740500D01*
X146400500Y-115760500D01*
X147499750Y-115760500D01*
X147658500Y-115601750D01*
X147658500Y-115461190D01*
X147623834Y-115377500D01*
X152400000Y-115377500D01*
X152690839Y-115319648D01*
X152937401Y-115154901D01*
X154559000Y-113533302D01*
X154559000Y-113638910D01*
X154655673Y-113872299D01*
X154834302Y-114050927D01*
X154987780Y-114114500D01*
X154965585Y-114129330D01*
X154640729Y-114615511D01*
X154526655Y-115189000D01*
X154640729Y-115762489D01*
X154965585Y-116248670D01*
X155280366Y-116459000D01*
X154965585Y-116669330D01*
X154640729Y-117155511D01*
X154526655Y-117729000D01*
X154640729Y-118302489D01*
X154965585Y-118788670D01*
X155451766Y-119113526D01*
X156025255Y-119227600D01*
X156394745Y-119227600D01*
X156968234Y-119113526D01*
X157454415Y-118788670D01*
X157779271Y-118302489D01*
X157893345Y-117729000D01*
X157779271Y-117155511D01*
X157454415Y-116669330D01*
X157139634Y-116459000D01*
X157454415Y-116248670D01*
X157779271Y-115762489D01*
X157893345Y-115189000D01*
X157779271Y-114615511D01*
X157454415Y-114129330D01*
X157432220Y-114114500D01*
X157585698Y-114050927D01*
X157764327Y-113872299D01*
X157861000Y-113638910D01*
X157861000Y-112934750D01*
X157702250Y-112776000D01*
X156337000Y-112776000D01*
X156337000Y-112796000D01*
X156083000Y-112796000D01*
X156083000Y-112776000D01*
X156063000Y-112776000D01*
X156063000Y-112522000D01*
X156083000Y-112522000D01*
X156083000Y-111309150D01*
X156337000Y-111309150D01*
X156337000Y-112522000D01*
X157702250Y-112522000D01*
X157861000Y-112363250D01*
X157861000Y-111659090D01*
X157764327Y-111425701D01*
X157585698Y-111247073D01*
X157352309Y-111150400D01*
X156495750Y-111150400D01*
X156337000Y-111309150D01*
X156083000Y-111309150D01*
X155924250Y-111150400D01*
X155067691Y-111150400D01*
X154874500Y-111230422D01*
X154874500Y-109474000D01*
X154822969Y-109214940D01*
X154816648Y-109183160D01*
X154651901Y-108936599D01*
X153525567Y-107810265D01*
X153525662Y-107701333D01*
X153383617Y-107357557D01*
X153120827Y-107094308D01*
X152777299Y-106951662D01*
X152405333Y-106951338D01*
X152061557Y-107093383D01*
X151798308Y-107356173D01*
X151655662Y-107699701D01*
X151655338Y-108071667D01*
X151785092Y-108385698D01*
X151607808Y-108562673D01*
X151465162Y-108906201D01*
X151464838Y-109278167D01*
X151606883Y-109621943D01*
X151712710Y-109727954D01*
X151607808Y-109832673D01*
X151465162Y-110176201D01*
X151464838Y-110548167D01*
X151606883Y-110891943D01*
X151744404Y-111029704D01*
X151671308Y-111102673D01*
X151528662Y-111446201D01*
X151528338Y-111818167D01*
X151636318Y-112079500D01*
X149793802Y-112079500D01*
X147984401Y-110270099D01*
X147737839Y-110105352D01*
X147621389Y-110082189D01*
X147670940Y-109837500D01*
X147670940Y-109237500D01*
X147626662Y-109002183D01*
X147562822Y-108902972D01*
X147619931Y-108819390D01*
X147670940Y-108567500D01*
X147670940Y-107967500D01*
X147626662Y-107732183D01*
X147562822Y-107632972D01*
X147619931Y-107549390D01*
X147670940Y-107297500D01*
X147670940Y-106697500D01*
X147626662Y-106462183D01*
X147487590Y-106246059D01*
X147275390Y-106101069D01*
X147023500Y-106050060D01*
X145523500Y-106050060D01*
X145288183Y-106094338D01*
X145286000Y-106095743D01*
X145286000Y-105600500D01*
X145254174Y-105440500D01*
X145228148Y-105309660D01*
X145063401Y-105063099D01*
X143630302Y-103630000D01*
X151576040Y-103630000D01*
X151529559Y-103659910D01*
X151529559Y-103659910D01*
G37*
X151529559Y-103659910D02*
X151384569Y-103872110D01*
X151333560Y-104124000D01*
X151333560Y-106124000D01*
X151377838Y-106359317D01*
X151516910Y-106575441D01*
X151729110Y-106720431D01*
X151981000Y-106771440D01*
X153581000Y-106771440D01*
X153816317Y-106727162D01*
X154032441Y-106588090D01*
X154177431Y-106375890D01*
X154228440Y-106124000D01*
X154228440Y-105994011D01*
X154308701Y-106027338D01*
X154680667Y-106027662D01*
X155024443Y-105885617D01*
X155029000Y-105881068D01*
X155029000Y-106250309D01*
X155125673Y-106483698D01*
X155304301Y-106662327D01*
X155537690Y-106759000D01*
X156178250Y-106759000D01*
X156337000Y-106600250D01*
X156337000Y-105251000D01*
X156591000Y-105251000D01*
X156591000Y-106600250D01*
X156749750Y-106759000D01*
X157390310Y-106759000D01*
X157623699Y-106662327D01*
X157802327Y-106483698D01*
X157899000Y-106250309D01*
X157899000Y-105409750D01*
X157740250Y-105251000D01*
X156591000Y-105251000D01*
X156337000Y-105251000D01*
X156317000Y-105251000D01*
X156317000Y-104997000D01*
X156337000Y-104997000D01*
X156337000Y-104977000D01*
X156591000Y-104977000D01*
X156591000Y-104997000D01*
X157740250Y-104997000D01*
X157899000Y-104838250D01*
X157899000Y-103997691D01*
X157802327Y-103764302D01*
X157668026Y-103630000D01*
X157990698Y-103630000D01*
X158180500Y-103819802D01*
X158180500Y-113982500D01*
X158238352Y-114273339D01*
X158403099Y-114519901D01*
X158846732Y-114963534D01*
X158974599Y-115154901D01*
X159000967Y-115172519D01*
X158886941Y-115343171D01*
X158778667Y-115887500D01*
X158886941Y-116431829D01*
X159195278Y-116893289D01*
X159590699Y-117157500D01*
X159195278Y-117421711D01*
X158886941Y-117883171D01*
X158778667Y-118427500D01*
X158886941Y-118971829D01*
X159195278Y-119433289D01*
X159590699Y-119697500D01*
X159195278Y-119961711D01*
X158886941Y-120423171D01*
X158778667Y-120967500D01*
X158886941Y-121511829D01*
X159195278Y-121973289D01*
X159590699Y-122237500D01*
X159195278Y-122501711D01*
X158886941Y-122963171D01*
X158778667Y-123507500D01*
X158886941Y-124051829D01*
X159195278Y-124513289D01*
X159590330Y-124777254D01*
X159574238Y-124781975D01*
X159140309Y-125131514D01*
X158873173Y-125620504D01*
X158856490Y-125700440D01*
X158978648Y-125920500D01*
X160464500Y-125920500D01*
X160464500Y-125900500D01*
X160718500Y-125900500D01*
X160718500Y-125920500D01*
X162204352Y-125920500D01*
X162326510Y-125700440D01*
X162309827Y-125620504D01*
X162042691Y-125131514D01*
X161608762Y-124781975D01*
X161592670Y-124777254D01*
X161987722Y-124513289D01*
X162296059Y-124051829D01*
X162404333Y-123507500D01*
X162296059Y-122963171D01*
X161987722Y-122501711D01*
X161592301Y-122237500D01*
X161987722Y-121973289D01*
X162296059Y-121511829D01*
X162404333Y-120967500D01*
X162296059Y-120423171D01*
X161987722Y-119961711D01*
X161592301Y-119697500D01*
X161987722Y-119433289D01*
X162296059Y-118971829D01*
X162404333Y-118427500D01*
X162296059Y-117883171D01*
X161987722Y-117421711D01*
X161592301Y-117157500D01*
X161987722Y-116893289D01*
X162296059Y-116431829D01*
X162357192Y-116124494D01*
X162721099Y-116488401D01*
X162967661Y-116653148D01*
X163258500Y-116711000D01*
X165715738Y-116711000D01*
X165915971Y-117010670D01*
X166230752Y-117221000D01*
X165915971Y-117431330D01*
X165591115Y-117917511D01*
X165477041Y-118491000D01*
X165591115Y-119064489D01*
X165703346Y-119232455D01*
X165630327Y-119159308D01*
X165286799Y-119016662D01*
X164914833Y-119016338D01*
X164571057Y-119158383D01*
X164307808Y-119421173D01*
X164165162Y-119764701D01*
X164164838Y-120136667D01*
X164306883Y-120480443D01*
X164340000Y-120513618D01*
X164340000Y-124587000D01*
X164397852Y-124877839D01*
X164562599Y-125124401D01*
X165489013Y-126050815D01*
X165477041Y-126111000D01*
X165591115Y-126684489D01*
X165915971Y-127170670D01*
X166239228Y-127386664D01*
X166116510Y-127444179D01*
X165722312Y-127876053D01*
X165550042Y-128291974D01*
X165671183Y-128524000D01*
X166878000Y-128524000D01*
X166878000Y-128504000D01*
X167132000Y-128504000D01*
X167132000Y-128524000D01*
X167152000Y-128524000D01*
X167152000Y-128778000D01*
X167132000Y-128778000D01*
X167132000Y-129985469D01*
X167364027Y-130105968D01*
X167893490Y-129857821D01*
X168275008Y-129439839D01*
X168455971Y-129710670D01*
X168942152Y-130035526D01*
X169515641Y-130149600D01*
X169574359Y-130149600D01*
X170147848Y-130035526D01*
X170634029Y-129710670D01*
X170958885Y-129224489D01*
X171072959Y-128651000D01*
X170958885Y-128077511D01*
X170634029Y-127591330D01*
X170319248Y-127381000D01*
X170634029Y-127170670D01*
X170958885Y-126684489D01*
X171072959Y-126111000D01*
X170958885Y-125537511D01*
X170634029Y-125051330D01*
X170319248Y-124841000D01*
X170634029Y-124630670D01*
X170958885Y-124144489D01*
X171072959Y-123571000D01*
X170958885Y-122997511D01*
X170634029Y-122511330D01*
X170319248Y-122301000D01*
X170634029Y-122090670D01*
X170958885Y-121604489D01*
X171072959Y-121031000D01*
X170958885Y-120457511D01*
X170634029Y-119971330D01*
X170319248Y-119761000D01*
X170634029Y-119550670D01*
X170958885Y-119064489D01*
X171072959Y-118491000D01*
X170984145Y-118044500D01*
X173103698Y-118044500D01*
X174024099Y-118964901D01*
X174201526Y-119083454D01*
X174435278Y-119433289D01*
X174830330Y-119697254D01*
X174814238Y-119701975D01*
X174380309Y-120051514D01*
X174113173Y-120540504D01*
X174096490Y-120620440D01*
X174218648Y-120840500D01*
X175704500Y-120840500D01*
X175704500Y-120820500D01*
X175958500Y-120820500D01*
X175958500Y-120840500D01*
X175978500Y-120840500D01*
X175978500Y-121094500D01*
X175958500Y-121094500D01*
X175958500Y-121114500D01*
X175704500Y-121114500D01*
X175704500Y-121094500D01*
X174218648Y-121094500D01*
X174096490Y-121314560D01*
X174113173Y-121394496D01*
X174380309Y-121883486D01*
X174814238Y-122233025D01*
X174830330Y-122237746D01*
X174435278Y-122501711D01*
X174126941Y-122963171D01*
X174018667Y-123507500D01*
X174126941Y-124051829D01*
X174435278Y-124513289D01*
X174830699Y-124777500D01*
X174435278Y-125041711D01*
X174126941Y-125503171D01*
X174018667Y-126047500D01*
X174126941Y-126591829D01*
X174435278Y-127053289D01*
X174830699Y-127317500D01*
X174435278Y-127581711D01*
X174126941Y-128043171D01*
X174018667Y-128587500D01*
X174126941Y-129131829D01*
X174435278Y-129593289D01*
X174896738Y-129901626D01*
X175441067Y-130009900D01*
X176191798Y-130009900D01*
X176024698Y-130177000D01*
X156895468Y-130177000D01*
X156968234Y-130162526D01*
X157454415Y-129837670D01*
X157779271Y-129351489D01*
X157893345Y-128778000D01*
X157855453Y-128587500D01*
X158778667Y-128587500D01*
X158886941Y-129131829D01*
X159195278Y-129593289D01*
X159656738Y-129901626D01*
X160201067Y-130009900D01*
X160981933Y-130009900D01*
X161526262Y-129901626D01*
X161987722Y-129593289D01*
X162296059Y-129131829D01*
X162320287Y-129010026D01*
X165550042Y-129010026D01*
X165722312Y-129425947D01*
X166116510Y-129857821D01*
X166645973Y-130105968D01*
X166878000Y-129985469D01*
X166878000Y-128778000D01*
X165671183Y-128778000D01*
X165550042Y-129010026D01*
X162320287Y-129010026D01*
X162404333Y-128587500D01*
X162296059Y-128043171D01*
X161987722Y-127581711D01*
X161592670Y-127317746D01*
X161608762Y-127313025D01*
X162042691Y-126963486D01*
X162309827Y-126474496D01*
X162326510Y-126394560D01*
X162204352Y-126174500D01*
X160718500Y-126174500D01*
X160718500Y-126194500D01*
X160464500Y-126194500D01*
X160464500Y-126174500D01*
X158978648Y-126174500D01*
X158856490Y-126394560D01*
X158873173Y-126474496D01*
X159140309Y-126963486D01*
X159574238Y-127313025D01*
X159590330Y-127317746D01*
X159195278Y-127581711D01*
X158886941Y-128043171D01*
X158778667Y-128587500D01*
X157855453Y-128587500D01*
X157779271Y-128204511D01*
X157454415Y-127718330D01*
X157139634Y-127508000D01*
X157454415Y-127297670D01*
X157779271Y-126811489D01*
X157893345Y-126238000D01*
X157779271Y-125664511D01*
X157454415Y-125178330D01*
X157432220Y-125163500D01*
X157585698Y-125099927D01*
X157764327Y-124921299D01*
X157861000Y-124687910D01*
X157861000Y-123983750D01*
X157702250Y-123825000D01*
X156337000Y-123825000D01*
X156337000Y-123845000D01*
X156083000Y-123845000D01*
X156083000Y-123825000D01*
X154717750Y-123825000D01*
X154559000Y-123983750D01*
X154559000Y-124687910D01*
X154655673Y-124921299D01*
X154834302Y-125099927D01*
X154987780Y-125163500D01*
X154965585Y-125178330D01*
X154640729Y-125664511D01*
X154526655Y-126238000D01*
X154640729Y-126811489D01*
X154965585Y-127297670D01*
X155280366Y-127508000D01*
X154965585Y-127718330D01*
X154640729Y-128204511D01*
X154526655Y-128778000D01*
X154640729Y-129351489D01*
X154965585Y-129837670D01*
X155451766Y-130162526D01*
X155524532Y-130177000D01*
X152197278Y-130177000D01*
X152255431Y-130091890D01*
X152306440Y-129840000D01*
X152306440Y-129240000D01*
X152262162Y-129004683D01*
X152198322Y-128905472D01*
X152255431Y-128821890D01*
X152306440Y-128570000D01*
X152306440Y-127970000D01*
X152291020Y-127888048D01*
X152403701Y-127934838D01*
X152775667Y-127935162D01*
X153119443Y-127793117D01*
X153382692Y-127530327D01*
X153525338Y-127186799D01*
X153525662Y-126814833D01*
X153383617Y-126471057D01*
X153120827Y-126207808D01*
X152777299Y-126065162D01*
X152405333Y-126064838D01*
X152289711Y-126112612D01*
X152306440Y-126030000D01*
X152306440Y-125430000D01*
X152262162Y-125194683D01*
X152198322Y-125095472D01*
X152255431Y-125011890D01*
X152306440Y-124760000D01*
X152306440Y-124160000D01*
X152262162Y-123924683D01*
X152198322Y-123825472D01*
X152255431Y-123741890D01*
X152306440Y-123490000D01*
X152306440Y-122890000D01*
X152272212Y-122708090D01*
X154559000Y-122708090D01*
X154559000Y-123412250D01*
X154717750Y-123571000D01*
X156083000Y-123571000D01*
X156083000Y-122358150D01*
X156337000Y-122358150D01*
X156337000Y-123571000D01*
X157702250Y-123571000D01*
X157861000Y-123412250D01*
X157861000Y-122708090D01*
X157764327Y-122474701D01*
X157585698Y-122296073D01*
X157352309Y-122199400D01*
X156495750Y-122199400D01*
X156337000Y-122358150D01*
X156083000Y-122358150D01*
X155924250Y-122199400D01*
X155067691Y-122199400D01*
X154834302Y-122296073D01*
X154655673Y-122474701D01*
X154559000Y-122708090D01*
X152272212Y-122708090D01*
X152262162Y-122654683D01*
X152198322Y-122555472D01*
X152255431Y-122471890D01*
X152306440Y-122220000D01*
X152306440Y-121620000D01*
X152262162Y-121384683D01*
X152198322Y-121285472D01*
X152255431Y-121201890D01*
X152306440Y-120950000D01*
X152306440Y-120350000D01*
X152262162Y-120114683D01*
X152123090Y-119898559D01*
X151910890Y-119753569D01*
X151659000Y-119702560D01*
X150159000Y-119702560D01*
X149923683Y-119746838D01*
X149707559Y-119885910D01*
X149562569Y-120098110D01*
X149511560Y-120350000D01*
X149511560Y-120950000D01*
X149555838Y-121185317D01*
X149619678Y-121284528D01*
X149562569Y-121368110D01*
X149511560Y-121620000D01*
X149511560Y-122220000D01*
X149555838Y-122455317D01*
X149619678Y-122554528D01*
X149562569Y-122638110D01*
X149511560Y-122890000D01*
X149511560Y-123490000D01*
X149555838Y-123725317D01*
X149619678Y-123824528D01*
X149562569Y-123908110D01*
X149511560Y-124160000D01*
X149511560Y-124760000D01*
X149555838Y-124995317D01*
X149619678Y-125094528D01*
X149562569Y-125178110D01*
X149511560Y-125430000D01*
X149511560Y-126030000D01*
X149555838Y-126265317D01*
X149619678Y-126364528D01*
X149562569Y-126448110D01*
X149511560Y-126700000D01*
X149511560Y-127100758D01*
X148873401Y-126462599D01*
X148626839Y-126297852D01*
X148336000Y-126240000D01*
X147059302Y-126240000D01*
X149063901Y-124235401D01*
X149228648Y-123988839D01*
X149286500Y-123698000D01*
X149286500Y-118805802D01*
X149936180Y-118156122D01*
X149981667Y-118156162D01*
X150325443Y-118014117D01*
X150588692Y-117751327D01*
X150731338Y-117407799D01*
X150731662Y-117035833D01*
X150589617Y-116692057D01*
X150326827Y-116428808D01*
X149983299Y-116286162D01*
X149611333Y-116285838D01*
X149267557Y-116427883D01*
X149004308Y-116690673D01*
X148861662Y-117034201D01*
X148861621Y-117081077D01*
X147989099Y-117953599D01*
X147824352Y-118200161D01*
X147766500Y-118491000D01*
X147766500Y-123383198D01*
X146906440Y-124243258D01*
X146906440Y-124160000D01*
X146862162Y-123924683D01*
X146798322Y-123825472D01*
X146855431Y-123741890D01*
X146906440Y-123490000D01*
X146906440Y-122890000D01*
X146862162Y-122654683D01*
X146803822Y-122564020D01*
X146894000Y-122346310D01*
X146894000Y-122205750D01*
X146735250Y-122047000D01*
X145636000Y-122047000D01*
X145636000Y-122067000D01*
X145382000Y-122067000D01*
X145382000Y-122047000D01*
X144282750Y-122047000D01*
X144124000Y-122205750D01*
X144124000Y-122346310D01*
X144213806Y-122563122D01*
X144162569Y-122638110D01*
X144111560Y-122890000D01*
X144111560Y-123490000D01*
X144155838Y-123725317D01*
X144219678Y-123824528D01*
X144162569Y-123908110D01*
X144111560Y-124160000D01*
X144111560Y-124760000D01*
X144151074Y-124970000D01*
X143316802Y-124970000D01*
X142365000Y-124018198D01*
X142365000Y-120350000D01*
X144111560Y-120350000D01*
X144111560Y-120950000D01*
X144155838Y-121185317D01*
X144214178Y-121275980D01*
X144124000Y-121493690D01*
X144124000Y-121634250D01*
X144282750Y-121793000D01*
X145382000Y-121793000D01*
X145382000Y-121773000D01*
X145636000Y-121773000D01*
X145636000Y-121793000D01*
X146735250Y-121793000D01*
X146894000Y-121634250D01*
X146894000Y-121493690D01*
X146804194Y-121276878D01*
X146855431Y-121201890D01*
X146906440Y-120950000D01*
X146906440Y-120350000D01*
X146862162Y-120114683D01*
X146723090Y-119898559D01*
X146510890Y-119753569D01*
X146259000Y-119702560D01*
X144759000Y-119702560D01*
X144523683Y-119746838D01*
X144307559Y-119885910D01*
X144162569Y-120098110D01*
X144111560Y-120350000D01*
X142365000Y-120350000D01*
X142365000Y-119189500D01*
X142307148Y-118898661D01*
X142307148Y-118898660D01*
X142142401Y-118652099D01*
X141587622Y-118097320D01*
X141587662Y-118051833D01*
X141445617Y-117708057D01*
X141182827Y-117444808D01*
X140839299Y-117302162D01*
X140467333Y-117301838D01*
X140123557Y-117443883D01*
X139957226Y-117609924D01*
X139952000Y-117604698D01*
X139952000Y-116800210D01*
X140123500Y-116834940D01*
X141623500Y-116834940D01*
X141858817Y-116790662D01*
X142074941Y-116651590D01*
X142219931Y-116439390D01*
X142270940Y-116187500D01*
X142270940Y-116173250D01*
X144888500Y-116173250D01*
X144888500Y-116313810D01*
X144985173Y-116547199D01*
X145163802Y-116725827D01*
X145397191Y-116822500D01*
X145987750Y-116822500D01*
X146146500Y-116663750D01*
X146146500Y-116014500D01*
X146400500Y-116014500D01*
X146400500Y-116663750D01*
X146559250Y-116822500D01*
X147149809Y-116822500D01*
X147383198Y-116725827D01*
X147561827Y-116547199D01*
X147658500Y-116313810D01*
X147658500Y-116173250D01*
X147499750Y-116014500D01*
X146400500Y-116014500D01*
X146146500Y-116014500D01*
X145047250Y-116014500D01*
X144888500Y-116173250D01*
X142270940Y-116173250D01*
X142270940Y-115587500D01*
X142231426Y-115377500D01*
X143670928Y-115377500D01*
X143732883Y-115527443D01*
X143995673Y-115790692D01*
X144339201Y-115933338D01*
X144711167Y-115933662D01*
X145054943Y-115791617D01*
X145086114Y-115760500D01*
X146146500Y-115760500D01*
X146146500Y-115740500D01*
X146400500Y-115740500D01*
X146400500Y-115760500D01*
X147499750Y-115760500D01*
X147658500Y-115601750D01*
X147658500Y-115461190D01*
X147623834Y-115377500D01*
X152400000Y-115377500D01*
X152690839Y-115319648D01*
X152937401Y-115154901D01*
X154559000Y-113533302D01*
X154559000Y-113638910D01*
X154655673Y-113872299D01*
X154834302Y-114050927D01*
X154987780Y-114114500D01*
X154965585Y-114129330D01*
X154640729Y-114615511D01*
X154526655Y-115189000D01*
X154640729Y-115762489D01*
X154965585Y-116248670D01*
X155280366Y-116459000D01*
X154965585Y-116669330D01*
X154640729Y-117155511D01*
X154526655Y-117729000D01*
X154640729Y-118302489D01*
X154965585Y-118788670D01*
X155451766Y-119113526D01*
X156025255Y-119227600D01*
X156394745Y-119227600D01*
X156968234Y-119113526D01*
X157454415Y-118788670D01*
X157779271Y-118302489D01*
X157893345Y-117729000D01*
X157779271Y-117155511D01*
X157454415Y-116669330D01*
X157139634Y-116459000D01*
X157454415Y-116248670D01*
X157779271Y-115762489D01*
X157893345Y-115189000D01*
X157779271Y-114615511D01*
X157454415Y-114129330D01*
X157432220Y-114114500D01*
X157585698Y-114050927D01*
X157764327Y-113872299D01*
X157861000Y-113638910D01*
X157861000Y-112934750D01*
X157702250Y-112776000D01*
X156337000Y-112776000D01*
X156337000Y-112796000D01*
X156083000Y-112796000D01*
X156083000Y-112776000D01*
X156063000Y-112776000D01*
X156063000Y-112522000D01*
X156083000Y-112522000D01*
X156083000Y-111309150D01*
X156337000Y-111309150D01*
X156337000Y-112522000D01*
X157702250Y-112522000D01*
X157861000Y-112363250D01*
X157861000Y-111659090D01*
X157764327Y-111425701D01*
X157585698Y-111247073D01*
X157352309Y-111150400D01*
X156495750Y-111150400D01*
X156337000Y-111309150D01*
X156083000Y-111309150D01*
X155924250Y-111150400D01*
X155067691Y-111150400D01*
X154874500Y-111230422D01*
X154874500Y-109474000D01*
X154822969Y-109214940D01*
X154816648Y-109183160D01*
X154651901Y-108936599D01*
X153525567Y-107810265D01*
X153525662Y-107701333D01*
X153383617Y-107357557D01*
X153120827Y-107094308D01*
X152777299Y-106951662D01*
X152405333Y-106951338D01*
X152061557Y-107093383D01*
X151798308Y-107356173D01*
X151655662Y-107699701D01*
X151655338Y-108071667D01*
X151785092Y-108385698D01*
X151607808Y-108562673D01*
X151465162Y-108906201D01*
X151464838Y-109278167D01*
X151606883Y-109621943D01*
X151712710Y-109727954D01*
X151607808Y-109832673D01*
X151465162Y-110176201D01*
X151464838Y-110548167D01*
X151606883Y-110891943D01*
X151744404Y-111029704D01*
X151671308Y-111102673D01*
X151528662Y-111446201D01*
X151528338Y-111818167D01*
X151636318Y-112079500D01*
X149793802Y-112079500D01*
X147984401Y-110270099D01*
X147737839Y-110105352D01*
X147621389Y-110082189D01*
X147670940Y-109837500D01*
X147670940Y-109237500D01*
X147626662Y-109002183D01*
X147562822Y-108902972D01*
X147619931Y-108819390D01*
X147670940Y-108567500D01*
X147670940Y-107967500D01*
X147626662Y-107732183D01*
X147562822Y-107632972D01*
X147619931Y-107549390D01*
X147670940Y-107297500D01*
X147670940Y-106697500D01*
X147626662Y-106462183D01*
X147487590Y-106246059D01*
X147275390Y-106101069D01*
X147023500Y-106050060D01*
X145523500Y-106050060D01*
X145288183Y-106094338D01*
X145286000Y-106095743D01*
X145286000Y-105600500D01*
X145254174Y-105440500D01*
X145228148Y-105309660D01*
X145063401Y-105063099D01*
X143630302Y-103630000D01*
X151576040Y-103630000D01*
X151529559Y-103659910D01*
G36*
X164428060Y-95774000D02*
X164472338Y-96009317D01*
X164611410Y-96225441D01*
X164823610Y-96370431D01*
X165075500Y-96421440D01*
X166775500Y-96421440D01*
X167010817Y-96377162D01*
X167226941Y-96238090D01*
X167371931Y-96025890D01*
X167422940Y-95774000D01*
X167422940Y-95534000D01*
X168809560Y-95534000D01*
X168809560Y-95774000D01*
X168853838Y-96009317D01*
X168992910Y-96225441D01*
X169205110Y-96370431D01*
X169457000Y-96421440D01*
X171157000Y-96421440D01*
X171392317Y-96377162D01*
X171608441Y-96238090D01*
X171753431Y-96025890D01*
X171804440Y-95774000D01*
X171804440Y-95663242D01*
X173039500Y-96898302D01*
X173039500Y-103958537D01*
X173007308Y-103990673D01*
X172864662Y-104334201D01*
X172864338Y-104706167D01*
X173006383Y-105049943D01*
X173269173Y-105313192D01*
X173612701Y-105455838D01*
X173984667Y-105456162D01*
X174080517Y-105416558D01*
X174018667Y-105727500D01*
X174126941Y-106271829D01*
X174435278Y-106733289D01*
X174830699Y-106997500D01*
X174435278Y-107261711D01*
X174126941Y-107723171D01*
X174018667Y-108267500D01*
X174126941Y-108811829D01*
X174435278Y-109273289D01*
X174830699Y-109537500D01*
X174435278Y-109801711D01*
X174126941Y-110263171D01*
X174018667Y-110807500D01*
X174126941Y-111351829D01*
X174182167Y-111434481D01*
X174024099Y-111540099D01*
X170649586Y-114914612D01*
X170634029Y-114891330D01*
X170319248Y-114681000D01*
X170634029Y-114470670D01*
X170958885Y-113984489D01*
X171072959Y-113411000D01*
X170958885Y-112837511D01*
X170634029Y-112351330D01*
X170319248Y-112141000D01*
X170634029Y-111930670D01*
X170958885Y-111444489D01*
X171072959Y-110871000D01*
X171029381Y-110651921D01*
X171987401Y-109693901D01*
X172152148Y-109447339D01*
X172210000Y-109156500D01*
X172210000Y-99917000D01*
X172152148Y-99626161D01*
X171987401Y-99379599D01*
X171804440Y-99196638D01*
X171804440Y-97774000D01*
X171760162Y-97538683D01*
X171621090Y-97322559D01*
X171408890Y-97177569D01*
X171157000Y-97126560D01*
X169457000Y-97126560D01*
X169221683Y-97170838D01*
X169005559Y-97309910D01*
X168860569Y-97522110D01*
X168809560Y-97774000D01*
X168809560Y-99774000D01*
X168853838Y-100009317D01*
X168992910Y-100225441D01*
X169205110Y-100370431D01*
X169457000Y-100421440D01*
X170690000Y-100421440D01*
X170690000Y-106891132D01*
X170660490Y-106870969D01*
X170408600Y-106819960D01*
X169035000Y-106819960D01*
X169035000Y-101123500D01*
X168977148Y-100832661D01*
X168812401Y-100586099D01*
X167422940Y-99196638D01*
X167422940Y-97774000D01*
X167378662Y-97538683D01*
X167239590Y-97322559D01*
X167027390Y-97177569D01*
X166775500Y-97126560D01*
X165075500Y-97126560D01*
X164840183Y-97170838D01*
X164624059Y-97309910D01*
X164479069Y-97522110D01*
X164428060Y-97774000D01*
X164428060Y-99774000D01*
X164472338Y-100009317D01*
X164611410Y-100225441D01*
X164823610Y-100370431D01*
X165075500Y-100421440D01*
X166498138Y-100421440D01*
X167515000Y-101438302D01*
X167515000Y-106946790D01*
X167364027Y-106876032D01*
X167132000Y-106996531D01*
X167132000Y-108204000D01*
X167152000Y-108204000D01*
X167152000Y-108458000D01*
X167132000Y-108458000D01*
X167132000Y-108478000D01*
X166878000Y-108478000D01*
X166878000Y-108458000D01*
X165671183Y-108458000D01*
X165550042Y-108690026D01*
X165722312Y-109105947D01*
X166116510Y-109537821D01*
X166239228Y-109595336D01*
X165915971Y-109811330D01*
X165715738Y-110111000D01*
X162194382Y-110111000D01*
X161987722Y-109801711D01*
X161592301Y-109537500D01*
X161987722Y-109273289D01*
X162296059Y-108811829D01*
X162404333Y-108267500D01*
X162345550Y-107971974D01*
X165550042Y-107971974D01*
X165671183Y-108204000D01*
X166878000Y-108204000D01*
X166878000Y-106996531D01*
X166645973Y-106876032D01*
X166116510Y-107124179D01*
X165722312Y-107556053D01*
X165550042Y-107971974D01*
X162345550Y-107971974D01*
X162296059Y-107723171D01*
X161987722Y-107261711D01*
X161592301Y-106997500D01*
X161987722Y-106733289D01*
X162296059Y-106271829D01*
X162404333Y-105727500D01*
X162296059Y-105183171D01*
X161987722Y-104721711D01*
X161592301Y-104457500D01*
X161987722Y-104193289D01*
X162296059Y-103731829D01*
X162404333Y-103187500D01*
X162296059Y-102643171D01*
X161987722Y-102181711D01*
X161592301Y-101917500D01*
X161987722Y-101653289D01*
X162296059Y-101191829D01*
X162404333Y-100647500D01*
X162296059Y-100103171D01*
X161987722Y-99641711D01*
X161592301Y-99377500D01*
X161987722Y-99113289D01*
X162296059Y-98651829D01*
X162404333Y-98107500D01*
X162296059Y-97563171D01*
X161987722Y-97101711D01*
X161592301Y-96837500D01*
X161987722Y-96573289D01*
X162140960Y-96343952D01*
X162156673Y-96359692D01*
X162500201Y-96502338D01*
X162872167Y-96502662D01*
X163215943Y-96360617D01*
X163479192Y-96097827D01*
X163621838Y-95754299D01*
X163621879Y-95707423D01*
X163795302Y-95534000D01*
X164428060Y-95534000D01*
X164428060Y-95774000D01*
X164428060Y-95774000D01*
G37*
X164428060Y-95774000D02*
X164472338Y-96009317D01*
X164611410Y-96225441D01*
X164823610Y-96370431D01*
X165075500Y-96421440D01*
X166775500Y-96421440D01*
X167010817Y-96377162D01*
X167226941Y-96238090D01*
X167371931Y-96025890D01*
X167422940Y-95774000D01*
X167422940Y-95534000D01*
X168809560Y-95534000D01*
X168809560Y-95774000D01*
X168853838Y-96009317D01*
X168992910Y-96225441D01*
X169205110Y-96370431D01*
X169457000Y-96421440D01*
X171157000Y-96421440D01*
X171392317Y-96377162D01*
X171608441Y-96238090D01*
X171753431Y-96025890D01*
X171804440Y-95774000D01*
X171804440Y-95663242D01*
X173039500Y-96898302D01*
X173039500Y-103958537D01*
X173007308Y-103990673D01*
X172864662Y-104334201D01*
X172864338Y-104706167D01*
X173006383Y-105049943D01*
X173269173Y-105313192D01*
X173612701Y-105455838D01*
X173984667Y-105456162D01*
X174080517Y-105416558D01*
X174018667Y-105727500D01*
X174126941Y-106271829D01*
X174435278Y-106733289D01*
X174830699Y-106997500D01*
X174435278Y-107261711D01*
X174126941Y-107723171D01*
X174018667Y-108267500D01*
X174126941Y-108811829D01*
X174435278Y-109273289D01*
X174830699Y-109537500D01*
X174435278Y-109801711D01*
X174126941Y-110263171D01*
X174018667Y-110807500D01*
X174126941Y-111351829D01*
X174182167Y-111434481D01*
X174024099Y-111540099D01*
X170649586Y-114914612D01*
X170634029Y-114891330D01*
X170319248Y-114681000D01*
X170634029Y-114470670D01*
X170958885Y-113984489D01*
X171072959Y-113411000D01*
X170958885Y-112837511D01*
X170634029Y-112351330D01*
X170319248Y-112141000D01*
X170634029Y-111930670D01*
X170958885Y-111444489D01*
X171072959Y-110871000D01*
X171029381Y-110651921D01*
X171987401Y-109693901D01*
X172152148Y-109447339D01*
X172210000Y-109156500D01*
X172210000Y-99917000D01*
X172152148Y-99626161D01*
X171987401Y-99379599D01*
X171804440Y-99196638D01*
X171804440Y-97774000D01*
X171760162Y-97538683D01*
X171621090Y-97322559D01*
X171408890Y-97177569D01*
X171157000Y-97126560D01*
X169457000Y-97126560D01*
X169221683Y-97170838D01*
X169005559Y-97309910D01*
X168860569Y-97522110D01*
X168809560Y-97774000D01*
X168809560Y-99774000D01*
X168853838Y-100009317D01*
X168992910Y-100225441D01*
X169205110Y-100370431D01*
X169457000Y-100421440D01*
X170690000Y-100421440D01*
X170690000Y-106891132D01*
X170660490Y-106870969D01*
X170408600Y-106819960D01*
X169035000Y-106819960D01*
X169035000Y-101123500D01*
X168977148Y-100832661D01*
X168812401Y-100586099D01*
X167422940Y-99196638D01*
X167422940Y-97774000D01*
X167378662Y-97538683D01*
X167239590Y-97322559D01*
X167027390Y-97177569D01*
X166775500Y-97126560D01*
X165075500Y-97126560D01*
X164840183Y-97170838D01*
X164624059Y-97309910D01*
X164479069Y-97522110D01*
X164428060Y-97774000D01*
X164428060Y-99774000D01*
X164472338Y-100009317D01*
X164611410Y-100225441D01*
X164823610Y-100370431D01*
X165075500Y-100421440D01*
X166498138Y-100421440D01*
X167515000Y-101438302D01*
X167515000Y-106946790D01*
X167364027Y-106876032D01*
X167132000Y-106996531D01*
X167132000Y-108204000D01*
X167152000Y-108204000D01*
X167152000Y-108458000D01*
X167132000Y-108458000D01*
X167132000Y-108478000D01*
X166878000Y-108478000D01*
X166878000Y-108458000D01*
X165671183Y-108458000D01*
X165550042Y-108690026D01*
X165722312Y-109105947D01*
X166116510Y-109537821D01*
X166239228Y-109595336D01*
X165915971Y-109811330D01*
X165715738Y-110111000D01*
X162194382Y-110111000D01*
X161987722Y-109801711D01*
X161592301Y-109537500D01*
X161987722Y-109273289D01*
X162296059Y-108811829D01*
X162404333Y-108267500D01*
X162345550Y-107971974D01*
X165550042Y-107971974D01*
X165671183Y-108204000D01*
X166878000Y-108204000D01*
X166878000Y-106996531D01*
X166645973Y-106876032D01*
X166116510Y-107124179D01*
X165722312Y-107556053D01*
X165550042Y-107971974D01*
X162345550Y-107971974D01*
X162296059Y-107723171D01*
X161987722Y-107261711D01*
X161592301Y-106997500D01*
X161987722Y-106733289D01*
X162296059Y-106271829D01*
X162404333Y-105727500D01*
X162296059Y-105183171D01*
X161987722Y-104721711D01*
X161592301Y-104457500D01*
X161987722Y-104193289D01*
X162296059Y-103731829D01*
X162404333Y-103187500D01*
X162296059Y-102643171D01*
X161987722Y-102181711D01*
X161592301Y-101917500D01*
X161987722Y-101653289D01*
X162296059Y-101191829D01*
X162404333Y-100647500D01*
X162296059Y-100103171D01*
X161987722Y-99641711D01*
X161592301Y-99377500D01*
X161987722Y-99113289D01*
X162296059Y-98651829D01*
X162404333Y-98107500D01*
X162296059Y-97563171D01*
X161987722Y-97101711D01*
X161592301Y-96837500D01*
X161987722Y-96573289D01*
X162140960Y-96343952D01*
X162156673Y-96359692D01*
X162500201Y-96502338D01*
X162872167Y-96502662D01*
X163215943Y-96360617D01*
X163479192Y-96097827D01*
X163621838Y-95754299D01*
X163621879Y-95707423D01*
X163795302Y-95534000D01*
X164428060Y-95534000D01*
X164428060Y-95774000D01*
G36*
X139476060Y-109237500D02*
X139476060Y-109837500D01*
X139520338Y-110072817D01*
X139578678Y-110163480D01*
X139488500Y-110381190D01*
X139488500Y-110521750D01*
X139647250Y-110680500D01*
X140746500Y-110680500D01*
X140746500Y-110660500D01*
X141000500Y-110660500D01*
X141000500Y-110680500D01*
X142099750Y-110680500D01*
X142258500Y-110521750D01*
X142258500Y-110381190D01*
X142175261Y-110180233D01*
X142332901Y-110074901D01*
X142638519Y-109769283D01*
X142638338Y-109976667D01*
X142780383Y-110320443D01*
X142813500Y-110353618D01*
X142813500Y-112334198D01*
X142560198Y-112587500D01*
X142228414Y-112587500D01*
X142270940Y-112377500D01*
X142270940Y-111777500D01*
X142226662Y-111542183D01*
X142168322Y-111451520D01*
X142258500Y-111233810D01*
X142258500Y-111093250D01*
X142099750Y-110934500D01*
X141000500Y-110934500D01*
X141000500Y-110954500D01*
X140746500Y-110954500D01*
X140746500Y-110934500D01*
X139647250Y-110934500D01*
X139488500Y-111093250D01*
X139488500Y-111233810D01*
X139526959Y-111326658D01*
X139282161Y-111375352D01*
X139035599Y-111540099D01*
X138555000Y-112020698D01*
X138555000Y-109184368D01*
X138751201Y-109265838D01*
X139123167Y-109266162D01*
X139466943Y-109124117D01*
X139507148Y-109083982D01*
X139476060Y-109237500D01*
X139476060Y-109237500D01*
G37*
X139476060Y-109237500D02*
X139476060Y-109837500D01*
X139520338Y-110072817D01*
X139578678Y-110163480D01*
X139488500Y-110381190D01*
X139488500Y-110521750D01*
X139647250Y-110680500D01*
X140746500Y-110680500D01*
X140746500Y-110660500D01*
X141000500Y-110660500D01*
X141000500Y-110680500D01*
X142099750Y-110680500D01*
X142258500Y-110521750D01*
X142258500Y-110381190D01*
X142175261Y-110180233D01*
X142332901Y-110074901D01*
X142638519Y-109769283D01*
X142638338Y-109976667D01*
X142780383Y-110320443D01*
X142813500Y-110353618D01*
X142813500Y-112334198D01*
X142560198Y-112587500D01*
X142228414Y-112587500D01*
X142270940Y-112377500D01*
X142270940Y-111777500D01*
X142226662Y-111542183D01*
X142168322Y-111451520D01*
X142258500Y-111233810D01*
X142258500Y-111093250D01*
X142099750Y-110934500D01*
X141000500Y-110934500D01*
X141000500Y-110954500D01*
X140746500Y-110954500D01*
X140746500Y-110934500D01*
X139647250Y-110934500D01*
X139488500Y-111093250D01*
X139488500Y-111233810D01*
X139526959Y-111326658D01*
X139282161Y-111375352D01*
X139035599Y-111540099D01*
X138555000Y-112020698D01*
X138555000Y-109184368D01*
X138751201Y-109265838D01*
X139123167Y-109266162D01*
X139466943Y-109124117D01*
X139507148Y-109083982D01*
X139476060Y-109237500D01*
G36*
X158847599Y-90961401D02*
X159094161Y-91126148D01*
X159385000Y-91184000D01*
X177231198Y-91184000D01*
X178056000Y-92008802D01*
X178056000Y-92716698D01*
X177829401Y-92490099D01*
X177582839Y-92325352D01*
X177407274Y-92290430D01*
X177227722Y-92021711D01*
X176766262Y-91713374D01*
X176221933Y-91605100D01*
X175441067Y-91605100D01*
X174896738Y-91713374D01*
X174435278Y-92021711D01*
X174126941Y-92483171D01*
X174018667Y-93027500D01*
X174126941Y-93571829D01*
X174435278Y-94033289D01*
X174830699Y-94297500D01*
X174435278Y-94561711D01*
X174126941Y-95023171D01*
X174018667Y-95567500D01*
X174058486Y-95767684D01*
X172527401Y-94236599D01*
X172280839Y-94071852D01*
X171990000Y-94014000D01*
X171804440Y-94014000D01*
X171804440Y-93774000D01*
X171760162Y-93538683D01*
X171621090Y-93322559D01*
X171535331Y-93263963D01*
X171724943Y-93185617D01*
X171988192Y-92922827D01*
X172130838Y-92579299D01*
X172131162Y-92207333D01*
X171989117Y-91863557D01*
X171726327Y-91600308D01*
X171382799Y-91457662D01*
X171010833Y-91457338D01*
X170667057Y-91599383D01*
X170403808Y-91862173D01*
X170261162Y-92205701D01*
X170261121Y-92252577D01*
X169769599Y-92744099D01*
X169604852Y-92990661D01*
X169577820Y-93126560D01*
X169457000Y-93126560D01*
X169221683Y-93170838D01*
X169005559Y-93309910D01*
X168860569Y-93522110D01*
X168809560Y-93774000D01*
X168809560Y-94014000D01*
X167422940Y-94014000D01*
X167422940Y-93774000D01*
X167378662Y-93538683D01*
X167239590Y-93322559D01*
X167027390Y-93177569D01*
X166775500Y-93126560D01*
X165075500Y-93126560D01*
X164840183Y-93170838D01*
X164624059Y-93309910D01*
X164479069Y-93522110D01*
X164428060Y-93774000D01*
X164428060Y-94014000D01*
X163480500Y-94014000D01*
X163237914Y-94062254D01*
X163189660Y-94071852D01*
X162943099Y-94236599D01*
X162547320Y-94632378D01*
X162501833Y-94632338D01*
X162158057Y-94774383D01*
X162141121Y-94791289D01*
X161987722Y-94561711D01*
X161816040Y-94446997D01*
X161969817Y-94418062D01*
X162185941Y-94278990D01*
X162330931Y-94066790D01*
X162381940Y-93814900D01*
X162381940Y-92240100D01*
X162337662Y-92004783D01*
X162198590Y-91788659D01*
X161986390Y-91643669D01*
X161734500Y-91592660D01*
X159448500Y-91592660D01*
X159213183Y-91636938D01*
X158997059Y-91776010D01*
X158852069Y-91988210D01*
X158801060Y-92240100D01*
X158801060Y-93814900D01*
X158845338Y-94050217D01*
X158984410Y-94266341D01*
X159196610Y-94411331D01*
X159368303Y-94446100D01*
X159195278Y-94561711D01*
X158886941Y-95023171D01*
X158800386Y-95458312D01*
X157895099Y-96363599D01*
X157730352Y-96610161D01*
X157672500Y-96901000D01*
X157672500Y-98840698D01*
X157036638Y-99476560D01*
X155664000Y-99476560D01*
X155428683Y-99520838D01*
X155212559Y-99659910D01*
X155067569Y-99872110D01*
X155016560Y-100124000D01*
X155016560Y-102110000D01*
X154216000Y-102110000D01*
X154216000Y-101409750D01*
X154057250Y-101251000D01*
X152908000Y-101251000D01*
X152908000Y-101271000D01*
X152654000Y-101271000D01*
X152654000Y-101251000D01*
X151504750Y-101251000D01*
X151346000Y-101409750D01*
X151346000Y-102110000D01*
X146678302Y-102110000D01*
X148047901Y-100740401D01*
X148212648Y-100493840D01*
X148217495Y-100469470D01*
X148444500Y-100515440D01*
X149944500Y-100515440D01*
X150179817Y-100471162D01*
X150395941Y-100332090D01*
X150540931Y-100119890D01*
X150565676Y-99997691D01*
X151346000Y-99997691D01*
X151346000Y-100838250D01*
X151504750Y-100997000D01*
X152654000Y-100997000D01*
X152654000Y-99647750D01*
X152908000Y-99647750D01*
X152908000Y-100997000D01*
X154057250Y-100997000D01*
X154216000Y-100838250D01*
X154216000Y-99997691D01*
X154119327Y-99764302D01*
X153940699Y-99585673D01*
X153707310Y-99489000D01*
X153066750Y-99489000D01*
X152908000Y-99647750D01*
X152654000Y-99647750D01*
X152495250Y-99489000D01*
X151854690Y-99489000D01*
X151621301Y-99585673D01*
X151442673Y-99764302D01*
X151346000Y-99997691D01*
X150565676Y-99997691D01*
X150591940Y-99868000D01*
X150591940Y-99268000D01*
X150547662Y-99032683D01*
X150483822Y-98933472D01*
X150540931Y-98849890D01*
X150591940Y-98598000D01*
X150591940Y-97998000D01*
X150552426Y-97788000D01*
X155838037Y-97788000D01*
X155870173Y-97820192D01*
X156213701Y-97962838D01*
X156585667Y-97963162D01*
X156929443Y-97821117D01*
X157192692Y-97558327D01*
X157335338Y-97214799D01*
X157335662Y-96842833D01*
X157193617Y-96499057D01*
X156930827Y-96235808D01*
X156914184Y-96228897D01*
X157056443Y-96170117D01*
X157319692Y-95907327D01*
X157462338Y-95563799D01*
X157462662Y-95191833D01*
X157320617Y-94848057D01*
X157057827Y-94584808D01*
X156714299Y-94442162D01*
X156342333Y-94441838D01*
X155998557Y-94583883D01*
X155965382Y-94617000D01*
X152020230Y-94617000D01*
X152103443Y-94582617D01*
X152366692Y-94319827D01*
X152509338Y-93976299D01*
X152509379Y-93929423D01*
X153335362Y-93103440D01*
X154749500Y-93103440D01*
X154984817Y-93059162D01*
X155200941Y-92920090D01*
X155312340Y-92757052D01*
X155408682Y-92846385D01*
X155890556Y-93045975D01*
X156146500Y-92926836D01*
X156146500Y-91567000D01*
X156400500Y-91567000D01*
X156400500Y-92926836D01*
X156656444Y-93045975D01*
X157138318Y-92846385D01*
X157610688Y-92408379D01*
X157879483Y-91822946D01*
X157760867Y-91567000D01*
X156400500Y-91567000D01*
X156146500Y-91567000D01*
X156126500Y-91567000D01*
X156126500Y-91313000D01*
X156146500Y-91313000D01*
X156146500Y-89953164D01*
X156400500Y-89953164D01*
X156400500Y-91313000D01*
X157760867Y-91313000D01*
X157879483Y-91057054D01*
X157610688Y-90471621D01*
X157138318Y-90033615D01*
X156656444Y-89834025D01*
X156400500Y-89953164D01*
X156146500Y-89953164D01*
X155890556Y-89834025D01*
X155408682Y-90033615D01*
X155311102Y-90124097D01*
X155213590Y-89972559D01*
X155001390Y-89827569D01*
X154749500Y-89776560D01*
X152717500Y-89776560D01*
X152482183Y-89820838D01*
X152266059Y-89959910D01*
X152121069Y-90172110D01*
X152070060Y-90424000D01*
X152070060Y-92219138D01*
X151434820Y-92854378D01*
X151389333Y-92854338D01*
X151045557Y-92996383D01*
X150942781Y-93098979D01*
X150552570Y-92708768D01*
X150547662Y-92682683D01*
X150483822Y-92583472D01*
X150540931Y-92499890D01*
X150591940Y-92248000D01*
X150591940Y-91648000D01*
X150586296Y-91618005D01*
X150879701Y-91739838D01*
X151251667Y-91740162D01*
X151595443Y-91598117D01*
X151858692Y-91335327D01*
X152001338Y-90991799D01*
X152001662Y-90619833D01*
X151859617Y-90276057D01*
X151596827Y-90012808D01*
X151253299Y-89870162D01*
X150881333Y-89869838D01*
X150764772Y-89918000D01*
X150396063Y-89918000D01*
X150196390Y-89781569D01*
X149944500Y-89730560D01*
X148444500Y-89730560D01*
X148209183Y-89774838D01*
X147993059Y-89913910D01*
X147848069Y-90126110D01*
X147797060Y-90378000D01*
X147797060Y-90905758D01*
X147699000Y-90807698D01*
X147699000Y-90106500D01*
X147641148Y-89815661D01*
X147476401Y-89569099D01*
X146868802Y-88961500D01*
X156847698Y-88961500D01*
X158847599Y-90961401D01*
X158847599Y-90961401D01*
G37*
X158847599Y-90961401D02*
X159094161Y-91126148D01*
X159385000Y-91184000D01*
X177231198Y-91184000D01*
X178056000Y-92008802D01*
X178056000Y-92716698D01*
X177829401Y-92490099D01*
X177582839Y-92325352D01*
X177407274Y-92290430D01*
X177227722Y-92021711D01*
X176766262Y-91713374D01*
X176221933Y-91605100D01*
X175441067Y-91605100D01*
X174896738Y-91713374D01*
X174435278Y-92021711D01*
X174126941Y-92483171D01*
X174018667Y-93027500D01*
X174126941Y-93571829D01*
X174435278Y-94033289D01*
X174830699Y-94297500D01*
X174435278Y-94561711D01*
X174126941Y-95023171D01*
X174018667Y-95567500D01*
X174058486Y-95767684D01*
X172527401Y-94236599D01*
X172280839Y-94071852D01*
X171990000Y-94014000D01*
X171804440Y-94014000D01*
X171804440Y-93774000D01*
X171760162Y-93538683D01*
X171621090Y-93322559D01*
X171535331Y-93263963D01*
X171724943Y-93185617D01*
X171988192Y-92922827D01*
X172130838Y-92579299D01*
X172131162Y-92207333D01*
X171989117Y-91863557D01*
X171726327Y-91600308D01*
X171382799Y-91457662D01*
X171010833Y-91457338D01*
X170667057Y-91599383D01*
X170403808Y-91862173D01*
X170261162Y-92205701D01*
X170261121Y-92252577D01*
X169769599Y-92744099D01*
X169604852Y-92990661D01*
X169577820Y-93126560D01*
X169457000Y-93126560D01*
X169221683Y-93170838D01*
X169005559Y-93309910D01*
X168860569Y-93522110D01*
X168809560Y-93774000D01*
X168809560Y-94014000D01*
X167422940Y-94014000D01*
X167422940Y-93774000D01*
X167378662Y-93538683D01*
X167239590Y-93322559D01*
X167027390Y-93177569D01*
X166775500Y-93126560D01*
X165075500Y-93126560D01*
X164840183Y-93170838D01*
X164624059Y-93309910D01*
X164479069Y-93522110D01*
X164428060Y-93774000D01*
X164428060Y-94014000D01*
X163480500Y-94014000D01*
X163237914Y-94062254D01*
X163189660Y-94071852D01*
X162943099Y-94236599D01*
X162547320Y-94632378D01*
X162501833Y-94632338D01*
X162158057Y-94774383D01*
X162141121Y-94791289D01*
X161987722Y-94561711D01*
X161816040Y-94446997D01*
X161969817Y-94418062D01*
X162185941Y-94278990D01*
X162330931Y-94066790D01*
X162381940Y-93814900D01*
X162381940Y-92240100D01*
X162337662Y-92004783D01*
X162198590Y-91788659D01*
X161986390Y-91643669D01*
X161734500Y-91592660D01*
X159448500Y-91592660D01*
X159213183Y-91636938D01*
X158997059Y-91776010D01*
X158852069Y-91988210D01*
X158801060Y-92240100D01*
X158801060Y-93814900D01*
X158845338Y-94050217D01*
X158984410Y-94266341D01*
X159196610Y-94411331D01*
X159368303Y-94446100D01*
X159195278Y-94561711D01*
X158886941Y-95023171D01*
X158800386Y-95458312D01*
X157895099Y-96363599D01*
X157730352Y-96610161D01*
X157672500Y-96901000D01*
X157672500Y-98840698D01*
X157036638Y-99476560D01*
X155664000Y-99476560D01*
X155428683Y-99520838D01*
X155212559Y-99659910D01*
X155067569Y-99872110D01*
X155016560Y-100124000D01*
X155016560Y-102110000D01*
X154216000Y-102110000D01*
X154216000Y-101409750D01*
X154057250Y-101251000D01*
X152908000Y-101251000D01*
X152908000Y-101271000D01*
X152654000Y-101271000D01*
X152654000Y-101251000D01*
X151504750Y-101251000D01*
X151346000Y-101409750D01*
X151346000Y-102110000D01*
X146678302Y-102110000D01*
X148047901Y-100740401D01*
X148212648Y-100493840D01*
X148217495Y-100469470D01*
X148444500Y-100515440D01*
X149944500Y-100515440D01*
X150179817Y-100471162D01*
X150395941Y-100332090D01*
X150540931Y-100119890D01*
X150565676Y-99997691D01*
X151346000Y-99997691D01*
X151346000Y-100838250D01*
X151504750Y-100997000D01*
X152654000Y-100997000D01*
X152654000Y-99647750D01*
X152908000Y-99647750D01*
X152908000Y-100997000D01*
X154057250Y-100997000D01*
X154216000Y-100838250D01*
X154216000Y-99997691D01*
X154119327Y-99764302D01*
X153940699Y-99585673D01*
X153707310Y-99489000D01*
X153066750Y-99489000D01*
X152908000Y-99647750D01*
X152654000Y-99647750D01*
X152495250Y-99489000D01*
X151854690Y-99489000D01*
X151621301Y-99585673D01*
X151442673Y-99764302D01*
X151346000Y-99997691D01*
X150565676Y-99997691D01*
X150591940Y-99868000D01*
X150591940Y-99268000D01*
X150547662Y-99032683D01*
X150483822Y-98933472D01*
X150540931Y-98849890D01*
X150591940Y-98598000D01*
X150591940Y-97998000D01*
X150552426Y-97788000D01*
X155838037Y-97788000D01*
X155870173Y-97820192D01*
X156213701Y-97962838D01*
X156585667Y-97963162D01*
X156929443Y-97821117D01*
X157192692Y-97558327D01*
X157335338Y-97214799D01*
X157335662Y-96842833D01*
X157193617Y-96499057D01*
X156930827Y-96235808D01*
X156914184Y-96228897D01*
X157056443Y-96170117D01*
X157319692Y-95907327D01*
X157462338Y-95563799D01*
X157462662Y-95191833D01*
X157320617Y-94848057D01*
X157057827Y-94584808D01*
X156714299Y-94442162D01*
X156342333Y-94441838D01*
X155998557Y-94583883D01*
X155965382Y-94617000D01*
X152020230Y-94617000D01*
X152103443Y-94582617D01*
X152366692Y-94319827D01*
X152509338Y-93976299D01*
X152509379Y-93929423D01*
X153335362Y-93103440D01*
X154749500Y-93103440D01*
X154984817Y-93059162D01*
X155200941Y-92920090D01*
X155312340Y-92757052D01*
X155408682Y-92846385D01*
X155890556Y-93045975D01*
X156146500Y-92926836D01*
X156146500Y-91567000D01*
X156400500Y-91567000D01*
X156400500Y-92926836D01*
X156656444Y-93045975D01*
X157138318Y-92846385D01*
X157610688Y-92408379D01*
X157879483Y-91822946D01*
X157760867Y-91567000D01*
X156400500Y-91567000D01*
X156146500Y-91567000D01*
X156126500Y-91567000D01*
X156126500Y-91313000D01*
X156146500Y-91313000D01*
X156146500Y-89953164D01*
X156400500Y-89953164D01*
X156400500Y-91313000D01*
X157760867Y-91313000D01*
X157879483Y-91057054D01*
X157610688Y-90471621D01*
X157138318Y-90033615D01*
X156656444Y-89834025D01*
X156400500Y-89953164D01*
X156146500Y-89953164D01*
X155890556Y-89834025D01*
X155408682Y-90033615D01*
X155311102Y-90124097D01*
X155213590Y-89972559D01*
X155001390Y-89827569D01*
X154749500Y-89776560D01*
X152717500Y-89776560D01*
X152482183Y-89820838D01*
X152266059Y-89959910D01*
X152121069Y-90172110D01*
X152070060Y-90424000D01*
X152070060Y-92219138D01*
X151434820Y-92854378D01*
X151389333Y-92854338D01*
X151045557Y-92996383D01*
X150942781Y-93098979D01*
X150552570Y-92708768D01*
X150547662Y-92682683D01*
X150483822Y-92583472D01*
X150540931Y-92499890D01*
X150591940Y-92248000D01*
X150591940Y-91648000D01*
X150586296Y-91618005D01*
X150879701Y-91739838D01*
X151251667Y-91740162D01*
X151595443Y-91598117D01*
X151858692Y-91335327D01*
X152001338Y-90991799D01*
X152001662Y-90619833D01*
X151859617Y-90276057D01*
X151596827Y-90012808D01*
X151253299Y-89870162D01*
X150881333Y-89869838D01*
X150764772Y-89918000D01*
X150396063Y-89918000D01*
X150196390Y-89781569D01*
X149944500Y-89730560D01*
X148444500Y-89730560D01*
X148209183Y-89774838D01*
X147993059Y-89913910D01*
X147848069Y-90126110D01*
X147797060Y-90378000D01*
X147797060Y-90905758D01*
X147699000Y-90807698D01*
X147699000Y-90106500D01*
X147641148Y-89815661D01*
X147476401Y-89569099D01*
X146868802Y-88961500D01*
X156847698Y-88961500D01*
X158847599Y-90961401D01*
G36*
X141305162Y-96841201D02*
X141304838Y-97213167D01*
X141446883Y-97556943D01*
X141709673Y-97820192D01*
X141797173Y-97856525D01*
X141719320Y-97934378D01*
X141673833Y-97934338D01*
X141330057Y-98076383D01*
X141066808Y-98339173D01*
X140924162Y-98682701D01*
X140923838Y-99054667D01*
X141065883Y-99398443D01*
X141328673Y-99661692D01*
X141672201Y-99804338D01*
X142044167Y-99804662D01*
X142387943Y-99662617D01*
X142397060Y-99653516D01*
X142397060Y-99868000D01*
X142441338Y-100103317D01*
X142455599Y-100125479D01*
X142400308Y-100180673D01*
X142257662Y-100524201D01*
X142257387Y-100840000D01*
X136712802Y-100840000D01*
X136610696Y-100737894D01*
X137127848Y-100635026D01*
X137614029Y-100310170D01*
X137794992Y-100039339D01*
X138176510Y-100457321D01*
X138705973Y-100705468D01*
X138938000Y-100584969D01*
X138938000Y-99377500D01*
X139192000Y-99377500D01*
X139192000Y-100584969D01*
X139424027Y-100705468D01*
X139953490Y-100457321D01*
X140347688Y-100025447D01*
X140519958Y-99609526D01*
X140398817Y-99377500D01*
X139192000Y-99377500D01*
X138938000Y-99377500D01*
X138918000Y-99377500D01*
X138918000Y-99123500D01*
X138938000Y-99123500D01*
X138938000Y-99103500D01*
X139192000Y-99103500D01*
X139192000Y-99123500D01*
X140398817Y-99123500D01*
X140519958Y-98891474D01*
X140347688Y-98475553D01*
X139953490Y-98043679D01*
X139830772Y-97986164D01*
X140154029Y-97770170D01*
X140478885Y-97283989D01*
X140592959Y-96710500D01*
X140554668Y-96518000D01*
X141439367Y-96518000D01*
X141305162Y-96841201D01*
X141305162Y-96841201D01*
G37*
X141305162Y-96841201D02*
X141304838Y-97213167D01*
X141446883Y-97556943D01*
X141709673Y-97820192D01*
X141797173Y-97856525D01*
X141719320Y-97934378D01*
X141673833Y-97934338D01*
X141330057Y-98076383D01*
X141066808Y-98339173D01*
X140924162Y-98682701D01*
X140923838Y-99054667D01*
X141065883Y-99398443D01*
X141328673Y-99661692D01*
X141672201Y-99804338D01*
X142044167Y-99804662D01*
X142387943Y-99662617D01*
X142397060Y-99653516D01*
X142397060Y-99868000D01*
X142441338Y-100103317D01*
X142455599Y-100125479D01*
X142400308Y-100180673D01*
X142257662Y-100524201D01*
X142257387Y-100840000D01*
X136712802Y-100840000D01*
X136610696Y-100737894D01*
X137127848Y-100635026D01*
X137614029Y-100310170D01*
X137794992Y-100039339D01*
X138176510Y-100457321D01*
X138705973Y-100705468D01*
X138938000Y-100584969D01*
X138938000Y-99377500D01*
X139192000Y-99377500D01*
X139192000Y-100584969D01*
X139424027Y-100705468D01*
X139953490Y-100457321D01*
X140347688Y-100025447D01*
X140519958Y-99609526D01*
X140398817Y-99377500D01*
X139192000Y-99377500D01*
X138938000Y-99377500D01*
X138918000Y-99377500D01*
X138918000Y-99123500D01*
X138938000Y-99123500D01*
X138938000Y-99103500D01*
X139192000Y-99103500D01*
X139192000Y-99123500D01*
X140398817Y-99123500D01*
X140519958Y-98891474D01*
X140347688Y-98475553D01*
X139953490Y-98043679D01*
X139830772Y-97986164D01*
X140154029Y-97770170D01*
X140478885Y-97283989D01*
X140592959Y-96710500D01*
X140554668Y-96518000D01*
X141439367Y-96518000D01*
X141305162Y-96841201D01*
G36*
X142568250Y-90551000D02*
X143667500Y-90551000D01*
X143667500Y-90531000D01*
X143921500Y-90531000D01*
X143921500Y-90551000D01*
X145020750Y-90551000D01*
X145149750Y-90422000D01*
X145354198Y-90422000D01*
X145671000Y-90738802D01*
X145671000Y-90888529D01*
X145665299Y-90886162D01*
X145293333Y-90885838D01*
X145157651Y-90941901D01*
X145020750Y-90805000D01*
X143921500Y-90805000D01*
X143921500Y-90825000D01*
X143667500Y-90825000D01*
X143667500Y-90805000D01*
X142568250Y-90805000D01*
X142409500Y-90963750D01*
X142409500Y-91104310D01*
X142499306Y-91321122D01*
X142448069Y-91396110D01*
X142397060Y-91648000D01*
X142397060Y-92248000D01*
X142436574Y-92458000D01*
X142303500Y-92458000D01*
X142092907Y-92499890D01*
X142012660Y-92515852D01*
X141766099Y-92680599D01*
X141036198Y-93410500D01*
X140354262Y-93410500D01*
X140154029Y-93110830D01*
X139839248Y-92900500D01*
X140154029Y-92690170D01*
X140478885Y-92203989D01*
X140592959Y-91630500D01*
X140517775Y-91252527D01*
X141348302Y-90422000D01*
X142439250Y-90422000D01*
X142568250Y-90551000D01*
X142568250Y-90551000D01*
G37*
X142568250Y-90551000D02*
X143667500Y-90551000D01*
X143667500Y-90531000D01*
X143921500Y-90531000D01*
X143921500Y-90551000D01*
X145020750Y-90551000D01*
X145149750Y-90422000D01*
X145354198Y-90422000D01*
X145671000Y-90738802D01*
X145671000Y-90888529D01*
X145665299Y-90886162D01*
X145293333Y-90885838D01*
X145157651Y-90941901D01*
X145020750Y-90805000D01*
X143921500Y-90805000D01*
X143921500Y-90825000D01*
X143667500Y-90825000D01*
X143667500Y-90805000D01*
X142568250Y-90805000D01*
X142409500Y-90963750D01*
X142409500Y-91104310D01*
X142499306Y-91321122D01*
X142448069Y-91396110D01*
X142397060Y-91648000D01*
X142397060Y-92248000D01*
X142436574Y-92458000D01*
X142303500Y-92458000D01*
X142092907Y-92499890D01*
X142012660Y-92515852D01*
X141766099Y-92680599D01*
X141036198Y-93410500D01*
X140354262Y-93410500D01*
X140154029Y-93110830D01*
X139839248Y-92900500D01*
X140154029Y-92690170D01*
X140478885Y-92203989D01*
X140592959Y-91630500D01*
X140517775Y-91252527D01*
X141348302Y-90422000D01*
X142439250Y-90422000D01*
X142568250Y-90551000D01*
M02*
