G04 #@! TF.FileFunction,Soldermask,Top*
%FSLAX46Y46*%
G04 Gerber Fmt 4.6, Leading zero omitted, Abs format (unit mm)*
G04 Created by KiCad (PCBNEW 4.0.2-stable) date 11.06.2016 19:11:28*
%MOMM*%
G01*
G04 APERTURE LIST*
%ADD10C,0.100000*%
%ADD11R,1.900000X1.000000*%
%ADD12R,2.127200X2.127200*%
%ADD13O,2.127200X2.127200*%
%ADD14R,2.432000X2.127200*%
%ADD15O,2.432000X2.127200*%
%ADD16R,2.686000X1.974800*%
%ADD17O,2.686000X1.974800*%
%ADD18R,2.432000X2.432000*%
%ADD19O,2.432000X2.432000*%
G04 APERTURE END LIST*
D10*
D11*
X135031500Y-106489500D03*
X135031500Y-107759500D03*
X135031500Y-109029500D03*
X135031500Y-110299500D03*
X135031500Y-111569500D03*
X135031500Y-112839500D03*
X135031500Y-114109500D03*
X135031500Y-115379500D03*
X140431500Y-115379500D03*
X140431500Y-114109500D03*
X140431500Y-112839500D03*
X140431500Y-111569500D03*
X140431500Y-110299500D03*
X140431500Y-109029500D03*
X140431500Y-107759500D03*
X140431500Y-106489500D03*
X151163000Y-115379500D03*
X151163000Y-114109500D03*
X151163000Y-112839500D03*
X151163000Y-111569500D03*
X151163000Y-110299500D03*
X151163000Y-109029500D03*
X151163000Y-107759500D03*
X151163000Y-106489500D03*
X145763000Y-106489500D03*
X145763000Y-107759500D03*
X145763000Y-109029500D03*
X145763000Y-110299500D03*
X145763000Y-111569500D03*
X145763000Y-112839500D03*
X145763000Y-114109500D03*
X145763000Y-115379500D03*
D12*
X169545000Y-108331000D03*
D13*
X167005000Y-108331000D03*
X169545000Y-110871000D03*
X167005000Y-110871000D03*
X169545000Y-113411000D03*
X167005000Y-113411000D03*
X169545000Y-115951000D03*
X167005000Y-115951000D03*
X169545000Y-118491000D03*
X167005000Y-118491000D03*
X169545000Y-121031000D03*
X167005000Y-121031000D03*
X169545000Y-123571000D03*
X167005000Y-123571000D03*
X169545000Y-126111000D03*
X167005000Y-126111000D03*
X169545000Y-128651000D03*
X167005000Y-128651000D03*
D14*
X156210000Y-112649000D03*
D15*
X156210000Y-115189000D03*
X156210000Y-117729000D03*
D14*
X156210000Y-123698000D03*
D15*
X156210000Y-126238000D03*
X156210000Y-128778000D03*
D12*
X135826500Y-120777000D03*
D13*
X138366500Y-120777000D03*
X135826500Y-123317000D03*
X138366500Y-123317000D03*
X135826500Y-125857000D03*
X138366500Y-125857000D03*
X135826500Y-128397000D03*
X138366500Y-128397000D03*
D11*
X150147000Y-129476500D03*
X150147000Y-128206500D03*
X150147000Y-126936500D03*
X150147000Y-125666500D03*
X150147000Y-124396500D03*
X150147000Y-123126500D03*
X150147000Y-121856500D03*
X150147000Y-120586500D03*
X144747000Y-120586500D03*
X144747000Y-121856500D03*
X144747000Y-123126500D03*
X144747000Y-124396500D03*
X144747000Y-125666500D03*
X144747000Y-126936500D03*
X144747000Y-128206500D03*
X144747000Y-129476500D03*
D12*
X136525000Y-91630500D03*
D13*
X139065000Y-91630500D03*
X136525000Y-94170500D03*
X139065000Y-94170500D03*
X136525000Y-96710500D03*
X139065000Y-96710500D03*
X136525000Y-99250500D03*
X139065000Y-99250500D03*
D16*
X160591500Y-93027500D03*
D17*
X160591500Y-95567500D03*
X160591500Y-98107500D03*
X160591500Y-100647500D03*
X160591500Y-103187500D03*
X160591500Y-105727500D03*
X160591500Y-108267500D03*
X160591500Y-110807500D03*
X160591500Y-113347500D03*
X160591500Y-115887500D03*
X160591500Y-118427500D03*
X160591500Y-120967500D03*
X160591500Y-123507500D03*
X160591500Y-126047500D03*
X160591500Y-128587500D03*
X175831500Y-128587500D03*
X175831500Y-126047500D03*
X175831500Y-123507500D03*
X175831500Y-120967500D03*
X175831500Y-118427500D03*
X175831500Y-115887500D03*
X175831500Y-113347500D03*
X175831500Y-110807500D03*
X175831500Y-108267500D03*
X175831500Y-105727500D03*
X175831500Y-103187500D03*
X175831500Y-100647500D03*
X175831500Y-98107500D03*
X175831500Y-95567500D03*
X175831500Y-93027500D03*
D18*
X153733500Y-91440000D03*
D19*
X156273500Y-91440000D03*
M02*
