M48
METRIC,TZ
T1C0.400
T2C0.813
T3C1.016
%
G90
G05
T1
X133159Y-109855
X134874Y-117475
X135001Y-105029
X136462Y-112903
X136462Y-113856
X136525Y-111569
X136589Y-115379
X136779Y-117475
X137097Y-118237
X137859Y-102362
X138557Y-116967
X138938Y-108331
X139192Y-114935
X140653Y-118237
X140843Y-105410
X141034Y-131255
X141859Y-98870
X142240Y-97028
X142367Y-88202
X142558Y-129476
X142684Y-108648
X142875Y-102870
X143193Y-100711
X143510Y-121920
X143574Y-109792
X144526Y-114998
X145479Y-91821
X146939Y-94424
X147193Y-127953
X147891Y-129540
X149796Y-117221
X151067Y-90805
X151575Y-93789
X152019Y-131890
X152337Y-119063
X152400Y-109093
X152400Y-110363
X152400Y-116776
X152464Y-111633
X152591Y-107887
X152591Y-127000
X152781Y-106934
X153924Y-129667
X154496Y-105093
X156401Y-97028
X156528Y-95377
X157480Y-107061
X159576Y-107061
X162687Y-95568
X165100Y-119951
X167640Y-87122
X167640Y-91440
X171196Y-92393
X173799Y-104521
X177991Y-115951
T2
X160592Y-93027
X160592Y-95568
X160592Y-98108
X160592Y-100648
X160592Y-103188
X160592Y-105727
X160592Y-108268
X160592Y-110807
X160592Y-113348
X160592Y-115888
X160592Y-118427
X160592Y-120968
X160592Y-123507
X160592Y-126048
X160592Y-128588
X175832Y-93027
X175832Y-95568
X175832Y-98108
X175832Y-100648
X175832Y-103188
X175832Y-105727
X175832Y-108268
X175832Y-110807
X175832Y-113348
X175832Y-115888
X175832Y-118427
X175832Y-120968
X175832Y-123507
X175832Y-126048
X175832Y-128588
T3
X135826Y-120777
X135826Y-123317
X135826Y-125857
X135826Y-128397
X136525Y-91631
X136525Y-94171
X136525Y-96711
X136525Y-99251
X138367Y-120777
X138367Y-123317
X138367Y-125857
X138367Y-128397
X139065Y-91631
X139065Y-94171
X139065Y-96711
X139065Y-99251
X153734Y-91440
X156210Y-112649
X156210Y-115189
X156210Y-117729
X156210Y-123698
X156210Y-126238
X156210Y-128778
X156274Y-91440
X167005Y-108331
X167005Y-110871
X167005Y-113411
X167005Y-115951
X167005Y-118491
X167005Y-121031
X167005Y-123571
X167005Y-126111
X167005Y-128651
X169545Y-108331
X169545Y-110871
X169545Y-113411
X169545Y-115951
X169545Y-118491
X169545Y-121031
X169545Y-123571
X169545Y-126111
X169545Y-128651
T0
M30
